<svg width="20" height="20" viewBox="0 0 20 20" fill="none" xmlns="http://www.w3.org/2000/svg">
<path d="M4 2.01001C1.58 3.84001 0 6.73001 0 10C0 11.46 0.32 12.85 0.89 14.11L4 12.31V2.01001Z" fill="#202020"/>
<path d="M9 9.42005V0.0500488C7.94 0.160049 6.93 0.430049 6 0.840049V11.16L9 9.42005Z" fill="#202020"/>
<path d="M9.99965 11.1501L1.88965 15.8301C2.49965 16.6701 3.22965 17.4201 4.06965 18.0301L12.9996 12.8901L9.99965 11.1501Z" fill="#202020"/>
<path d="M11 5.95996V9.41996L19.11 14.1C19.53 13.17 19.81 12.17 19.93 11.12L11 5.95996Z" fill="#202020"/>
<path d="M6.07031 19.2C7.28031 19.71 8.60031 20 10.0003 20C13.3403 20 16.2903 18.35 18.1103 15.84L15.0003 14.04L6.07031 19.2Z" fill="#202020"/>
<path d="M19.92 8.81005C19.37 4.18005 15.66 0.510049 11 0.0500488V3.65005L19.92 8.81005Z" fill="#202020"/>
</svg>
