<svg width="141" height="49" viewBox="0 0 141 49" fill="none" xmlns="http://www.w3.org/2000/svg">
<g clip-path="url(#clip0_716_21825)">
<path d="M10.2102 47.6283C9.85369 47.6283 9.50585 47.6236 9.15219 47.6154C8.41955 47.6056 7.68862 47.5402 6.9654 47.4197C6.29103 47.3006 5.63775 47.079 5.02711 46.7622C4.42207 46.4481 3.87022 46.0362 3.3927 45.5423C2.90828 45.0542 2.50497 44.4882 2.19876 43.8665C1.88919 43.2408 1.67494 42.5701 1.56349 41.8779C1.44313 41.134 1.37801 40.3818 1.36869 39.6279C1.36127 39.3748 1.35156 38.5322 1.35156 38.5322V10.8115C1.35156 10.8115 1.3619 9.98179 1.36875 9.73803C1.37767 8.98525 1.44241 8.23425 1.56241 7.49155C1.67407 6.79737 1.88848 6.12477 2.19823 5.49703C2.50331 4.8758 2.90437 4.3093 3.38588 3.81949C3.86685 3.32502 4.42046 2.911 5.02654 2.59252C5.63578 2.27678 6.28782 2.05675 6.96083 1.9398C7.68642 1.81807 8.41988 1.75227 9.15506 1.74292L10.2107 1.72827H130.444L131.512 1.74351C132.241 1.75239 132.968 1.81761 133.686 1.93862C134.366 2.05704 135.025 2.27861 135.641 2.59604C136.855 3.23785 137.843 4.25327 138.467 5.49996C138.772 6.12336 138.983 6.79048 139.093 7.47866C139.214 8.22746 139.282 8.98436 139.296 9.74331C139.3 10.0832 139.3 10.4482 139.3 10.8115C139.309 11.2615 139.309 11.6898 139.309 12.1216V37.236C139.309 37.672 139.309 38.0974 139.3 38.5263C139.3 38.9165 139.3 39.274 139.295 39.6419C139.281 40.3873 139.215 41.1307 139.095 41.8661C138.986 42.5634 138.773 43.2393 138.463 43.8701C138.155 44.485 137.754 45.0462 137.275 45.5329C136.797 46.0295 136.244 46.4438 135.638 46.7599C135.023 47.0791 134.366 47.3016 133.686 47.4197C132.963 47.5409 132.232 47.6063 131.5 47.6154C131.157 47.6236 130.798 47.6283 130.45 47.6283L129.181 47.6307L10.2102 47.6283Z" fill="black"/>
<path d="M29.312 25.039C29.3246 24.0374 29.584 23.0554 30.066 22.1842C30.548 21.3131 31.2371 20.5811 32.069 20.0565C31.5405 19.2823 30.8433 18.6452 30.0327 18.1958C29.2222 17.7463 28.3206 17.4969 27.3996 17.4673C25.435 17.2558 23.5304 18.6731 22.5293 18.6731C21.5088 18.6731 19.9674 17.4883 18.3075 17.5233C17.2339 17.5589 16.1876 17.8792 15.2705 18.4528C14.3534 19.0265 13.5968 19.834 13.0745 20.7968C10.8118 24.8149 12.4995 30.7202 14.667 33.9681C15.7514 35.5585 17.0188 37.335 18.6771 37.272C20.2999 37.203 20.906 36.2107 22.8648 36.2107C24.8055 36.2107 25.3741 37.272 27.0661 37.232C28.8074 37.203 29.9045 35.6345 30.9509 34.029C31.73 32.8958 32.3296 31.6433 32.7273 30.318C31.7157 29.8791 30.8524 29.1445 30.245 28.2058C29.6377 27.267 29.3132 26.1657 29.312 25.039Z" fill="white"/>
<path d="M26.1147 15.3313C27.0641 14.1623 27.5319 12.6597 27.4186 11.1426C25.9681 11.2988 24.6282 12.0099 23.6659 13.1341C23.1954 13.6833 22.8351 14.3222 22.6055 15.0144C22.3759 15.7065 22.2816 16.4382 22.3279 17.1678C23.0534 17.1754 23.7711 17.0141 24.4271 16.696C25.083 16.3779 25.6601 15.9113 26.1147 15.3313Z" fill="white"/>
<path d="M49.8266 33.2459H44.2888L42.9589 37.2737H40.6133L45.8586 22.3721H48.2956L53.5409 37.2737H51.1553L49.8266 33.2459ZM44.8623 31.3873H49.2519L47.088 24.8506H47.0274L44.8623 31.3873Z" fill="white"/>
<path d="M64.8683 31.842C64.8683 35.2181 63.1065 37.3873 60.4479 37.3873C59.7744 37.4234 59.1046 37.2643 58.5152 36.9281C57.9258 36.5919 57.4406 36.0923 57.1152 35.4865H57.0648V40.8677H54.8906V26.4091H56.9952V28.2162H57.0352C57.3756 27.6132 57.869 27.1162 58.4629 26.778C59.0568 26.4398 59.729 26.273 60.4079 26.2955C63.0962 26.2955 64.8683 28.4752 64.8683 31.842ZM62.6335 31.842C62.6335 29.6424 61.5253 28.1962 59.8343 28.1962C58.1731 28.1962 57.0557 29.6728 57.0557 31.842C57.0557 34.031 58.1731 35.497 59.8343 35.497C61.5253 35.497 62.6335 34.0615 62.6335 31.842Z" fill="white"/>
<path d="M76.5285 31.8419C76.5285 35.2181 74.7667 37.3873 72.108 37.3873C71.4346 37.4234 70.7648 37.2643 70.1754 36.9281C69.5859 36.5919 69.1007 36.0923 68.7753 35.4865H68.725V40.8677H66.5508V26.4091H68.6553V28.2162H68.6953C69.0357 27.6132 69.5291 27.1162 70.123 26.778C70.7169 26.4397 71.3891 26.273 72.068 26.2955C74.7564 26.2955 76.5285 28.4751 76.5285 31.8419ZM74.2937 31.8419C74.2937 29.6423 73.1854 28.1962 71.4945 28.1962C69.8333 28.1962 68.7159 29.6728 68.7159 31.8419C68.7159 34.031 69.8333 35.497 71.4945 35.497C73.1854 35.497 74.2937 34.0615 74.2937 31.8419H74.2937Z" fill="white"/>
<path d="M84.2335 33.1216C84.3946 34.5994 85.7942 35.5696 87.7067 35.5696C89.5394 35.5696 90.8578 34.5993 90.8578 33.2669C90.8578 32.1103 90.0626 31.4177 88.1797 30.9431L86.2969 30.4778C83.6291 29.8169 82.3906 28.5372 82.3906 26.4606C82.3906 23.8896 84.5751 22.1235 87.677 22.1235C90.747 22.1235 92.8515 23.8896 92.9224 26.4606H90.7275C90.5962 24.9735 89.3976 24.0759 87.6462 24.0759C85.8947 24.0759 84.6962 24.9841 84.6962 26.306C84.6962 27.3595 85.4617 27.9794 87.3343 28.454L88.9349 28.8571C91.9158 29.5801 93.1543 30.8083 93.1543 32.988C93.1543 35.7758 90.9892 37.5219 87.5456 37.5219C84.3237 37.5219 82.1483 35.8169 82.0078 33.1215L84.2335 33.1216Z" fill="white"/>
<path d="M97.8457 23.8381V26.4092H99.86V28.1752H97.8457V34.1647C97.8457 35.0952 98.249 35.5288 99.1345 35.5288C99.3736 35.5245 99.6123 35.5073 99.8497 35.4772V37.2326C99.4516 37.3089 99.047 37.3435 98.642 37.3358C96.4975 37.3358 95.6612 36.5096 95.6612 34.4025V28.1752H94.1211V26.4092H95.6612V23.8381H97.8457Z" fill="white"/>
<path d="M101.027 31.842C101.027 28.4237 102.99 26.2756 106.051 26.2756C109.122 26.2756 111.076 28.4236 111.076 31.842C111.076 35.2698 109.132 37.4084 106.051 37.4084C102.971 37.4084 101.027 35.2698 101.027 31.842ZM108.86 31.842C108.86 29.4971 107.813 28.1131 106.051 28.1131C104.289 28.1131 103.243 29.5077 103.243 31.842C103.243 34.1963 104.289 35.5698 106.051 35.5698C107.813 35.5698 108.86 34.1963 108.86 31.842H108.86Z" fill="white"/>
<path d="M112.867 26.409H114.941V28.2582H114.991C115.131 27.6807 115.461 27.1703 115.925 26.8128C116.389 26.4554 116.959 26.2726 117.539 26.2953C117.79 26.2944 118.039 26.3224 118.284 26.3786V28.4645C117.968 28.3654 117.638 28.3198 117.307 28.3297C116.991 28.3166 116.676 28.3737 116.384 28.4972C116.092 28.6206 115.829 28.8075 115.614 29.045C115.398 29.2825 115.236 29.5649 115.137 29.8729C115.038 30.1809 115.006 30.5072 115.041 30.8293V37.2735H112.867L112.867 26.409Z" fill="white"/>
<path d="M128.309 34.0827C128.016 36.0549 126.144 37.4084 123.748 37.4084C120.666 37.4084 118.754 35.2909 118.754 31.8936C118.754 28.4858 120.677 26.2756 123.656 26.2756C126.587 26.2756 128.43 28.3405 128.43 31.6346V32.3987H120.949V32.5334C120.914 32.9333 120.963 33.3361 121.092 33.7151C121.221 34.0941 121.427 34.4406 121.696 34.7317C121.966 35.0228 122.293 35.2517 122.655 35.4032C123.017 35.5548 123.407 35.6255 123.798 35.6108C124.312 35.6602 124.828 35.5381 125.268 35.2628C125.709 34.9874 126.051 34.5736 126.244 34.0827L128.309 34.0827ZM120.959 30.8401H126.255C126.274 30.4806 126.221 30.1208 126.098 29.7833C125.976 29.4459 125.787 29.1381 125.543 28.8791C125.299 28.6202 125.005 28.4158 124.681 28.2787C124.356 28.1417 124.007 28.0749 123.656 28.0827C123.302 28.0805 122.951 28.1503 122.624 28.288C122.296 28.4257 121.998 28.6285 121.748 28.8849C121.497 29.1413 121.298 29.446 121.163 29.7816C121.027 30.1172 120.958 30.4769 120.959 30.8401V30.8401Z" fill="white"/>
<path d="M44.5879 11.1556C45.0438 11.122 45.5012 11.1927 45.9272 11.3624C46.3532 11.5321 46.7371 11.7967 47.0513 12.137C47.3656 12.4774 47.6022 12.885 47.7443 13.3305C47.8863 13.7761 47.9302 14.2484 47.8727 14.7134C47.8727 17.0009 46.6673 18.3158 44.5879 18.3158H42.0664V11.1556H44.5879ZM43.1507 17.3032H44.4668C44.7926 17.3232 45.1185 17.2684 45.421 17.1428C45.7235 17.0173 45.9948 16.8242 46.2154 16.5775C46.4359 16.3308 46.6 16.0368 46.6958 15.7169C46.7916 15.3969 46.8166 15.0591 46.769 14.728C46.8131 14.3982 46.7856 14.0625 46.6883 13.7449C46.5911 13.4273 46.4266 13.1357 46.2065 12.8909C45.9865 12.6462 45.7164 12.4545 45.4157 12.3294C45.1149 12.2043 44.7909 12.149 44.4668 12.1674H43.1507V17.3032Z" fill="white"/>
<path d="M49.0977 15.6115C49.0646 15.2564 49.1042 14.8981 49.214 14.5596C49.3238 14.2212 49.5013 13.91 49.7352 13.646C49.9691 13.382 50.2543 13.1711 50.5723 13.0267C50.8904 12.8824 51.2343 12.8079 51.5821 12.8079C51.9299 12.8079 52.2738 12.8824 52.5919 13.0267C52.9099 13.1711 53.1951 13.382 53.429 13.646C53.6629 13.91 53.8405 14.2212 53.9502 14.5596C54.06 14.8981 54.0996 15.2564 54.0665 15.6115C54.1003 15.967 54.0611 16.3258 53.9516 16.6648C53.8421 17.0038 53.6647 17.3156 53.4307 17.5801C53.1967 17.8446 52.9114 18.056 52.593 18.2006C52.2747 18.3452 51.9303 18.42 51.5821 18.42C51.2339 18.42 50.8895 18.3452 50.5712 18.2006C50.2528 18.056 49.9675 17.8446 49.7335 17.5801C49.4995 17.3156 49.3221 17.0038 49.2126 16.6648C49.1031 16.3258 49.0639 15.967 49.0977 15.6115ZM52.9971 15.6115C52.9971 14.4402 52.4841 13.7553 51.5838 13.7553C50.6801 13.7553 50.1717 14.4402 50.1717 15.6115C50.1717 16.7922 50.6801 17.4719 51.5838 17.4719C52.4841 17.4719 52.9971 16.7875 52.9971 15.6115H52.9971Z" fill="white"/>
<path d="M60.6707 18.3156H59.5921L58.5033 14.3359H58.4211L57.3368 18.3156H56.2686L54.8164 12.9121H55.871L56.8147 17.0353H56.8924L57.9755 12.9121H58.9729L60.056 17.0353H60.1383L61.0774 12.9121H62.1171L60.6707 18.3156Z" fill="white"/>
<path d="M63.3399 12.9121H64.3407V13.7705H64.4184C64.5502 13.4622 64.7725 13.2038 65.0543 13.0312C65.3361 12.8586 65.6634 12.7805 65.9905 12.8078C66.2468 12.788 66.5042 12.8277 66.7436 12.9238C66.9829 13.0199 67.1982 13.17 67.3733 13.3631C67.5484 13.5561 67.6789 13.787 67.7552 14.0388C67.8315 14.2906 67.8516 14.5567 67.814 14.8176V18.3156H66.7743V15.0854C66.7743 14.217 66.4064 13.7852 65.6375 13.7852C65.4634 13.7768 65.2897 13.8072 65.1282 13.8742C64.9666 13.9412 64.8212 14.0432 64.7017 14.1733C64.5822 14.3034 64.4916 14.4584 64.4359 14.6278C64.3803 14.7971 64.3611 14.9768 64.3795 15.1545V18.3156H63.3398L63.3399 12.9121Z" fill="white"/>
<path d="M69.4688 10.8027H70.5084V18.3156H69.4688V10.8027Z" fill="white"/>
<path d="M71.9531 15.6116C71.92 15.2565 71.9597 14.8982 72.0695 14.5597C72.1793 14.2212 72.3569 13.91 72.5908 13.646C72.8248 13.382 73.1099 13.1711 73.428 13.0268C73.7461 12.8824 74.09 12.8079 74.4378 12.8079C74.7856 12.8079 75.1296 12.8824 75.4477 13.0268C75.7658 13.1711 76.0509 13.382 76.2848 13.646C76.5188 13.91 76.6964 14.2212 76.8062 14.5597C76.916 14.8982 76.9556 15.2565 76.9225 15.6116C76.9562 15.9671 76.9171 16.3259 76.8075 16.6649C76.698 17.0039 76.5205 17.3157 76.2865 17.5802C76.0525 17.8447 75.7672 18.056 75.4488 18.2007C75.1304 18.3453 74.786 18.42 74.4378 18.42C74.0896 18.42 73.7453 18.3453 73.4269 18.2007C73.1085 18.056 72.8231 17.8447 72.5891 17.5802C72.3551 17.3157 72.1777 17.0039 72.0681 16.6649C71.9586 16.3259 71.9194 15.9671 71.9531 15.6116ZM75.8525 15.6116C75.8525 14.4403 75.3395 13.7554 74.4393 13.7554C73.5355 13.7554 73.0271 14.4403 73.0271 15.6116C73.0271 16.7923 73.5356 17.472 74.4393 17.472C75.3396 17.472 75.8526 16.7876 75.8526 15.6116H75.8525Z" fill="white"/>
<path d="M78.0195 16.7875C78.0195 15.8149 78.7256 15.2541 79.9789 15.1745L81.406 15.0901V14.6237C81.406 14.053 81.0381 13.7307 80.3274 13.7307C79.747 13.7307 79.3449 13.9493 79.2295 14.3313H78.2229C78.3292 13.4032 79.1803 12.8079 80.3754 12.8079C81.6962 12.8079 82.4411 13.4823 82.4411 14.6237V18.3157H81.4402V17.5563H81.358C81.191 17.8287 80.9565 18.0507 80.6785 18.1998C80.4005 18.3489 80.0889 18.4196 79.7756 18.4047C79.5544 18.4283 79.3309 18.4041 79.1194 18.3337C78.9079 18.2632 78.7132 18.1481 78.5478 17.9957C78.3823 17.8434 78.2498 17.6571 78.1588 17.449C78.0679 17.2409 78.0204 17.0156 78.0195 16.7875ZM81.406 16.3258V15.8741L80.1195 15.9584C79.394 16.0082 79.0649 16.2614 79.0649 16.7377C79.0649 17.2241 79.4762 17.5071 80.0418 17.5071C80.2075 17.5243 80.3749 17.5071 80.5341 17.4566C80.6932 17.4061 80.8408 17.3233 80.968 17.2131C81.0953 17.1028 81.1997 16.9675 81.2749 16.8151C81.3501 16.6627 81.3947 16.4963 81.406 16.3258Z" fill="white"/>
<path d="M83.8086 15.6115C83.8086 13.9041 84.6643 12.8225 85.9954 12.8225C86.3246 12.8069 86.6514 12.8878 86.9375 13.0557C87.2235 13.2235 87.4571 13.4715 87.6109 13.7705H87.6886V10.8027H88.7283V18.3156H87.732V17.4619H87.6498C87.4841 17.7589 87.2424 18.0037 86.9507 18.1699C86.6591 18.3361 86.3288 18.4173 85.9954 18.4047C84.6552 18.4047 83.8086 17.3231 83.8086 15.6115ZM84.8826 15.6115C84.8826 16.7576 85.4093 17.4473 86.2902 17.4473C87.1665 17.4473 87.7081 16.7477 87.7081 15.6162C87.7081 14.4901 87.1608 13.7805 86.2902 13.7805C85.415 13.7805 84.8826 14.4748 84.8826 15.6115H84.8826Z" fill="white"/>
<path d="M93.0274 15.6115C92.9943 15.2564 93.0339 14.8981 93.1436 14.5596C93.2534 14.2212 93.431 13.91 93.6649 13.646C93.8988 13.382 94.1839 13.1711 94.502 13.0267C94.82 12.8824 95.164 12.8079 95.5118 12.8079C95.8596 12.8079 96.2035 12.8824 96.5216 13.0267C96.8396 13.1711 97.1247 13.382 97.3587 13.646C97.5926 13.91 97.7701 14.2212 97.8799 14.5596C97.9897 14.8981 98.0293 15.2564 97.9962 15.6115C98.03 15.967 97.9908 16.3258 97.8813 16.6648C97.7718 17.0038 97.5944 17.3156 97.3604 17.5801C97.1264 17.8446 96.8411 18.056 96.5227 18.2006C96.2043 18.3452 95.86 18.42 95.5118 18.42C95.1636 18.42 94.8192 18.3452 94.5009 18.2006C94.1825 18.056 93.8972 17.8446 93.6632 17.5801C93.4292 17.3156 93.2518 17.0038 93.1423 16.6648C93.0328 16.3258 92.9936 15.967 93.0274 15.6115ZM96.9268 15.6115C96.9268 14.4402 96.4138 13.7553 95.5135 13.7553C94.6098 13.7553 94.1014 14.4402 94.1014 15.6115C94.1014 16.7922 94.6098 17.4719 95.5135 17.4719C96.4138 17.4719 96.9268 16.7875 96.9268 15.6115Z" fill="white"/>
<path d="M99.3906 12.9121H100.391V13.7705H100.469C100.601 13.4622 100.823 13.2038 101.105 13.0312C101.387 12.8586 101.714 12.7805 102.041 12.8078C102.298 12.788 102.555 12.8277 102.794 12.9238C103.034 13.0199 103.249 13.17 103.424 13.3631C103.599 13.5561 103.73 13.787 103.806 14.0388C103.882 14.2906 103.902 14.5567 103.865 14.8176V18.3156H102.825V15.0854C102.825 14.217 102.457 13.7852 101.688 13.7852C101.514 13.7768 101.34 13.8072 101.179 13.8742C101.017 13.9412 100.872 14.0432 100.752 14.1733C100.633 14.3034 100.542 14.4584 100.487 14.6278C100.431 14.7971 100.412 14.9768 100.43 15.1545V18.3156H99.3906V12.9121Z" fill="white"/>
<path d="M109.74 11.5669V12.9368H110.882V13.8351H109.74V16.6136C109.74 17.1796 109.968 17.4274 110.485 17.4274C110.618 17.427 110.75 17.4188 110.882 17.4028V18.2911C110.695 18.3254 110.506 18.3436 110.316 18.3456C109.16 18.3456 108.7 17.9284 108.7 16.8866V13.835H107.863V12.9368H108.7V11.5669H109.74Z" fill="white"/>
<path d="M112.301 10.8027H113.331V13.7805H113.414C113.552 13.4693 113.78 13.2094 114.068 13.0362C114.355 12.8629 114.688 12.7848 115.02 12.8125C115.275 12.7983 115.53 12.8419 115.766 12.9404C116.003 13.0388 116.216 13.1896 116.389 13.3821C116.562 13.5745 116.692 13.8037 116.769 14.0535C116.846 14.3032 116.868 14.5674 116.834 14.827V18.3156H115.794V15.09C115.794 14.2269 115.402 13.7898 114.667 13.7898C114.488 13.7748 114.309 13.8 114.14 13.8637C113.972 13.9273 113.82 14.0279 113.693 14.1584C113.567 14.2889 113.47 14.4461 113.409 14.6191C113.348 14.792 113.325 14.9766 113.341 15.1598V18.3156H112.301L112.301 10.8027Z" fill="white"/>
<path d="M122.899 16.8565C122.758 17.3504 122.452 17.7776 122.034 18.0633C121.617 18.3491 121.115 18.4753 120.616 18.4198C120.269 18.4292 119.924 18.361 119.605 18.22C119.287 18.079 119.002 17.8684 118.77 17.6031C118.538 17.3377 118.366 17.0238 118.265 16.6833C118.163 16.3427 118.135 15.9835 118.183 15.6308C118.136 15.2769 118.165 14.917 118.266 14.5754C118.367 14.2338 118.539 13.9184 118.769 13.6508C118.999 13.3831 119.283 13.1693 119.601 13.0238C119.919 12.8784 120.264 12.8047 120.612 12.8077C122.077 12.8077 122.962 13.8349 122.962 15.5317V15.9038H119.242V15.9636C119.225 16.1619 119.25 16.3615 119.313 16.5496C119.376 16.7377 119.477 16.9101 119.609 17.0559C119.742 17.2016 119.902 17.3174 120.08 17.3959C120.258 17.4744 120.451 17.5138 120.645 17.5116C120.893 17.5422 121.145 17.4963 121.369 17.3796C121.592 17.263 121.776 17.0809 121.898 16.8565L122.899 16.8565ZM119.242 15.1151H121.903C121.916 14.9338 121.892 14.7516 121.832 14.5804C121.772 14.4091 121.679 14.2525 121.556 14.1207C121.434 13.9889 121.287 13.8847 121.123 13.8149C120.959 13.7451 120.783 13.7112 120.606 13.7153C120.426 13.713 120.248 13.7476 120.081 13.8172C119.914 13.8867 119.763 13.9897 119.636 14.1202C119.509 14.2506 119.409 14.4059 119.341 14.5768C119.273 14.7476 119.239 14.9307 119.242 15.1151H119.242Z" fill="white"/>
</g>
<defs>
<clipPath id="clip0_716_21825">
<rect width="140" height="48" fill="white" transform="translate(0.332031 0.678223)"/>
</clipPath>
</defs>
</svg>
