<svg width="24" height="25" viewBox="0 0 24 25" fill="none" xmlns="http://www.w3.org/2000/svg">
<g clip-path="url(#clip0_8307_40471)">
<path d="M21.3333 0.125C22.0406 0.125 22.7189 0.405951 23.219 0.906048C23.719 1.40615 24 2.08442 24 2.79167V21.4583C24 22.1656 23.719 22.8439 23.219 23.344C22.7189 23.844 22.0406 24.125 21.3333 24.125H2.66667C1.95942 24.125 1.28115 23.844 0.781048 23.344C0.280951 22.8439 0 22.1656 0 21.4583V2.79167C0 2.08442 0.280951 1.40615 0.781048 0.906048C1.28115 0.405951 1.95942 0.125 2.66667 0.125H21.3333ZM20.6667 20.7917V13.725C20.6667 12.5722 20.2087 11.4666 19.3936 10.6514C18.5784 9.83628 17.4728 9.37833 16.32 9.37833C15.1867 9.37833 13.8667 10.0717 13.2267 11.1117V9.63167H9.50667V20.7917H13.2267V14.2183C13.2267 13.1917 14.0533 12.3517 15.08 12.3517C15.5751 12.3517 16.0499 12.5483 16.3999 12.8984C16.75 13.2485 16.9467 13.7233 16.9467 14.2183V20.7917H20.6667ZM5.17333 7.53833C5.76742 7.53833 6.33717 7.30233 6.75725 6.88225C7.17733 6.46217 7.41333 5.89242 7.41333 5.29833C7.41333 4.05833 6.41333 3.045 5.17333 3.045C4.57571 3.045 4.00257 3.2824 3.57999 3.70499C3.1574 4.12757 2.92 4.70071 2.92 5.29833C2.92 6.53833 3.93333 7.53833 5.17333 7.53833ZM7.02667 20.7917V9.63167H3.33333V20.7917H7.02667Z" fill="black"/>
</g>
<defs>
<clipPath id="clip0_8307_40471">
<rect width="24" height="24" fill="white" transform="translate(0 0.125)"/>
</clipPath>
</defs>
</svg>
