<svg width="24" height="25" viewBox="0 0 24 25" fill="none" xmlns="http://www.w3.org/2000/svg">
<rect y="0.125" width="24" height="24" rx="3" fill="black"/>
<path d="M21.6894 6.00735C20.9647 6.33676 20.1835 6.55324 19.3741 6.65676C20.2024 6.15794 20.8424 5.36735 21.1435 4.41676C20.3624 4.88735 19.4965 5.21676 18.5835 5.405C17.84 4.59559 16.7953 4.125 15.6094 4.125C13.3976 4.125 11.5906 5.93206 11.5906 8.16265C11.5906 8.48265 11.6282 8.79324 11.6941 9.085C8.34353 8.91559 5.36 7.30618 3.37412 4.86853C3.02588 5.46147 2.82824 6.15794 2.82824 6.89206C2.82824 8.29441 3.53412 9.53676 4.62588 10.2426C3.95765 10.2426 3.33647 10.0544 2.79059 9.77206V9.80029C2.79059 11.7579 4.18353 13.3956 6.02824 13.7626C5.43598 13.9247 4.81421 13.9473 4.21176 13.8285C4.46739 14.6309 4.96803 15.3329 5.64331 15.836C6.31858 16.3391 7.13454 16.6179 7.97647 16.6332C6.5493 17.7631 4.78023 18.3738 2.96 18.365C2.64 18.365 2.32 18.3462 2 18.3085C3.78824 19.4568 5.91529 20.125 8.19294 20.125C15.6094 20.125 19.6847 13.9697 19.6847 8.63324C19.6847 8.45441 19.6847 8.285 19.6753 8.10618C20.4659 7.54147 21.1435 6.82618 21.6894 6.00735Z" fill="white"/>
</svg>
