<svg width="9" height="12" viewBox="0 0 9 12" fill="none" xmlns="http://www.w3.org/2000/svg">
<path d="M0.611111 10.1179C0.611111 10.7901 1.16111 11.3401 1.83333 11.3401H6.72222C7.39444 11.3401 7.94445 10.7901 7.94445 10.1179V6.4512C7.94445 4.42616 6.30282 2.78453 4.27778 2.78453C2.25273 2.78453 0.611111 4.42615 0.611111 6.4512V10.1179ZM8.55556 1.56231C8.55556 1.2248 8.28195 0.951199 7.94445 0.951199H6.84879C6.57211 0.951199 6.30676 0.841287 6.11111 0.645643C5.91547 0.449999 5.65012 0.340088 5.37344 0.340088H3.18212C2.90544 0.340088 2.64009 0.449999 2.44444 0.645643C2.2488 0.841287 1.98345 0.951199 1.70677 0.951199H0.611111C0.273604 0.951199 0 1.2248 0 1.56231C0 1.89982 0.273604 2.17342 0.611111 2.17342H7.94444C8.28195 2.17342 8.55556 1.89982 8.55556 1.56231Z" fill="#444444"/>
</svg>
