<svg width="140" height="140" viewBox="0 0 140 6" fill="none" xmlns="http://www.w3.org/2000/svg">
<path d="M2.072 5.768L1.192 5.128L2.456 3.496L0.48 2.896L0.816 1.864L2.76 2.552L2.712 0.48H3.8L3.752 2.552L5.688 1.864L6.024 2.896L4.056 3.496L5.304 5.128L4.424 5.768L3.256 4.072L2.072 5.768ZM9.05638 5.768L8.17638 5.128L9.44038 3.496L7.46438 2.896L7.80038 1.864L9.74438 2.552L9.69638 0.48H10.7844L10.7364 2.552L12.6724 1.864L13.0084 2.896L11.0404 3.496L12.2884 5.128L11.4084 5.768L10.2404 4.072L9.05638 5.768ZM16.0408 5.768L15.1608 5.128L16.4248 3.496L14.4488 2.896L14.7848 1.864L16.7288 2.552L16.6808 0.48H17.7688L17.7208 2.552L19.6568 1.864L19.9928 2.896L18.0248 3.496L19.2728 5.128L18.3928 5.768L17.2248 4.072L16.0408 5.768ZM23.0251 5.768L22.1451 5.128L23.4091 3.496L21.4331 2.896L21.7691 1.864L23.7131 2.552L23.6651 0.48H24.7531L24.7051 2.552L26.6411 1.864L26.9771 2.896L25.0091 3.496L26.2571 5.128L25.3771 5.768L24.2091 4.072L23.0251 5.768ZM30.0095 5.768L29.1295 5.128L30.3935 3.496L28.4175 2.896L28.7535 1.864L30.6975 2.552L30.6495 0.48H31.7375L31.6895 2.552L33.6255 1.864L33.9615 2.896L31.9935 3.496L33.2415 5.128L32.3615 5.768L31.1935 4.072L30.0095 5.768ZM36.9939 5.768L36.1139 5.128L37.3779 3.496L35.4019 2.896L35.7379 1.864L37.6819 2.552L37.6339 0.48H38.7219L38.6739 2.552L40.6099 1.864L40.9459 2.896L38.9779 3.496L40.2259 5.128L39.3459 5.768L38.1779 4.072L36.9939 5.768ZM43.9783 5.768L43.0983 5.128L44.3623 3.496L42.3863 2.896L42.7223 1.864L44.6663 2.552L44.6183 0.48H45.7063L45.6583 2.552L47.5943 1.864L47.9303 2.896L45.9623 3.496L47.2103 5.128L46.3303 5.768L45.1623 4.072L43.9783 5.768ZM50.9626 5.768L50.0826 5.128L51.3466 3.496L49.3706 2.896L49.7066 1.864L51.6506 2.552L51.6026 0.48H52.6906L52.6426 2.552L54.5786 1.864L54.9146 2.896L52.9466 3.496L54.1946 5.128L53.3146 5.768L52.1466 4.072L50.9626 5.768ZM57.947 5.768L57.067 5.128L58.331 3.496L56.355 2.896L56.691 1.864L58.635 2.552L58.587 0.48H59.675L59.627 2.552L61.563 1.864L61.899 2.896L59.931 3.496L61.179 5.128L60.299 5.768L59.131 4.072L57.947 5.768ZM64.9314 5.768L64.0514 5.128L65.3154 3.496L63.3394 2.896L63.6754 1.864L65.6194 2.552L65.5714 0.48H66.6594L66.6114 2.552L68.5474 1.864L68.8834 2.896L66.9154 3.496L68.1634 5.128L67.2834 5.768L66.1154 4.072L64.9314 5.768ZM71.9158 5.768L71.0358 5.128L72.2998 3.496L70.3238 2.896L70.6598 1.864L72.6038 2.552L72.5558 0.48H73.6438L73.5958 2.552L75.5318 1.864L75.8678 2.896L73.8998 3.496L75.1478 5.128L74.2678 5.768L73.0998 4.072L71.9158 5.768ZM78.9001 5.768L78.0201 5.128L79.2841 3.496L77.3081 2.896L77.6441 1.864L79.5881 2.552L79.5401 0.48H80.6281L80.5801 2.552L82.5161 1.864L82.8521 2.896L80.8841 3.496L82.1321 5.128L81.2521 5.768L80.0841 4.072L78.9001 5.768ZM85.8845 5.768L85.0045 5.128L86.2685 3.496L84.2925 2.896L84.6285 1.864L86.5725 2.552L86.5245 0.48H87.6125L87.5645 2.552L89.5005 1.864L89.8365 2.896L87.8685 3.496L89.1165 5.128L88.2365 5.768L87.0685 4.072L85.8845 5.768ZM92.8689 5.768L91.9889 5.128L93.2529 3.496L91.2769 2.896L91.6129 1.864L93.5569 2.552L93.5089 0.48H94.5969L94.5489 2.552L96.4849 1.864L96.8209 2.896L94.8529 3.496L96.1009 5.128L95.2209 5.768L94.0529 4.072L92.8689 5.768ZM99.8533 5.768L98.9733 5.128L100.237 3.496L98.2613 2.896L98.5973 1.864L100.541 2.552L100.493 0.48H101.581L101.533 2.552L103.469 1.864L103.805 2.896L101.837 3.496L103.085 5.128L102.205 5.768L101.037 4.072L99.8533 5.768ZM106.838 5.768L105.958 5.128L107.222 3.496L105.246 2.896L105.582 1.864L107.526 2.552L107.478 0.48H108.566L108.518 2.552L110.454 1.864L110.79 2.896L108.822 3.496L110.07 5.128L109.19 5.768L108.022 4.072L106.838 5.768ZM113.822 5.768L112.942 5.128L114.206 3.496L112.23 2.896L112.566 1.864L114.51 2.552L114.462 0.48H115.55L115.502 2.552L117.438 1.864L117.774 2.896L115.806 3.496L117.054 5.128L116.174 5.768L115.006 4.072L113.822 5.768ZM120.806 5.768L119.926 5.128L121.19 3.496L119.214 2.896L119.55 1.864L121.494 2.552L121.446 0.48H122.534L122.486 2.552L124.422 1.864L124.758 2.896L122.79 3.496L124.038 5.128L123.158 5.768L121.99 4.072L120.806 5.768ZM127.791 5.768L126.911 5.128L128.175 3.496L126.199 2.896L126.535 1.864L128.479 2.552L128.431 0.48H129.519L129.471 2.552L131.407 1.864L131.743 2.896L129.775 3.496L131.023 5.128L130.143 5.768L128.975 4.072L127.791 5.768ZM134.775 5.768L133.895 5.128L135.159 3.496L133.183 2.896L133.519 1.864L135.463 2.552L135.415 0.48H136.503L136.455 2.552L138.391 1.864L138.727 2.896L136.759 3.496L138.007 5.128L137.127 5.768L135.959 4.072L134.775 5.768Z" fill="#7A7A7A"/>
</svg>
