<svg width="27" height="28" viewBox="0 0 27 28" fill="none" xmlns="http://www.w3.org/2000/svg">
<path fill-rule="evenodd" clip-rule="evenodd" d="M12.6445 21.8221C12.6445 22.4109 12.1673 22.8888 11.5778 22.8888H5.88891C5.29941 22.8888 4.82221 22.4109 4.82221 21.8221C4.82221 21.2333 5.29941 20.7555 5.88891 20.7555H11.5778C12.1673 20.7555 12.6445 21.2333 12.6445 21.8221ZM24.0222 25.7333H2.68891V7.9555H7.66671V15.4222C7.66671 15.8083 7.87571 16.1646 8.21281 16.3537C8.55061 16.5414 8.96301 16.5336 9.29231 16.3302L13.3555 13.8307L17.4188 16.3302C17.5902 16.4362 17.7836 16.4888 17.9778 16.4888C18.157 16.4888 18.3362 16.444 18.4983 16.3537C18.8354 16.1646 19.0444 15.8083 19.0444 15.4222V7.9555H24.0222V25.7333ZM5.12591 2.2666H8.49871L7.78761 5.8222H3.34811L5.12591 2.2666ZM9.79991 7.9555H16.9111V13.5128L13.9144 11.6696C13.7431 11.5637 13.5489 11.511 13.3555 11.511C13.1621 11.511 12.9679 11.5637 12.7966 11.6696L9.79991 13.5128V7.9555ZM10.6739 2.2666H16.0371L16.7483 5.8222H9.96281L10.6739 2.2666ZM21.5852 2.2666L23.363 5.8222H18.9235L18.2124 2.2666H21.5852ZM26.1285 6.6563C26.1243 6.6357 26.115 6.6158 26.1093 6.5951C26.0944 6.5418 26.0766 6.4892 26.0524 6.4394C26.0489 6.4302 26.0475 6.4202 26.0432 6.4117L23.1987 0.722801C23.0174 0.361501 22.6483 0.133301 22.2444 0.133301H16.9111H9.80001H4.46671C4.06271 0.133301 3.69371 0.361501 3.51231 0.722801L0.667912 6.4117C0.663612 6.4202 0.662212 6.4302 0.658712 6.4394C0.634512 6.4892 0.616712 6.5418 0.601812 6.5951C0.596112 6.6158 0.586811 6.6357 0.582611 6.6563C0.566211 6.7317 0.555511 6.8092 0.555511 6.8888V26.7999C0.555511 27.3887 1.03271 27.8666 1.62221 27.8666H25.0889C25.6784 27.8666 26.1555 27.3887 26.1555 26.7999V6.8888C26.1555 6.8092 26.1449 6.7317 26.1285 6.6563Z" fill="#102A63"/>
</svg>
