<svg width="24" height="30" viewBox="0 0 24 30" fill="none" xmlns="http://www.w3.org/2000/svg">
<path fill-rule="evenodd" clip-rule="evenodd" d="M21.4497 14.2581C21.4497 14.0563 21.2852 13.8925 21.0841 13.8925H3.53566C3.33466 13.8925 3.17006 14.0563 3.17006 14.2581V27.4194C3.17006 27.6212 3.33466 27.785 3.53566 27.785H21.0841C21.2852 27.785 21.4497 27.6212 21.4497 27.4194V14.2581ZM7.19156 11.6989H17.4282V6.9462C17.4282 4.3257 15.296 2.1935 12.6755 2.1935H11.9443C9.32366 2.1935 7.19156 4.3257 7.19156 6.9462V11.6989ZM23.6433 14.2581V27.4194C23.6433 28.8305 22.4953 29.9785 21.0841 29.9785H3.53566C2.12456 29.9785 0.976562 28.8305 0.976562 27.4194V14.2581C0.976562 12.8469 2.12456 11.6989 3.53566 11.6989H4.99806V6.9462C4.99806 3.1163 8.11436 0 11.9443 0H12.6755C16.5055 0 19.6218 3.1163 19.6218 6.9462V11.6989H21.0841C22.4953 11.6989 23.6433 12.8469 23.6433 14.2581ZM14.5488 23.898C14.706 24.3711 14.3536 24.8603 13.8542 24.8603H10.7657C10.2663 24.8603 9.91376 24.3711 10.071 23.898L11.3565 20.9777C10.6245 20.6223 10.1164 19.8787 10.1164 19.0108C10.1164 17.7992 11.0984 16.8172 12.3099 16.8172C13.5215 16.8172 14.5035 17.7992 14.5035 19.0108C14.5035 19.8787 13.9953 20.6223 13.2634 20.9777L14.5488 23.898Z" fill="#102A63"/>
</svg>
