<svg width="32" height="32" viewBox="0 0 32 32" fill="none" xmlns="http://www.w3.org/2000/svg">
<g clip-path="url(#clip0_7057_54622)">
<path d="M23.9997 21.3333V14.6666C23.9997 10.5733 21.813 7.14659 17.9997 6.23992V5.33325C17.9997 4.22659 17.1063 3.33325 15.9997 3.33325C14.893 3.33325 13.9997 4.22659 13.9997 5.33325V6.23992C10.173 7.14659 7.99967 10.5599 7.99967 14.6666V21.3333L5.33301 23.9999V25.3333H26.6663V23.9999L23.9997 21.3333ZM17.333 21.3333H14.6663V18.6666H17.333V21.3333ZM17.333 15.9999H14.6663V10.6666H17.333V15.9999ZM15.9997 29.3333C17.4663 29.3333 18.6663 28.1333 18.6663 26.6666H13.333C13.333 28.1333 14.5197 29.3333 15.9997 29.3333Z" fill="#9BB7F6"/>
</g>
<defs>
<clipPath id="clip0_7057_54622">
<rect width="32" height="32" fill="white"/>
</clipPath>
</defs>
</svg>
