<svg width="45" height="56" viewBox="0 0 45 56" fill="none" xmlns="http://www.w3.org/2000/svg">
<rect x="0.5" y="0.5" width="44" height="55" rx="7.5" fill="white"/>
<path d="M12.338 17.18C11.478 17.18 10.752 16.99 10.16 16.61C9.568 16.226 9.12 15.696 8.816 15.02C8.512 14.344 8.36 13.564 8.36 12.68C8.36 11.796 8.512 11.016 8.816 10.34C9.12 9.664 9.568 9.136 10.16 8.756C10.752 8.372 11.478 8.18 12.338 8.18C13.342 8.18 14.162 8.438 14.798 8.954C15.434 9.466 15.87 10.154 16.106 11.018L15.206 11.252C15.022 10.568 14.692 10.026 14.216 9.626C13.74 9.226 13.114 9.026 12.338 9.026C11.662 9.026 11.1 9.18 10.652 9.488C10.204 9.796 9.866 10.226 9.638 10.778C9.414 11.326 9.298 11.96 9.29 12.68C9.286 13.4 9.396 14.034 9.62 14.582C9.848 15.13 10.188 15.56 10.64 15.872C11.096 16.18 11.662 16.334 12.338 16.334C13.114 16.334 13.74 16.134 14.216 15.734C14.692 15.33 15.022 14.788 15.206 14.108L16.106 14.342C15.87 15.206 15.434 15.896 14.798 16.412C14.162 16.924 13.342 17.18 12.338 17.18ZM20.1358 17.18C19.4918 17.18 18.9418 17.034 18.4858 16.742C18.0298 16.45 17.6798 16.046 17.4358 15.53C17.1918 15.014 17.0698 14.422 17.0698 13.754C17.0698 13.074 17.1938 12.478 17.4418 11.966C17.6898 11.454 18.0418 11.056 18.4978 10.772C18.9578 10.484 19.5038 10.34 20.1358 10.34C20.7838 10.34 21.3358 10.486 21.7918 10.778C22.2518 11.066 22.6018 11.468 22.8418 11.984C23.0858 12.496 23.2078 13.086 23.2078 13.754C23.2078 14.434 23.0858 15.032 22.8418 15.548C22.5978 16.06 22.2458 16.46 21.7858 16.748C21.3258 17.036 20.7758 17.18 20.1358 17.18ZM20.1358 16.334C20.8558 16.334 21.3918 16.096 21.7438 15.62C22.0958 15.14 22.2718 14.518 22.2718 13.754C22.2718 12.97 22.0938 12.346 21.7378 11.882C21.3858 11.418 20.8518 11.186 20.1358 11.186C19.6518 11.186 19.2518 11.296 18.9358 11.516C18.6238 11.732 18.3898 12.034 18.2338 12.422C18.0818 12.806 18.0058 13.25 18.0058 13.754C18.0058 14.534 18.1858 15.16 18.5458 15.632C18.9058 16.1 19.4358 16.334 20.1358 16.334ZM27.4414 17.18C26.8454 17.18 26.3414 17.03 25.9294 16.73C25.5174 16.426 25.2054 16.016 24.9934 15.5C24.7814 14.98 24.6754 14.398 24.6754 13.754C24.6754 13.098 24.7814 12.514 24.9934 12.002C25.2094 11.486 25.5254 11.08 25.9414 10.784C26.3574 10.488 26.8694 10.34 27.4774 10.34C28.0694 10.34 28.5774 10.49 29.0014 10.79C29.4254 11.09 29.7494 11.498 29.9734 12.014C30.2014 12.53 30.3154 13.11 30.3154 13.754C30.3154 14.402 30.2014 14.984 29.9734 15.5C29.7454 16.016 29.4174 16.426 28.9894 16.73C28.5614 17.03 28.0454 17.18 27.4414 17.18ZM24.5254 19.88V10.52H25.3174V15.398H25.4134V19.88H24.5254ZM27.3514 16.358C27.8034 16.358 28.1794 16.244 28.4794 16.016C28.7794 15.788 29.0034 15.478 29.1514 15.086C29.3034 14.69 29.3794 14.246 29.3794 13.754C29.3794 13.266 29.3054 12.826 29.1574 12.434C29.0094 12.042 28.7834 11.732 28.4794 11.504C28.1794 11.276 27.7974 11.162 27.3334 11.162C26.8814 11.162 26.5054 11.272 26.2054 11.492C25.9094 11.712 25.6874 12.018 25.5394 12.41C25.3914 12.798 25.3174 13.246 25.3174 13.754C25.3174 14.254 25.3914 14.702 25.5394 15.098C25.6874 15.49 25.9114 15.798 26.2114 16.022C26.5114 16.246 26.8914 16.358 27.3514 16.358ZM32.3226 19.88L33.5766 16.478L33.5946 17.486L30.7566 10.52H31.6926L34.0206 16.346H33.6366L35.7846 10.52H36.6846L33.2046 19.88H32.3226Z" fill="#5182EF"/>
<g clip-path="url(#clip0_7859_27492)">
<path d="M26.5 29H14.5C13.4 29 12.5 29.9 12.5 31V45H14.5V31H26.5V29ZM29.5 33H18.5C17.4 33 16.5 33.9 16.5 35V49C16.5 50.1 17.4 51 18.5 51H29.5C30.6 51 31.5 50.1 31.5 49V35C31.5 33.9 30.6 33 29.5 33ZM29.5 49H18.5V35H29.5V49Z" fill="#5182EF"/>
</g>
<rect x="0.5" y="0.5" width="44" height="55" rx="7.5" stroke="#C7C7C7"/>
<defs>
<clipPath id="clip0_7859_27492">
<rect width="24" height="24" fill="white" transform="translate(10.5 28)"/>
</clipPath>
</defs>
</svg>
