<svg width="32" height="33" viewBox="0 0 32 33" fill="none" xmlns="http://www.w3.org/2000/svg">
<g clip-path="url(#clip0_6188_44357)">
<path d="M16 17.0137C18.1733 17.0137 20.0933 17.5337 21.6533 18.2137C23.0933 18.8537 24 20.2937 24 21.8537V24.0137H8V21.867C8 20.2937 8.90667 18.8537 10.3467 18.227C11.9067 17.5337 13.8267 17.0137 16 17.0137ZM5.33333 17.347C6.8 17.347 8 16.147 8 14.6803C8 13.2137 6.8 12.0137 5.33333 12.0137C3.86667 12.0137 2.66667 13.2137 2.66667 14.6803C2.66667 16.147 3.86667 17.347 5.33333 17.347ZM6.84 18.8137C6.34667 18.7337 5.85333 18.6803 5.33333 18.6803C4.01333 18.6803 2.76 18.9603 1.62667 19.4537C0.64 19.8803 0 20.8403 0 21.9203V24.0137H6V21.867C6 20.7603 6.30667 19.7203 6.84 18.8137ZM26.6667 17.347C28.1333 17.347 29.3333 16.147 29.3333 14.6803C29.3333 13.2137 28.1333 12.0137 26.6667 12.0137C25.2 12.0137 24 13.2137 24 14.6803C24 16.147 25.2 17.347 26.6667 17.347ZM32 21.9203C32 20.8403 31.36 19.8803 30.3733 19.4537C29.24 18.9603 27.9867 18.6803 26.6667 18.6803C26.1467 18.6803 25.6533 18.7337 25.16 18.8137C25.6933 19.7203 26 20.7603 26 21.867V24.0137H32V21.9203ZM16 8.01367C18.2133 8.01367 20 9.80034 20 12.0137C20 14.227 18.2133 16.0137 16 16.0137C13.7867 16.0137 12 14.227 12 12.0137C12 9.80034 13.7867 8.01367 16 8.01367Z" fill="#323232"/>
</g>
<defs>
<clipPath id="clip0_6188_44357">
<rect width="32" height="32" fill="white" transform="translate(0 0.0146484)"/>
</clipPath>
</defs>
</svg>
