<svg width="135" height="134" viewBox="0 0 135 134" fill="none" xmlns="http://www.w3.org/2000/svg">
<g clip-path="url(#clip0_6188_44479)">
<path d="M67.4176 28.4287C67.4102 28.4287 67.4024 28.4287 67.395 28.4287H67.3265C67.3191 28.4287 67.3117 28.4287 67.3038 28.4287C56.8194 28.4518 46.9913 32.4495 39.6205 39.6916C32.1875 46.9952 28.0938 56.7882 28.0938 67.2661C28.0938 79.0114 33.1502 89.8492 41.9661 97.0002C43.3267 98.1044 45.6092 101.622 45.6092 112.778V130.73C45.6092 132.096 46.7171 133.204 48.0831 133.204H86.6364C88.0023 133.204 89.1102 132.096 89.1102 130.73V112.778C89.1102 112.758 89.1077 112.74 89.1073 112.721C89.1077 112.701 89.1102 112.682 89.1102 112.662C89.1102 101.404 91.3931 97.8722 92.7554 96.7681C101.7 89.5091 106.627 79.0316 106.627 67.2657C106.627 56.7874 102.534 46.9948 95.101 39.6912C87.7306 32.4495 77.9025 28.4518 67.4176 28.4287ZM84.1634 128.256H50.5577V115.252H73.9667C74.0759 115.267 74.186 115.277 74.2994 115.277C74.4128 115.277 74.5229 115.267 74.6321 115.252H84.1634V128.256ZM62.5244 75.7719H72.2461C72.014 85.1242 71.8557 101.044 71.8293 110.304H62.938C62.9116 101.73 62.7603 85.3798 62.5244 75.7719ZM89.6392 92.9262C86.2455 95.6775 84.4619 101.38 84.2013 110.304H76.7769C76.8042 100.154 76.9843 84.5664 77.1946 75.7719H82.4845C86.918 75.7719 90.6633 71.8455 90.6633 67.1976C90.6633 62.6561 86.918 58.8196 82.4845 58.8196C78.4171 58.8196 73.6748 61.366 72.5628 68.5145C72.5079 68.8683 72.4552 69.6711 72.4045 70.8243H62.3686C62.3162 69.6232 62.2614 68.7858 62.2041 68.4156C61.4718 63.6815 58.4814 58.6226 52.2844 58.6226C47.8518 58.6226 44.1072 62.5493 44.1072 67.1976C44.1072 71.8455 47.8518 75.7719 52.2844 75.7719H57.5751C57.7854 84.6092 57.9648 100.178 57.9916 110.304H50.5157C50.2402 101.525 48.4595 95.8969 45.084 93.158C37.4312 86.9507 33.0418 77.5135 33.0418 67.2661C33.0418 58.1261 36.6095 49.5865 43.0884 43.2209C49.5414 36.8805 58.1606 33.385 67.3607 33.3764C76.5617 33.385 85.1805 36.8805 91.6331 43.2209C98.1116 49.5865 101.679 58.1257 101.679 67.2661C101.68 77.5123 97.4033 86.625 89.6392 92.9262ZM77.3472 70.8243C77.3818 70.0401 77.4168 69.5065 77.4515 69.2728C78.1969 64.4822 80.9243 63.7669 82.4841 63.7669C84.2054 63.7669 85.7153 65.3699 85.7153 67.1972C85.7153 69.0955 84.1753 70.8239 82.4841 70.8239H77.3472V70.8243ZM57.4234 70.8243H52.284C50.5936 70.8243 49.0545 69.0959 49.0545 67.1976C49.0545 65.2994 50.5936 63.5702 52.284 63.5702C55.9065 63.5702 56.9905 67.0797 57.3137 69.1726C57.35 69.4163 57.3867 69.9856 57.4234 70.8243Z" fill="black"/>
<path d="M84.8828 25.5613C85.2003 25.6973 85.5309 25.7621 85.8558 25.7621C86.8157 25.7621 87.7289 25.2001 88.1309 24.2617L96.6475 4.38989C97.1859 3.13401 96.6042 1.67982 95.3483 1.14176C94.092 0.602056 92.6378 1.18505 92.1002 2.44093L83.5836 22.3127C83.0452 23.569 83.6269 25.0232 84.8828 25.5613Z" fill="#102A63"/>
<path d="M46.7113 24.2643C47.0981 25.2315 48.027 25.8199 49.0091 25.8199C49.3146 25.8199 49.6259 25.7626 49.9273 25.6422C51.1956 25.1346 51.8128 23.6949 51.3056 22.4262L43.2756 2.35279C42.7685 1.08454 41.3291 0.466912 40.0596 0.974458C38.7914 1.482 38.1742 2.92177 38.6813 4.19043L46.7113 24.2643Z" fill="#102A63"/>
<path d="M2.14783 43.1933L22.0176 51.7148C22.3359 51.8509 22.6661 51.9156 22.9914 51.9156C23.9509 51.9156 24.8641 51.3536 25.2665 50.4161C25.805 49.1602 25.2237 47.706 23.9682 47.1671L4.09803 38.646C2.84133 38.108 1.38755 38.6889 0.849078 39.9444C0.311021 41.2002 0.892369 42.6548 2.14783 43.1933Z" fill="#102A63"/>
<path d="M22.1295 83.9863L2.05521 92.0209C0.786961 92.5284 0.170154 93.9686 0.6777 95.2368C1.06485 96.2041 1.99336 96.792 2.97506 96.792C3.28099 96.792 3.59228 96.7347 3.89326 96.6139L23.9675 88.5794C25.2358 88.0718 25.8526 86.6316 25.345 85.3634C24.8379 84.0956 23.3969 83.4788 22.1295 83.9863Z" fill="#102A63"/>
<path d="M132.853 92.3905L112.976 83.8748C111.718 83.3359 110.266 83.9181 109.728 85.1744C109.19 86.4303 109.772 87.8845 111.027 88.4229L130.904 96.9387C131.223 97.0747 131.552 97.139 131.877 97.139C132.837 97.139 133.75 96.5771 134.153 95.6387C134.691 94.3832 134.109 92.9286 132.853 92.3905Z" fill="#102A63"/>
<path d="M111.948 51.7805C112.254 51.7805 112.565 51.7232 112.866 51.6024L132.946 43.5662C134.214 43.0586 134.831 41.6184 134.323 40.3502C133.816 39.0815 132.376 38.4651 131.107 38.9727L111.028 47.0089C109.76 47.5164 109.143 48.9566 109.65 50.2249C110.038 51.1921 110.966 51.7805 111.948 51.7805Z" fill="#102A63"/>
</g>
<defs>
<clipPath id="clip0_6188_44479">
<rect width="134" height="134" fill="white" transform="translate(0.5)"/>
</clipPath>
</defs>
</svg>
