<svg width="133" height="132" viewBox="0 0 133 132" fill="none" xmlns="http://www.w3.org/2000/svg">
<path d="M78.9011 64.8141C62.3472 71.6622 43.3937 63.7896 36.5457 47.2627C29.6977 30.7357 37.5432 11.7553 54.0972 4.90726C70.6511 -1.94078 89.6045 5.93177 96.4525 22.4587C103.301 38.9857 95.455 57.9661 78.9011 64.8141Z" fill="white"/>
<path d="M66.4995 129.52C73.2 129.52 78.6319 124.088 78.6319 117.387C78.6319 110.687 73.2 105.255 66.4995 105.255C59.799 105.255 54.3672 110.687 54.3672 117.387C54.3672 124.088 59.799 129.52 66.4995 129.52Z" fill="#102A63"/>
<path d="M114.078 102.99V87.3529C114.078 86.0049 112.973 84.8995 111.625 84.8995H68.7572V70.3137C68.7572 70.0711 68.7033 69.8554 68.6494 69.6397C72.4239 69.3971 76.1175 68.5343 79.6494 67.0784C97.4165 59.7181 105.882 39.2819 98.5219 21.5417C93.1028 8.46569 80.4582 0 66.3038 0C61.7205 0 57.245 0.889706 52.9852 2.66912C44.3847 6.22794 37.6714 12.9412 34.1126 21.5417C30.5538 30.1422 30.5538 39.6324 34.1126 48.2328C39.2352 60.5809 50.8013 68.8039 63.9852 69.6936C63.9312 69.9093 63.8773 70.125 63.8773 70.3676V84.9534H21.0097C19.6616 84.9534 18.5562 86.0588 18.5562 87.4069V103.044C11.6003 104.15 6.28906 110.189 6.28906 117.441C6.28906 125.475 12.8136 132 20.8479 132C28.8822 132 35.4067 125.475 35.4067 117.441C35.4067 110.297 30.2302 104.338 23.4361 103.098V89.8603H63.8773V103.071C57.0023 104.23 51.745 110.243 51.745 117.441C51.745 125.475 58.2695 132 66.3038 132C74.3381 132 80.8626 125.475 80.8626 117.441C80.8626 110.243 75.6053 104.257 68.7303 103.071V89.8603H109.171V103.098C102.377 104.311 97.2009 110.297 97.2009 117.441C97.2009 125.475 103.725 132 111.76 132C119.794 132 126.319 125.475 126.319 117.441C126.345 110.135 121.007 104.096 114.078 102.99ZM38.0219 44.8088C35.7303 38.3382 35.7303 31.3824 38.0219 24.9118H46.5415C45.9214 28.1471 45.5979 31.4902 45.5979 34.8064C45.5979 37.8799 46.0293 41.3309 46.8111 44.8088H38.0219ZM50.4778 34.8064C50.4778 31.4093 50.8553 28.0662 51.5293 24.9118H63.8504V44.8088H51.7719C50.9631 41.4387 50.4778 38.0147 50.4778 34.8064ZM94.5857 24.9118C96.9313 31.5711 96.7695 38.5539 94.5587 44.8088H86.1469C86.9288 41.3309 87.3602 37.8799 87.3602 34.8064C87.3602 31.4902 87.0366 28.1471 86.4165 24.9118H94.5857ZM82.4803 34.8064C82.4803 38.0147 81.995 41.4657 81.1861 44.8088H68.7572V24.9118H81.4288C82.1028 28.0662 82.4803 31.4093 82.4803 34.8064ZM68.7572 64.1936V49.6887H79.6763C77.1151 56.6985 73.0979 62.6029 68.7572 64.1936ZM68.7572 20.0319V5.3652C73.3406 6.82108 77.5734 12.5368 80.0808 20.0319H68.7572ZM63.8504 5.5V20.0319H52.8773C55.3308 12.7255 59.4018 7.11765 63.8504 5.5ZM63.8504 49.6887V64.0319C59.6175 62.2794 55.7352 56.5098 53.2548 49.6887H63.8504ZM78.571 62.1985C81.2131 58.7206 83.3161 54.299 84.8259 49.6887H92.3479C89.2744 55.0539 84.5832 59.5024 78.571 62.1985ZM92.3479 20.0319H85.2033C84.2866 16.9314 83.1004 13.9926 81.6445 11.4044C80.9435 10.1373 80.1886 8.97794 79.4067 7.89951C84.7989 10.4877 89.3283 14.6936 92.3479 20.0319ZM53.6861 7.68382C52.8504 8.81618 52.0415 10.0564 51.3136 11.4044C49.8577 14.0196 48.6714 16.9314 47.7548 20.0319H40.2866C43.3332 14.6127 47.9705 10.326 53.6861 7.68382ZM40.2597 49.6887H48.1322C49.669 54.4069 51.8528 58.9363 54.5759 62.4681C48.6175 59.9338 43.5489 55.4853 40.2597 49.6887ZM30.5268 117.387C30.5268 122.725 26.1861 127.066 20.8479 127.066C15.5097 127.066 11.169 122.725 11.169 117.387C11.169 112.049 15.5097 107.708 20.8479 107.708C26.1861 107.708 30.5268 112.049 30.5268 117.387ZM75.9827 117.387C75.9827 122.725 71.642 127.066 66.3038 127.066C60.9656 127.066 56.6249 122.725 56.6249 117.387C56.6249 112.049 60.9656 107.708 66.3038 107.708C71.642 107.708 75.9827 112.049 75.9827 117.387ZM111.76 127.066C106.421 127.066 102.081 122.725 102.081 117.387C102.081 112.049 106.421 107.708 111.76 107.708C117.098 107.708 121.439 112.049 121.439 117.387C121.466 122.725 117.098 127.066 111.76 127.066Z" fill="#2C2F33"/>
</svg>
