<svg width="28" height="28" viewBox="0 0 28 28" fill="none" xmlns="http://www.w3.org/2000/svg">
<g clip-path="url(#clip0_504_28352)">
<path d="M12.8333 16.334H10.4999C10.4999 10.5357 15.2016 5.83398 20.9999 5.83398V8.16732C16.4849 8.16732 12.8333 11.819 12.8333 16.334ZM20.9999 12.834V10.5007C17.7799 10.5007 15.1666 13.114 15.1666 16.334H17.4999C17.4999 14.3973 19.0633 12.834 20.9999 12.834ZM8.16659 4.66732C8.16659 3.37232 7.12825 2.33398 5.83325 2.33398C4.53825 2.33398 3.49992 3.37232 3.49992 4.66732C3.49992 5.96232 4.53825 7.00065 5.83325 7.00065C7.12825 7.00065 8.16659 5.96232 8.16659 4.66732ZM13.3583 5.25065H11.0249C10.7449 6.90732 9.32159 8.16732 7.58325 8.16732H4.08325C3.11492 8.16732 2.33325 8.94898 2.33325 9.91732V12.834H9.33325V10.1973C11.5033 9.50898 13.1249 7.59565 13.3583 5.25065ZM22.1666 19.834C23.4616 19.834 24.4999 18.7957 24.4999 17.5007C24.4999 16.2057 23.4616 15.1673 22.1666 15.1673C20.8716 15.1673 19.8333 16.2057 19.8333 17.5007C19.8333 18.7957 20.8716 19.834 22.1666 19.834ZM23.9166 21.0007H20.4166C18.6783 21.0007 17.2549 19.7407 16.9749 18.084H14.6416C14.8749 20.429 16.4966 22.3423 18.6666 23.0307V25.6673H25.6666V22.7507C25.6666 21.7823 24.8849 21.0007 23.9166 21.0007Z" fill="#5182EF"/>
</g>
<defs>
<clipPath id="clip0_504_28352">
<rect width="28" height="28" fill="white"/>
</clipPath>
</defs>
</svg>
