<svg width="28" height="28" viewBox="0 0 28 28" fill="none" xmlns="http://www.w3.org/2000/svg">
<g clip-path="url(#clip0_504_28374)">
<path d="M15.1666 9.99805C14.245 9.99805 13.4983 10.7447 13.4983 11.6664C13.4983 12.588 14.245 13.3347 15.1666 13.3347C16.0883 13.3347 16.835 12.588 16.835 11.6664C16.835 10.7447 16.0883 9.99805 15.1666 9.99805Z" fill="#5182EF"/>
<path d="M15.1666 3.5C10.7916 3.5 7.23329 6.93 7.02329 11.2467L4.78329 14.2333C4.49162 14.6183 4.77162 15.1667 5.24996 15.1667H6.99996V18.6667C6.99996 19.95 8.04996 21 9.33329 21H10.5V24.5H18.6666V19.04C21.42 17.7333 23.3333 14.9217 23.3333 11.6667C23.3333 7.15167 19.6816 3.5 15.1666 3.5ZM18.6666 11.6667C18.6666 11.8183 18.655 11.97 18.6433 12.1217L19.6116 12.8917C19.705 12.9617 19.7283 13.0783 19.67 13.1833L18.7366 14.805C18.6783 14.91 18.55 14.945 18.4566 14.91L17.3016 14.4433C17.0566 14.63 16.8 14.7817 16.52 14.8983L16.3333 16.135C16.3216 16.2517 16.2166 16.3333 16.1 16.3333H14.2333C14.1166 16.3333 14.0233 16.2517 14 16.135L13.825 14.8983C13.5333 14.7817 13.2766 14.63 13.0316 14.4433L11.8766 14.91C11.7716 14.945 11.6433 14.91 11.585 14.805L10.6516 13.1833C10.5933 13.09 10.6166 12.9617 10.71 12.8917L11.69 12.1217C11.6783 11.97 11.6666 11.8183 11.6666 11.6667C11.6666 11.515 11.69 11.3517 11.7133 11.2117L10.7216 10.4417C10.6283 10.3717 10.605 10.255 10.6633 10.1383L11.5966 8.52833C11.655 8.42333 11.7716 8.38833 11.8766 8.42333L13.0433 8.89C13.2766 8.715 13.545 8.55167 13.825 8.435L14 7.19833C14.0233 7.08167 14.1166 7 14.2333 7H16.1C16.2166 7 16.31 7.08167 16.3333 7.19833L16.5083 8.435C16.7883 8.55167 17.045 8.70333 17.29 8.89L18.4566 8.42333C18.5616 8.38833 18.69 8.42333 18.7366 8.52833L19.67 10.1383C19.7283 10.2433 19.705 10.3717 19.6116 10.4417L18.62 11.2117C18.655 11.3517 18.6666 11.5033 18.6666 11.6667Z" fill="#5182EF"/>
</g>
<defs>
<clipPath id="clip0_504_28374">
<rect width="28" height="28" fill="white"/>
</clipPath>
</defs>
</svg>
