<svg width="28" height="28" viewBox="0 0 28 28" fill="none" xmlns="http://www.w3.org/2000/svg">
<g clip-path="url(#clip0_504_28358)">
<path d="M13.9999 2.33301C7.55992 2.33301 2.33325 7.55967 2.33325 13.9997C2.33325 20.4397 7.55992 25.6663 13.9999 25.6663C20.4399 25.6663 25.6666 20.4397 25.6666 13.9997C25.6666 7.55967 20.4399 2.33301 13.9999 2.33301ZM12.8333 23.2513C8.22492 22.6797 4.66659 18.7597 4.66659 13.9997C4.66659 13.2763 4.75992 12.588 4.91159 11.9113L10.4999 17.4997V18.6663C10.4999 19.9497 11.5499 20.9997 12.8333 20.9997V23.2513ZM20.8833 20.288C20.5799 19.343 19.7166 18.6663 18.6666 18.6663H17.4999V15.1663C17.4999 14.5247 16.9749 13.9997 16.3333 13.9997H9.33325V11.6663H11.6666C12.3083 11.6663 12.8333 11.1413 12.8333 10.4997V8.16634H15.1666C16.4499 8.16634 17.4999 7.11634 17.4999 5.83301V5.35467C20.9183 6.74301 23.3333 10.0913 23.3333 13.9997C23.3333 16.4263 22.3999 18.6313 20.8833 20.288Z" fill="#5182EF"/>
</g>
<defs>
<clipPath id="clip0_504_28358">
<rect width="28" height="28" fill="white"/>
</clipPath>
</defs>
</svg>
