<svg width="28" height="28" viewBox="0 0 28 28" fill="none" xmlns="http://www.w3.org/2000/svg">
<g clip-path="url(#clip0_504_28368)">
<path d="M24.5 7H3.49996C2.21663 7 1.16663 8.05 1.16663 9.33333V18.6667C1.16663 19.95 2.21663 21 3.49996 21H24.5C25.7833 21 26.8333 19.95 26.8333 18.6667V9.33333C26.8333 8.05 25.7833 7 24.5 7ZM12.8333 15.1667H9.33329V18.6667H6.99996V15.1667H3.49996V12.8333H6.99996V9.33333H9.33329V12.8333H12.8333V15.1667ZM18.0833 17.5C17.115 17.5 16.3333 16.7183 16.3333 15.75C16.3333 14.7817 17.115 14 18.0833 14C19.0516 14 19.8333 14.7817 19.8333 15.75C19.8333 16.7183 19.0516 17.5 18.0833 17.5ZM22.75 14C21.7816 14 21 13.2183 21 12.25C21 11.2817 21.7816 10.5 22.75 10.5C23.7183 10.5 24.5 11.2817 24.5 12.25C24.5 13.2183 23.7183 14 22.75 14Z" fill="#5182EF"/>
</g>
<defs>
<clipPath id="clip0_504_28368">
<rect width="28" height="28" fill="white"/>
</clipPath>
</defs>
</svg>
