<svg width="133" height="132" viewBox="0 0 133 132" fill="none" xmlns="http://www.w3.org/2000/svg">
<g clip-path="url(#clip0_6188_44469)">
<path d="M22.5008 56.023H51.1008C52.3174 56.023 53.3008 55.0374 53.3008 53.823C53.3008 52.6086 52.3174 51.623 51.1008 51.623H22.5008C21.2842 51.623 20.3008 52.6086 20.3008 53.823C20.3008 55.0374 21.2842 56.023 22.5008 56.023Z" fill="black"/>
<path d="M79.7008 64.8232H22.5008C21.2842 64.8232 20.3008 65.8088 20.3008 67.0232C20.3008 68.2376 21.2842 69.2232 22.5008 69.2232H79.7008C80.9174 69.2232 81.9008 68.2376 81.9008 67.0232C81.9008 65.8088 80.9174 64.8232 79.7008 64.8232Z" fill="black"/>
<path d="M79.7008 78.0225H22.5008C21.2842 78.0225 20.3008 79.0081 20.3008 80.2225C20.3008 81.4369 21.2842 82.4225 22.5008 82.4225H79.7008C80.9174 82.4225 81.9008 81.4369 81.9008 80.2225C81.9008 79.0081 80.9174 78.0225 79.7008 78.0225Z" fill="black"/>
<path d="M119.458 5.57685L44.346 5.42285C37.152 5.42285 31.3 11.2749 31.3 18.4689V29.7417L13.546 29.7791C6.352 29.7791 0.5 35.6311 0.5 42.8251V89.3353C0.5 96.5293 6.352 102.379 13.546 102.379H26.9V124.379C26.9 125.288 27.4588 126.104 28.308 126.432C28.5654 126.531 28.8338 126.579 29.1 126.579C29.7072 126.579 30.3034 126.326 30.728 125.86L52.0768 102.375L88.654 102.225C95.848 102.225 101.7 96.373 101.7 89.1813V88.9327L113.272 101.662C113.697 102.128 114.293 102.381 114.9 102.381C115.166 102.381 115.435 102.333 115.692 102.234C116.541 101.906 117.1 101.09 117.1 100.181V78.1813H119.454C126.648 78.1813 132.5 72.3293 132.5 65.1375V18.6229C132.5 11.4311 126.65 5.57905 119.458 5.57685ZM97.3 89.1791C97.3 93.9464 93.4214 97.8229 88.6452 97.8229L51.0912 97.9769C50.4752 97.979 49.8856 98.2409 49.472 98.6963L31.3 118.688V100.177C31.3 98.9625 30.3166 97.9769 29.1 97.9769H13.546C8.7786 97.9769 4.9 94.0983 4.9 89.3331V42.8229C4.9 38.0555 8.7786 34.1769 13.5504 34.1769L33.5 34.1351C33.5022 34.1351 33.5022 34.1351 33.5044 34.1351L88.654 34.0207C93.4214 34.0207 97.3 37.8993 97.3 42.6666V83.2369V89.1791ZM128.1 65.1331C128.1 69.9005 124.221 73.7769 119.454 73.7769H114.9C113.683 73.7769 112.7 74.7625 112.7 75.9769V94.4877L101.7 82.3877V42.6689C101.7 35.4749 95.848 29.6229 88.6496 29.6229L35.7 29.7307V18.4667C35.7 13.6993 39.5786 9.82065 44.3416 9.82065L119.452 9.97465C119.454 9.97465 119.454 9.97465 119.456 9.97465C124.224 9.97465 128.102 13.8533 128.102 18.6207V65.1331H128.1Z" fill="black"/>
</g>
<defs>
<clipPath id="clip0_6188_44469">
<rect width="132" height="132" fill="white" transform="translate(0.5)"/>
</clipPath>
</defs>
</svg>
