<svg width="33" height="33" viewBox="0 0 33 33" fill="none" xmlns="http://www.w3.org/2000/svg">
<path fill-rule="evenodd" clip-rule="evenodd" d="M13.8307 21.3467C19.7218 21.3467 24.4974 17.7649 24.4974 13.3467C24.4974 8.92841 19.7218 5.34668 13.8307 5.34668C7.93966 5.34668 3.16406 8.92841 3.16406 13.3467C3.16406 15.1361 3.94746 16.7884 5.27106 18.1211C4.73447 19.6491 4.03929 20.7949 3.59733 21.4346C3.43546 21.6689 3.60216 22.0001 3.88599 21.9769C5.02042 21.8839 7.24566 21.5537 8.7468 20.3813C10.2581 20.9969 11.99 21.3467 13.8307 21.3467Z" fill="#333333"/>
<path fill-rule="evenodd" clip-rule="evenodd" d="M15.6875 22.5692C21.4335 21.8752 25.8313 18.0105 25.8313 13.3468C25.8313 12.9888 25.8054 12.6356 25.755 12.2881C28.2002 13.4136 29.8313 15.4374 29.8313 17.7468C29.8313 19.1784 29.2046 20.5002 28.1457 21.5664C28.5433 22.6986 29.0497 23.5684 29.4032 24.0973C29.5615 24.334 29.3928 24.6653 29.1093 24.6382C28.1674 24.5481 26.5052 24.2649 25.3651 23.3746C24.1561 23.8671 22.7706 24.1468 21.298 24.1468C19.15 24.1468 17.1875 23.5516 15.6875 22.5692Z" fill="#333333"/>
</svg>
