<svg width="26" height="32" viewBox="0 0 26 32" fill="none" xmlns="http://www.w3.org/2000/svg">
<g clip-path="url(#clip0_6188_44369)">
<path fill-rule="evenodd" clip-rule="evenodd" d="M4.82029 29.2231V21.2517H8.21993C9.66812 21.5121 11.1015 22.3429 12.5423 23.3038H15.1796C16.3761 23.3793 17.0003 24.658 15.8408 25.4965C14.9156 26.2153 13.6993 26.1736 12.4411 26.0564C11.5776 26.0121 11.5406 27.2335 12.4411 27.2387C12.7544 27.2647 13.0949 27.1866 13.391 27.1866C14.9477 27.1866 16.2404 26.8715 17.0274 25.5668L17.4172 24.5929L21.3646 22.5486C23.3383 21.8663 24.7272 24.033 23.279 25.5434C20.5391 27.6538 17.6079 29.4726 14.5283 30.9731C12.3622 32.3637 10.1936 32.3168 8.03243 30.9731L4.82522 29.2231H4.82029ZM0.554688 20.4913H3.79891V30.0251H0.554688V20.4913ZM15.2807 0.631916C15.2937 0.45231 15.3725 0.285108 15.5003 0.16577C15.6258 0.0490821 15.7898 -0.0107879 15.9567 -0.000896624H16.0011C16.1618 0.0211609 16.3086 0.106324 16.4124 0.23761C16.5162 0.368896 16.5693 0.536656 16.5612 0.707437C16.5612 0.707437 16.5612 0.730874 16.5612 0.741291L16.4674 2.184C16.4674 2.19962 16.4674 2.21525 16.4674 2.22827C16.4466 2.39315 16.3704 2.54468 16.2528 2.65535C16.1268 2.77086 15.963 2.82974 15.7964 2.81942H15.752C15.6 2.80003 15.4598 2.72326 15.3572 2.60327C15.2471 2.47053 15.1905 2.29767 15.1993 2.1215C15.198 2.11026 15.198 2.09889 15.1993 2.08765L15.2906 0.639728L15.2807 0.631916ZM8.12618 2.82983C8.00701 2.7026 7.94018 2.53089 7.94018 2.35197C7.94018 2.17305 8.00701 2.00134 8.12618 1.8741C8.24641 1.74768 8.40919 1.67669 8.5789 1.67669C8.7486 1.67669 8.91138 1.74768 9.03161 1.8741L10.0184 2.9314C10.1382 3.0583 10.2055 3.23013 10.2055 3.40926C10.2055 3.58839 10.1382 3.76022 10.0184 3.88712C9.89714 4.01238 9.73419 4.08249 9.5645 4.08244C9.48045 4.082 9.39731 4.06406 9.31983 4.02965C9.24236 3.99525 9.17208 3.94504 9.11302 3.88192L8.12618 2.82462V2.82983ZM6.15251 10.1918C5.98411 10.187 5.82425 10.1125 5.70747 9.98438C5.59068 9.85623 5.52633 9.68472 5.52834 9.50692C5.53284 9.3319 5.60188 9.16566 5.72077 9.04357C5.83965 8.92149 5.99899 8.85321 6.16485 8.85327H7.56616C7.65057 8.85425 7.73397 8.87294 7.81148 8.90826C7.88899 8.94357 7.95906 8.99482 8.01763 9.059C8.0777 9.12195 8.12506 9.19709 8.15687 9.27989C8.18867 9.3627 8.20425 9.45144 8.20266 9.54077V9.56421C8.19353 9.73078 8.12578 9.88773 8.0127 10.0043C7.89054 10.1295 7.72653 10.1987 7.55629 10.197H7.53162L6.14511 10.1814L6.15251 10.1918ZM23.8835 8.91577H23.9032C24.0638 8.91202 24.2198 8.97248 24.3399 9.08504C24.4667 9.20457 24.5439 9.37205 24.5545 9.55119C24.5545 9.55119 24.5545 9.56942 24.5545 9.57202C24.5581 9.74152 24.5008 9.90617 24.3942 10.033C24.2809 10.1669 24.1223 10.2483 23.9526 10.2595L22.5537 10.3507C22.3856 10.3582 22.2215 10.2958 22.0966 10.1768C21.9717 10.0578 21.8961 9.89184 21.8861 9.71457C21.876 9.5373 21.9324 9.36297 22.043 9.22915C22.1535 9.09532 22.3095 9.0127 22.4772 8.9991C22.946 8.96785 23.4147 8.934 23.8835 8.90796V8.91577ZM21.3572 2.90535C21.4067 2.83379 21.4692 2.77329 21.541 2.72732C21.6128 2.68135 21.6925 2.65083 21.7755 2.63752C21.8585 2.62421 21.9432 2.62836 22.0247 2.64975C22.1062 2.67113 22.1828 2.70933 22.2503 2.76212C22.3168 2.81473 22.3729 2.88069 22.4152 2.95621C22.4575 3.03174 22.4853 3.11534 22.497 3.20223C22.5206 3.37962 22.4781 3.55976 22.3786 3.70483L21.5496 4.89754C21.4487 5.0415 21.298 5.13757 21.1303 5.16488C20.9626 5.19219 20.7914 5.14852 20.6541 5.04338C20.5207 4.93499 20.4323 4.77634 20.4074 4.60067C20.3965 4.51233 20.4025 4.42261 20.425 4.33675C20.4474 4.25089 20.4859 4.17063 20.5381 4.10067L21.3695 2.90535H21.3572ZM17.0694 20.2413C16.7996 20.6882 16.4237 21.0527 15.9789 21.2986C15.6036 21.5081 15.1871 21.6222 14.7627 21.6319C14.3327 21.643 13.9075 21.5353 13.5291 21.3194C13.2598 21.1636 13.0198 20.9571 12.8211 20.71L17.057 20.2413H17.0694ZM17.5628 17.7751V18.0668V18.1658C17.5723 18.3602 17.569 18.5551 17.5529 18.7491L17.4518 19.1658L12.3178 19.7205L12.2388 19.4991L12.0735 18.6293V18.3689L17.5776 17.7751H17.5628ZM12.9345 10.2908C13.1732 10.3884 13.39 10.5374 13.5711 10.7283C13.7187 10.8749 13.8571 11.0315 13.9855 11.197C14.4228 10.5208 14.9034 9.87696 15.4238 9.26994C15.884 8.71667 16.3883 8.20612 16.9312 7.7439L17.0496 7.70223L18.3399 7.76212L18.071 8.04858C17.3228 8.8581 16.6295 9.72222 15.9962 10.6345C15.242 11.6605 14.5522 12.7375 13.9312 13.8585C13.6614 13.1506 13.303 12.4841 12.8655 11.8767C12.5214 11.3772 12.1051 10.9378 11.6319 10.5746L12.9247 10.283L12.9345 10.2908ZM9.9987 6.50952C10.3377 5.97253 10.7538 5.49457 11.2322 5.09285C11.7166 4.682 12.2628 4.35982 12.8482 4.13973L12.8975 4.1241C13.3342 3.96427 13.7871 3.85937 14.247 3.8116C14.7341 3.7607 15.2253 3.77119 15.71 3.84285C16.6588 3.97425 17.5671 4.33035 18.3671 4.88452C18.8897 5.24 19.3567 5.6793 19.7511 6.1866C20.1346 6.68677 20.4365 7.25093 20.6442 7.85588C20.7613 8.20144 20.8505 8.55689 20.9106 8.91838C20.9756 9.30421 21.0045 9.69585 20.997 10.0876C20.9917 10.5262 20.9412 10.9627 20.8465 11.3897C20.7486 11.8251 20.6098 12.2491 20.432 12.6554C20.0447 13.5408 19.4107 14.3845 18.7865 15.2153C18.4806 15.6241 18.1771 16.0304 17.9156 16.4314C17.8343 16.5557 17.7224 16.6541 17.5919 16.7161C17.4615 16.778 17.3175 16.8012 17.1755 16.783L12.562 17.2882C12.3788 17.3079 12.1949 17.2589 12.0424 17.1499C11.89 17.0409 11.7787 16.8787 11.7281 16.6918C11.6261 16.3202 11.4958 15.9579 11.3383 15.6085C11.2107 15.3204 11.0535 15.0479 10.8696 14.796C10.6476 14.5043 10.4206 14.2048 10.1936 13.8481C9.94037 13.4549 9.72468 13.0362 9.5497 12.5981L9.53489 12.5512C9.3612 12.1039 9.229 11.64 9.14016 11.1658C9.05254 10.6732 9.02024 10.1715 9.04394 9.67098C9.06983 9.1512 9.15684 8.63684 9.30299 8.13973C9.45622 7.60838 9.66646 7.09725 9.92963 6.61629V6.60067L9.98637 6.50952H9.9987Z" fill="black"/>
</g>
<defs>
<clipPath id="clip0_6188_44369">
<rect width="24.8889" height="32" fill="white" transform="translate(0.554688)"/>
</clipPath>
</defs>
</svg>
