<svg width="19" height="19" viewBox="0 0 19 19" fill="none" xmlns="http://www.w3.org/2000/svg">
<path d="M2 16.5H3.4L12.025 7.875L10.625 6.475L2 15.1V16.5ZM16.3 6.425L12.05 2.225L13.45 0.825C13.8333 0.441667 14.3043 0.25 14.863 0.25C15.421 0.25 15.8917 0.441667 16.275 0.825L17.675 2.225C18.0583 2.60833 18.2583 3.071 18.275 3.613C18.2917 4.15433 18.1083 4.61667 17.725 5L16.3 6.425ZM1 18.5C0.716667 18.5 0.479333 18.404 0.288 18.212C0.0960001 18.0207 0 17.7833 0 17.5V14.675C0 14.5417 0.025 14.4127 0.075 14.288C0.125 14.1627 0.2 14.05 0.3 13.95L10.6 3.65L14.85 7.9L4.55 18.2C4.45 18.3 4.33767 18.375 4.213 18.425C4.08767 18.475 3.95833 18.5 3.825 18.5H1ZM11.325 7.175L10.625 6.475L12.025 7.875L11.325 7.175Z" fill="black"/>
</svg>
