<svg width="700" height="600" viewBox="0 0 700 600" fill="none" xmlns="http://www.w3.org/2000/svg">
<path fill-rule="evenodd" clip-rule="evenodd" d="M665.797 179.471C665.293 179.129 664.095 179.008 663.539 178.905C661.223 178.479 658.839 178.294 656.479 178.294C649.201 178.305 641.806 178.971 634.65 180.124C630.106 180.855 624.613 183.32 620.093 181.981C612.219 179.65 604.26 179.765 596.789 183.093C589.959 186.136 584.774 191.917 581.748 198.162C581.291 199.105 579.439 202.575 578.915 204.915C578.691 205.393 578.475 205.874 578.281 206.362C577.731 207.75 577.236 209.162 576.777 210.577C576.58 211.181 576.087 212.513 576.673 212.771C575.737 214.383 574.907 216.044 574.216 217.758C572.206 222.745 570.008 228.216 569.301 233.501C569.04 235.458 569.03 237.427 569.273 239.387C569.393 240.357 569.344 242.305 570.048 243.043C571.543 244.606 572.31 242.417 572.142 241.374C570.855 233.428 573.34 225.965 576.285 218.495C578.19 213.665 581.319 209.245 584.825 205.244C587.662 202.004 590.705 199.453 594.594 197.305C599.35 194.678 604.435 192.555 609.472 190.425C612.785 189.024 616.103 187.66 619.508 186.453C620.266 186.184 621.457 185.495 622.297 185.492C624.072 185.487 626.59 186.709 628.305 187.163C633.946 188.66 639.66 190.575 645.491 191.34C649.231 191.83 652.735 191.278 656.232 190.116C656.589 189.997 657.189 189.692 657.923 189.256C660.52 188.325 662.976 187.152 665.115 185.46C666.347 184.485 667.466 183.225 668.486 182.072C668.79 181.728 668.925 181.333 668.93 180.957C669.161 180.845 669.314 180.712 669.349 180.559C669.604 179.424 667.283 179.404 665.797 179.471Z" fill="#6D96F2"/>
<path fill-rule="evenodd" clip-rule="evenodd" d="M74.625 274.066C73.1973 275.144 71.797 276.245 70.4309 277.391C69.3897 278.265 67.5472 279.311 67.1734 280.634C66.7849 282.01 68.0115 283.297 68.9805 284.128C74.1047 288.526 79.8748 291.499 86.9752 291.994C97.9083 292.755 107.423 290.15 116.909 285.026C123.573 281.426 127.986 276.102 128.95 268.913C136.886 271.989 144.56 276.229 151.083 281.434C154.301 284.001 157.072 286.846 159.636 289.999C161.278 292.02 162.866 294.072 164.34 296.204C164.98 297.13 165.632 298.773 166.69 299.306C167.932 299.932 169.433 298.95 169.372 297.663C169.32 296.591 168.079 295.347 167.499 294.471C166.536 293.016 165.558 291.57 164.527 290.156C162.861 287.864 161.138 285.606 159.259 283.462C155.037 278.644 149.665 274.666 144.096 271.272C133.412 264.762 121.687 260.661 108.688 260.313C100.695 260.1 93.971 262.647 87.1356 266.451C82.8798 268.819 78.4868 271.149 74.625 274.066Z" fill="#BBCFF9"/>
<path fill-rule="evenodd" clip-rule="evenodd" d="M178.312 242.578C169.982 234.577 161.623 226.675 152.317 219.629C146.833 215.477 141.053 211.702 135.392 207.766C136.045 208.299 136.686 208.848 137.311 209.411C135.544 208.292 133.231 207.66 131.358 206.624C129.268 205.469 127.271 204.147 125.311 202.816C121.487 200.216 117.72 197.567 113.789 195.104C109.409 192.359 104.87 189.823 100.416 187.181C96.6353 184.94 92.8087 182.486 88.7644 180.654C86.5601 179.655 84.3507 178.471 82.1374 177.429C81.3967 177.081 73.8805 172.654 73.8994 172.64C74.3148 172.349 78.0972 174.006 78.6821 174.229C80.3908 174.88 82.0248 175.659 83.6675 176.435C82.7658 174.776 82.0521 173.033 81.6636 171.198C81.5436 170.632 80.5819 166.509 81.074 166.164C81.3198 165.991 83.7177 173.367 83.8405 174.076C83.9403 174.652 83.9257 175.481 84.1278 176.026C84.4542 176.908 84.4377 176.641 85.1567 177.138C86.4744 178.048 88.2236 178.616 89.6498 179.376C90.4188 179.776 92.8 181.365 94.2341 181.817C98.5736 183.783 102.972 186.808 107.095 189.319C106.013 187.422 105.19 185.439 104.589 183.36C104.446 182.866 102.905 178.44 103.279 178.177C103.7 177.88 106.636 184.643 106.81 185.282C107.133 186.472 107.2 187.794 107.605 188.952C108.049 190.222 109.435 190.672 110.683 191.412C115.278 194.135 119.715 197.028 124.078 200.055C128.839 192.157 123.35 182.62 118.724 175.994C115.388 171.218 110.9 167.124 106.16 163.549C99.8336 158.778 92.5959 154.967 85.3671 151.481C76.944 147.42 67.8402 144.902 58.3757 143.74C53.4255 143.131 48.3613 143.149 43.3611 143.344C40.9186 143.439 38.5741 143.74 36.2333 144.484C35.1783 144.819 34.1587 145.242 33.1651 145.715C32.4101 146.074 30.5839 146.454 30.1498 146.989C26.5766 151.328 24.7487 155.65 25.0278 161.101C25.2918 166.261 27.0389 171.424 29.41 176.027C32.0506 181.152 35.4468 185.804 39.8885 189.708C43.2772 192.687 47.0658 195.279 50.8295 197.838C64.2156 206.938 81.1871 214.853 98.5244 212.819C104.137 212.161 109.474 210.331 114.462 207.842C115.638 207.256 116.806 206.664 117.916 205.972C118.664 205.505 120.664 203.402 121.416 203.326C122.448 203.221 124.669 205.178 125.637 205.773C132.991 210.301 140.151 215.075 147.162 220.041C154.622 225.324 161.714 230.968 168.599 236.876C171.527 239.389 174.436 241.908 177.279 244.506C177.941 245.11 179.56 247.336 180.76 247.436C181.519 247.501 182.03 246.895 181.923 246.241C181.734 245.102 179.165 243.398 178.312 242.578Z" fill="#BBCFF9"/>
<path fill-rule="evenodd" clip-rule="evenodd" d="M657.055 211.524C653.829 210.866 650.266 210.917 646.98 210.971C629.353 211.195 612.044 218.979 600.78 231.416C591.19 242.005 588.553 255.169 586.658 268.477C586.471 269.798 586.39 271.111 586.284 272.435C586.262 272.719 586.227 272.973 586.191 273.212C585.446 273.833 585.054 274.557 585.496 275.353C583.855 278.704 582.466 282.139 581.275 285.682C577.768 296.111 574.202 306.739 576.398 317.706C576.912 311.671 577.992 305.5 579.283 299.563C579.357 299.223 579.437 298.885 579.521 298.548C579.53 298.512 579.538 298.476 579.546 298.441C580.003 296.623 580.597 294.86 581.32 293.125C581.327 293.105 581.335 293.087 581.343 293.068C581.438 292.84 581.539 292.612 581.64 292.385C581.847 291.915 582.06 291.446 582.285 290.979C582.361 290.819 582.434 290.659 582.505 290.497C583.557 288.092 584.001 285.381 584.944 282.893C585.169 282.327 585.404 281.764 585.651 281.202C585.666 281.17 585.681 281.137 585.696 281.104C586.364 279.595 587.101 278.104 587.881 276.629C588.305 276.332 588.531 275.595 588.897 274.925C588.972 274.793 589.563 273.913 589.739 273.406C590.199 272.577 590.655 271.749 591.118 270.921C591.105 270.926 591.091 270.931 591.076 270.936C591.539 270.141 592.003 269.351 592.464 268.563C592.565 268.39 592.667 268.217 592.77 268.043C592.935 267.767 593.101 267.491 593.265 267.215C594.809 264.638 596.447 262.113 598.146 259.618C598.754 258.728 600.203 257.451 600.481 256.452C600.491 256.414 600.493 256.38 600.5 256.345C604.189 251.511 608.435 247.054 613.529 243.522C612.914 244.143 611.604 246.249 611.259 246.666C610.2 247.943 609.05 249.131 607.897 250.335C605.83 252.491 603.814 254.714 602.021 257.066C598.742 261.366 595.915 265.892 593.241 270.509C593.216 270.536 593.188 270.561 593.164 270.589C591.82 272.134 590.974 274.469 590.007 276.237C593.835 274.583 598.068 273.506 601.995 272.037C605.914 270.574 609.724 268.943 613.404 267.029C618.293 264.484 623.366 261.612 627.986 258.362C633.281 255.298 637.73 251.081 641.658 246.656C646.304 241.421 650.563 236.14 653.197 229.782C654.491 226.659 655.509 223.401 656.112 220.106C656.139 219.963 656.172 219.806 656.209 219.645C656.826 218.507 657.378 217.343 657.841 216.153C658.576 214.264 660.314 212.187 657.055 211.524Z" fill="#9BB7F6"/>
<path fill-rule="evenodd" clip-rule="evenodd" d="M110.323 233.643C109.313 232.622 108.178 231.701 106.845 231.044C106.508 230.878 103.998 229.766 103.834 230.01C103.453 230.578 110.02 233.317 110.323 233.643ZM122.225 226.824C122.217 226.867 123.087 228.244 123.324 228.668C123.829 229.569 124.294 230.486 124.732 231.407C124.084 229.782 123.417 228.275 122.225 226.824ZM61.3585 238.037C60.5202 238.289 59.5124 237.296 60.5996 237.052C61.4795 236.856 61.4363 236.81 61.8313 236.148C62.1521 235.612 62.3497 234.957 62.6312 234.394C63.2283 233.2 63.9056 232.06 64.737 230.992C66.5188 228.703 68.6896 226.731 71.1245 225.069C75.3737 222.169 80.1382 219.518 85.1922 218.186C93.2281 216.069 102.374 215.938 110.423 217.406C115.408 218.315 119.963 219.896 123.272 223.64C124.927 225.511 126.226 227.702 126.793 230.116C126.942 230.747 126.913 231.448 127.099 232.066C127.384 233.016 127.259 232.763 128.45 232.947C129.749 233.149 131.048 233.355 132.347 233.565C135.748 234.114 139.168 234.696 142.482 235.586C143.572 235.879 144.639 236.237 145.681 236.653C146.469 236.967 149.607 237.955 149.988 238.909C150.623 240.498 148.496 239.778 147.835 239.432C147.256 239.129 146.662 238.846 146.059 238.585C144.541 237.931 142.959 237.423 141.342 237.02C139.594 236.584 137.811 236.259 136.033 235.932C134.377 235.629 132.714 235.352 131.048 235.088C130.123 234.941 129.198 234.798 128.272 234.656C127.955 234.607 127.398 234.352 127.439 234.736C125.493 234.385 123.388 234.436 121.405 234.34C118.977 234.221 116.539 234.124 114.102 234.195C112.345 234.246 110.586 234.354 108.837 234.574C107.816 234.703 106.81 234.891 105.808 235.129C105.257 235.261 103.086 235.539 102.786 235.986C102.915 235.794 105.311 235.981 105.616 235.969C106.836 235.927 108.046 235.814 109.262 235.688C111.518 235.452 113.774 235.33 116.037 235.347C116.028 235.718 114.483 236.378 114.105 236.623C113.26 237.175 112.449 237.775 111.693 238.434C110.362 239.594 108.767 241.031 107.847 242.407C108.118 242.001 109.457 241.474 109.932 241.165C110.693 240.669 111.44 240.139 112.145 239.574C112.796 239.051 113.404 238.487 114.002 237.91C114.6 237.334 115.411 236.135 116.197 235.751C116.244 235.727 116.586 235.98 116.78 235.894C116.977 235.808 117.221 235.375 117.27 235.358C118.002 235.095 119.39 235.422 120.159 235.456C122.152 235.541 124.145 235.653 126.136 235.756C126.754 235.787 127.278 235.656 127.511 236.08C127.759 236.534 127.304 237.724 127.174 238.217C126.694 240.049 125.842 241.691 124.498 243.111C121.984 245.77 118.882 247.541 115.379 248.727C101.962 253.268 87.6872 255.086 74.2735 250.363C68.7203 248.407 60.3571 244.913 61.3585 238.037Z" fill="#6D96F2"/>
<g opacity="0.6">
<path fill-rule="evenodd" clip-rule="evenodd" d="M675.712 451.958C684.841 509.596 463.467 547.193 272.926 520.955C82.384 494.718 -5.02735 392.258 85.8958 337.665C176.82 283.07 666.584 394.319 675.712 451.958Z" fill="#BBCFF9"/>
</g>
<path d="M286.26 74.1766H150.989C146.81 74.1766 143.422 77.337 143.422 81.2355V333.588C143.422 337.487 146.81 340.647 150.989 340.647H286.26C290.439 340.647 293.827 337.487 293.827 333.588V81.2355C293.827 77.337 290.439 74.1766 286.26 74.1766Z" fill="#F6F9FF"/>
<path fill-rule="evenodd" clip-rule="evenodd" d="M218.152 323.883C225.988 323.883 232.341 317.957 232.341 310.647C232.341 303.338 225.988 297.412 218.152 297.412C210.316 297.412 203.963 303.338 203.963 310.647C203.963 317.957 210.316 323.883 218.152 323.883Z" fill="white"/>
<path fill-rule="evenodd" clip-rule="evenodd" d="M205.853 91.824C206.898 91.824 207.745 91.0339 207.745 90.0593C207.745 89.0846 206.898 88.2946 205.853 88.2946C204.808 88.2946 203.961 89.0846 203.961 90.0593C203.961 91.0339 204.808 91.824 205.853 91.824Z" fill="white"/>
<path d="M230.446 88.2946H214.365C213.32 88.2946 212.473 89.0846 212.473 90.0593C212.473 91.0339 213.32 91.824 214.365 91.824H230.446C231.49 91.824 232.338 91.0339 232.338 90.0593C232.338 89.0846 231.49 88.2946 230.446 88.2946Z" fill="white"/>
<path d="M276.805 98.8827H160.454C158.364 98.8827 156.67 100.463 156.67 102.412V143C156.67 144.95 158.364 146.53 160.454 146.53H276.805C278.895 146.53 280.589 144.95 280.589 143V102.412C280.589 100.463 278.895 98.8827 276.805 98.8827Z" fill="white"/>
<path d="M259.779 113.177H196.4C194.833 113.177 193.562 114.362 193.562 115.824V117.677C193.562 119.139 194.833 120.324 196.4 120.324H259.779C261.346 120.324 262.617 119.139 262.617 117.677V115.824C262.617 114.362 261.346 113.177 259.779 113.177Z" fill="#BBCFF9"/>
<path d="M237.076 125.089H196.4C194.833 125.089 193.562 126.274 193.562 127.736V129.589C193.562 131.05 194.833 132.236 196.4 132.236H237.076C238.643 132.236 239.914 131.05 239.914 129.589V127.736C239.914 126.274 238.643 125.089 237.076 125.089Z" fill="#BBCFF9"/>
<path fill-rule="evenodd" clip-rule="evenodd" d="M176.533 133.295C182.802 133.295 187.884 128.554 187.884 122.706C187.884 116.859 182.802 112.118 176.533 112.118C170.264 112.118 165.182 116.859 165.182 122.706C165.182 128.554 170.264 133.295 176.533 133.295Z" fill="#9BB7F6"/>
<path d="M276.805 153.588H160.454C158.364 153.588 156.67 155.169 156.67 157.118V187.118C156.67 189.067 158.364 190.647 160.454 190.647H276.805C278.895 190.647 280.589 189.067 280.589 187.118V157.118C280.589 155.169 278.895 153.588 276.805 153.588Z" fill="white"/>
<path d="M259.779 164.706H196.4C194.833 164.706 193.562 165.891 193.562 167.353V167.618C193.562 169.08 194.833 170.265 196.4 170.265H259.779C261.346 170.265 262.617 169.08 262.617 167.618V167.353C262.617 165.891 261.346 164.706 259.779 164.706Z" fill="#BBCFF9"/>
<path d="M237.076 173.971H196.4C194.833 173.971 193.562 175.156 193.562 176.618V176.883C193.562 178.345 194.833 179.53 196.4 179.53H237.076C238.643 179.53 239.914 178.345 239.914 176.883V176.618C239.914 175.156 238.643 173.971 237.076 173.971Z" fill="#BBCFF9"/>
<path fill-rule="evenodd" clip-rule="evenodd" d="M176.533 182.706C182.802 182.706 187.884 177.965 187.884 172.118C187.884 166.27 182.802 161.53 176.533 161.53C170.264 161.53 165.182 166.27 165.182 172.118C165.182 177.965 170.264 182.706 176.533 182.706Z" fill="#9BB7F6"/>
<path d="M276.805 197.706H160.454C158.364 197.706 156.67 199.286 156.67 201.235V231.235C156.67 233.184 158.364 234.765 160.454 234.765H276.805C278.895 234.765 280.589 233.184 280.589 231.235V201.235C280.589 199.286 278.895 197.706 276.805 197.706Z" fill="white"/>
<path d="M259.779 208.823H196.4C194.833 208.823 193.562 210.009 193.562 211.471V211.735C193.562 213.197 194.833 214.382 196.4 214.382H259.779C261.346 214.382 262.617 213.197 262.617 211.735V211.471C262.617 210.009 261.346 208.823 259.779 208.823Z" fill="#BBCFF9"/>
<path d="M237.076 218.088H196.4C194.833 218.088 193.562 219.274 193.562 220.735V221C193.562 222.462 194.833 223.647 196.4 223.647H237.076C238.643 223.647 239.914 222.462 239.914 221V220.735C239.914 219.274 238.643 218.088 237.076 218.088Z" fill="#BBCFF9"/>
<path fill-rule="evenodd" clip-rule="evenodd" d="M176.533 226.823C182.802 226.823 187.884 222.083 187.884 216.235C187.884 210.388 182.802 205.647 176.533 205.647C170.264 205.647 165.182 210.388 165.182 216.235C165.182 222.083 170.264 226.823 176.533 226.823Z" fill="#BBCFF9"/>
<path d="M276.805 241.824H160.454C158.364 241.824 156.67 243.404 156.67 245.353V275.353C156.67 277.303 158.364 278.883 160.454 278.883H276.805C278.895 278.883 280.589 277.303 280.589 275.353V245.353C280.589 243.404 278.895 241.824 276.805 241.824Z" fill="white"/>
<path d="M259.779 252.942H196.4C194.833 252.942 193.562 254.127 193.562 255.589V255.854C193.562 257.316 194.833 258.501 196.4 258.501H259.779C261.346 258.501 262.617 257.316 262.617 255.854V255.589C262.617 254.127 261.346 252.942 259.779 252.942Z" fill="#BBCFF9"/>
<path d="M237.076 262.207H196.4C194.833 262.207 193.562 263.392 193.562 264.854V265.119C193.562 266.581 194.833 267.766 196.4 267.766H237.076C238.643 267.766 239.914 266.581 239.914 265.119V264.854C239.914 263.392 238.643 262.207 237.076 262.207Z" fill="#BBCFF9"/>
<path fill-rule="evenodd" clip-rule="evenodd" d="M176.533 270.942C182.802 270.942 187.884 266.201 187.884 260.354C187.884 254.507 182.802 249.766 176.533 249.766C170.264 249.766 165.182 254.507 165.182 260.354C165.182 266.201 170.264 270.942 176.533 270.942Z" fill="#9BB7F6"/>
<path fill-rule="evenodd" clip-rule="evenodd" d="M171.932 289.471C170.679 289.471 169.429 289.495 168.178 289.555C167.223 289.601 165.766 289.417 164.959 289.972C164.12 290.548 164.178 291.727 164.309 292.56C165.001 296.965 166.692 300.87 170.229 303.991C175.675 308.795 181.917 311.237 189.304 312.324C194.493 313.088 199.283 312.027 203.103 308.585C205.895 313.417 208.012 318.764 209.074 324.16C209.598 326.823 209.758 329.455 209.666 332.166C209.607 333.902 209.504 335.635 209.305 337.364C209.218 338.115 208.807 339.251 209.122 339.962C209.492 340.795 210.74 340.876 211.3 340.165C211.766 339.573 211.681 338.411 211.777 337.712C211.936 336.549 212.082 335.385 212.187 334.217C212.358 332.326 212.484 330.43 212.476 328.531C212.454 324.266 211.437 319.985 210.046 315.937C207.379 308.17 203.051 301.267 196.32 295.851C192.18 292.521 187.443 291.173 182.069 290.448C178.722 289.997 175.322 289.471 171.932 289.471Z" fill="#6D96F2"/>
<path fill-rule="evenodd" clip-rule="evenodd" d="M191.258 320.353C177.732 320.353 168.622 330.521 164.315 341.09C162.691 345.073 162.311 349.448 161.685 353.63C161.484 354.973 161.559 357.018 160.974 358.214C160.762 358.648 160.276 358.803 160.509 359.395C160.65 359.752 160.925 359.972 161.34 360.042C162.191 360.189 163.394 359.324 164.123 358.983C170.174 356.153 174.148 351.776 177.391 346.422C179.402 343.104 181.442 339.658 182.636 336.015C183.365 333.789 183.79 331.445 184.039 329.136C184.138 328.226 184.232 327.296 184.227 326.381C184.221 325.473 183.768 324.993 183.442 324.204C187.956 322.61 193.05 322.176 197.622 323.827C201.851 325.354 205.363 328.306 207.329 332.014C207.84 332.978 208.235 333.994 208.521 335.032C208.71 335.711 208.718 336.592 209.067 337.206C209.911 338.696 211.687 337.7 211.517 336.314C211.041 332.448 208.671 328.567 205.64 325.879C201.817 322.489 196.637 320.353 191.258 320.353Z" fill="#6D96F2"/>
<path d="M348.691 97.118H213.421C209.242 97.118 205.854 100.278 205.854 104.177V356.53C205.854 360.428 209.242 363.589 213.421 363.589H348.691C352.871 363.589 356.259 360.428 356.259 356.53V104.177C356.259 100.278 352.871 97.118 348.691 97.118Z" fill="#BBCFF9"/>
<path fill-rule="evenodd" clip-rule="evenodd" d="M280.584 346.824C288.42 346.824 294.773 340.898 294.773 333.589C294.773 326.279 288.42 320.353 280.584 320.353C272.748 320.353 266.395 326.279 266.395 333.589C266.395 340.898 272.748 346.824 280.584 346.824Z" fill="white"/>
<path fill-rule="evenodd" clip-rule="evenodd" d="M268.29 114.765C269.336 114.765 270.182 113.976 270.182 113.001C270.182 112.026 269.336 111.236 268.29 111.236C267.245 111.236 266.398 112.026 266.398 113.001C266.398 113.976 267.245 114.765 268.29 114.765Z" fill="white"/>
<path d="M292.883 111.236H276.802C275.757 111.236 274.91 112.026 274.91 113.001C274.91 113.975 275.757 114.765 276.802 114.765H292.883C293.928 114.765 294.775 113.975 294.775 113.001C294.775 112.026 293.928 111.236 292.883 111.236Z" fill="white"/>
<path d="M339.235 121.824H222.883C220.794 121.824 219.1 123.404 219.1 125.353V165.941C219.1 167.891 220.794 169.471 222.883 169.471H339.235C341.324 169.471 343.019 167.891 343.019 165.941V125.353C343.019 123.404 341.324 121.824 339.235 121.824Z" fill="white"/>
<path d="M293.826 136.117H230.447C228.88 136.117 227.609 137.303 227.609 138.764V140.617C227.609 142.079 228.88 143.264 230.447 143.264H293.826C295.393 143.264 296.663 142.079 296.663 140.617V138.764C296.663 137.303 295.393 136.117 293.826 136.117Z" fill="#BBCFF9"/>
<path d="M271.123 148.029H230.447C228.88 148.029 227.609 149.214 227.609 150.676V152.529C227.609 153.991 228.88 155.176 230.447 155.176H271.123C272.69 155.176 273.961 153.991 273.961 152.529V150.676C273.961 149.214 272.69 148.029 271.123 148.029Z" fill="#BBCFF9"/>
<path fill-rule="evenodd" clip-rule="evenodd" d="M329.774 151.824C333.431 151.824 336.396 149.058 336.396 145.647C336.396 142.236 333.431 139.471 329.774 139.471C326.117 139.471 323.152 142.236 323.152 145.647C323.152 149.058 326.117 151.824 329.774 151.824Z" fill="#BBCFF9"/>
<path fill-rule="evenodd" clip-rule="evenodd" d="M329.775 148.294C331.343 148.294 332.613 147.109 332.613 145.647C332.613 144.185 331.343 143 329.775 143C328.208 143 326.938 144.185 326.938 145.647C326.938 147.109 328.208 148.294 329.775 148.294Z" fill="#F6F9FF"/>
<path d="M339.235 176.53H222.883C220.794 176.53 219.1 178.11 219.1 180.059V210.059C219.1 212.008 220.794 213.588 222.883 213.588H339.235C341.324 213.588 343.019 212.008 343.019 210.059V180.059C343.019 178.11 341.324 176.53 339.235 176.53Z" fill="white"/>
<path d="M322.206 187.648H258.828C257.261 187.648 255.99 188.833 255.99 190.295V190.559C255.99 192.021 257.261 193.206 258.828 193.206H322.206C323.774 193.206 325.044 192.021 325.044 190.559V190.295C325.044 188.833 323.774 187.648 322.206 187.648Z" fill="#BBCFF9"/>
<path d="M299.504 196.912H258.828C257.261 196.912 255.99 198.097 255.99 199.559V199.824C255.99 201.286 257.261 202.471 258.828 202.471H299.504C301.071 202.471 302.342 201.286 302.342 199.824V199.559C302.342 198.097 301.071 196.912 299.504 196.912Z" fill="#BBCFF9"/>
<path fill-rule="evenodd" clip-rule="evenodd" d="M238.963 205.647C245.231 205.647 250.314 200.907 250.314 195.059C250.314 189.212 245.231 184.471 238.963 184.471C232.694 184.471 227.611 189.212 227.611 195.059C227.611 200.907 232.694 205.647 238.963 205.647Z" fill="#9BB7F6"/>
<path d="M339.235 220.647H222.883C220.794 220.647 219.1 222.228 219.1 224.177V254.177C219.1 256.126 220.794 257.706 222.883 257.706H339.235C341.324 257.706 343.019 256.126 343.019 254.177V224.177C343.019 222.228 341.324 220.647 339.235 220.647Z" fill="white"/>
<path d="M293.826 231.765H230.447C228.88 231.765 227.609 232.95 227.609 234.412V234.677C227.609 236.139 228.88 237.324 230.447 237.324H293.826C295.393 237.324 296.663 236.139 296.663 234.677V234.412C296.663 232.95 295.393 231.765 293.826 231.765Z" fill="#BBCFF9"/>
<path d="M271.123 241.03H230.447C228.88 241.03 227.609 242.215 227.609 243.677V243.942C227.609 245.404 228.88 246.589 230.447 246.589H271.123C272.69 246.589 273.961 245.404 273.961 243.942V243.677C273.961 242.215 272.69 241.03 271.123 241.03Z" fill="#BBCFF9"/>
<path fill-rule="evenodd" clip-rule="evenodd" d="M329.774 245.353C333.431 245.353 336.396 242.588 336.396 239.177C336.396 235.766 333.431 233 329.774 233C326.117 233 323.152 235.766 323.152 239.177C323.152 242.588 326.117 245.353 329.774 245.353Z" fill="#BBCFF9"/>
<path fill-rule="evenodd" clip-rule="evenodd" d="M329.775 241.824C331.343 241.824 332.613 240.639 332.613 239.177C332.613 237.715 331.343 236.53 329.775 236.53C328.208 236.53 326.938 237.715 326.938 239.177C326.938 240.639 328.208 241.824 329.775 241.824Z" fill="#F6F9FF"/>
<path d="M339.235 264.765H222.883C220.794 264.765 219.1 266.345 219.1 268.294V298.294C219.1 300.244 220.794 301.824 222.883 301.824H339.235C341.324 301.824 343.019 300.244 343.019 298.294V268.294C343.019 266.345 341.324 264.765 339.235 264.765Z" fill="white"/>
<path d="M322.206 275.883H258.828C257.261 275.883 255.99 277.068 255.99 278.53V278.794C255.99 280.256 257.261 281.442 258.828 281.442H322.206C323.774 281.442 325.044 280.256 325.044 278.794V278.53C325.044 277.068 323.774 275.883 322.206 275.883Z" fill="#BBCFF9"/>
<path d="M299.504 285.147H258.828C257.261 285.147 255.99 286.332 255.99 287.794V288.059C255.99 289.521 257.261 290.706 258.828 290.706H299.504C301.071 290.706 302.342 289.521 302.342 288.059V287.794C302.342 286.332 301.071 285.147 299.504 285.147Z" fill="#BBCFF9"/>
<path fill-rule="evenodd" clip-rule="evenodd" d="M238.963 293.883C245.231 293.883 250.314 289.142 250.314 283.294C250.314 277.447 245.231 272.706 238.963 272.706C232.694 272.706 227.611 277.447 227.611 283.294C227.611 289.142 232.694 293.883 238.963 293.883Z" fill="#9BB7F6"/>
<path d="M577.611 119.177H275.855C271.675 119.177 268.287 122.337 268.287 126.236V417.412C268.287 421.311 271.675 424.471 275.855 424.471H577.611C581.791 424.471 585.179 421.311 585.179 417.412V126.236C585.179 122.337 581.791 119.177 577.611 119.177Z" fill="#F6F9FF"/>
<path d="M562.475 157.118H511.394C507.214 157.118 503.826 160.279 503.826 164.177V221.53C503.826 225.429 507.214 228.589 511.394 228.589H562.475C566.654 228.589 570.042 225.429 570.042 221.53V164.177C570.042 160.279 566.654 157.118 562.475 157.118Z" fill="white"/>
<path fill-rule="evenodd" clip-rule="evenodd" d="M536.936 198.588C545.295 198.588 552.071 192.268 552.071 184.471C552.071 176.673 545.295 170.353 536.936 170.353C528.577 170.353 521.801 176.673 521.801 184.471C521.801 192.268 528.577 198.588 536.936 198.588Z" fill="#BBCFF9"/>
<path d="M557.749 202.118H516.127C514.56 202.118 513.289 203.303 513.289 204.765C513.289 206.227 514.56 207.412 516.127 207.412H557.749C559.316 207.412 560.586 206.227 560.586 204.765C560.586 203.303 559.316 202.118 557.749 202.118Z" fill="#BBCFF9"/>
<path d="M550.182 210.942H523.695C522.128 210.942 520.857 212.127 520.857 213.589C520.857 215.051 522.128 216.236 523.695 216.236H550.182C551.749 216.236 553.02 215.051 553.02 213.589C553.02 212.127 551.749 210.942 550.182 210.942Z" fill="#BBCFF9"/>
<path d="M268.287 126.236C268.287 122.337 271.675 119.177 275.855 119.177H577.611C581.791 119.177 585.179 122.337 585.179 126.236V143H268.287V126.236Z" fill="#9BB7F6"/>
<path fill-rule="evenodd" clip-rule="evenodd" d="M280.583 135.059C282.672 135.059 284.366 133.478 284.366 131.529C284.366 129.58 282.672 128 280.583 128C278.493 128 276.799 129.58 276.799 131.529C276.799 133.478 278.493 135.059 280.583 135.059Z" fill="#F6F9FF"/>
<path fill-rule="evenodd" clip-rule="evenodd" d="M291.936 135.059C294.026 135.059 295.72 133.478 295.72 131.529C295.72 129.58 294.026 128 291.936 128C289.847 128 288.152 129.58 288.152 131.529C288.152 133.478 289.847 135.059 291.936 135.059Z" fill="#F6F9FF"/>
<path fill-rule="evenodd" clip-rule="evenodd" d="M303.286 135.059C305.375 135.059 307.07 133.478 307.07 131.529C307.07 129.58 305.375 128 303.286 128C301.196 128 299.502 129.58 299.502 131.529C299.502 133.478 301.196 135.059 303.286 135.059Z" fill="#F6F9FF"/>
<path d="M562.477 235.647H511.396C507.216 235.647 503.828 238.808 503.828 242.706V399.765C503.828 403.664 507.216 406.824 511.396 406.824H562.477C566.656 406.824 570.044 403.664 570.044 399.765V242.706C570.044 238.808 566.656 235.647 562.477 235.647Z" fill="white"/>
<path d="M549.234 251.53H524.639C522.55 251.53 520.855 253.11 520.855 255.059V270.941C520.855 272.891 522.55 274.471 524.639 274.471H549.234C551.324 274.471 553.018 272.891 553.018 270.941V255.059C553.018 253.11 551.324 251.53 549.234 251.53Z" fill="#BBCFF9"/>
<path d="M549.234 281.529H524.639C522.55 281.529 520.855 283.109 520.855 285.059V300.059C520.855 302.008 522.55 303.588 524.639 303.588H549.234C551.324 303.588 553.018 302.008 553.018 300.059V285.059C553.018 283.109 551.324 281.529 549.234 281.529Z" fill="#BBCFF9"/>
<path d="M549.234 310.647H524.639C522.55 310.647 520.855 312.227 520.855 314.177V329.177C520.855 331.126 522.55 332.706 524.639 332.706H549.234C551.324 332.706 553.018 331.126 553.018 329.177V314.177C553.018 312.227 551.324 310.647 549.234 310.647Z" fill="#BBCFF9"/>
<path d="M549.234 368.882H524.639C522.55 368.882 520.855 370.462 520.855 372.412V387.412C520.855 389.361 522.55 390.941 524.639 390.941H549.234C551.324 390.941 553.018 389.361 553.018 387.412V372.412C553.018 370.462 551.324 368.882 549.234 368.882Z" fill="#BBCFF9"/>
<path d="M549.234 339.765H524.639C522.55 339.765 520.855 341.345 520.855 343.294V358.294C520.855 360.244 522.55 361.824 524.639 361.824H549.234C551.324 361.824 553.018 360.244 553.018 358.294V343.294C553.018 341.345 551.324 339.765 549.234 339.765Z" fill="#9BB7F6"/>
<path d="M492.478 158.001H287.208C285.118 158.001 283.424 159.581 283.424 161.53V195.942C283.424 197.891 285.118 199.471 287.208 199.471H492.478C494.568 199.471 496.262 197.891 496.262 195.942V161.53C496.262 159.581 494.568 158.001 492.478 158.001Z" fill="white"/>
<path d="M447.073 170.442H294.775C293.208 170.442 291.938 171.627 291.938 173.089V174.016C291.938 175.478 293.208 176.663 294.775 176.663H447.073C448.64 176.663 449.91 175.478 449.91 174.016V173.089C449.91 171.627 448.64 170.442 447.073 170.442Z" fill="#BBCFF9"/>
<path d="M395.136 180.81H294.775C293.208 180.81 291.938 181.995 291.938 183.457V184.383C291.938 185.845 293.208 187.03 294.775 187.03H395.136C396.704 187.03 397.974 185.845 397.974 184.383V183.457C397.974 181.995 396.704 180.81 395.136 180.81Z" fill="#BBCFF9"/>
<path fill-rule="evenodd" clip-rule="evenodd" d="M473.514 184.913C477.171 184.913 480.136 182.147 480.136 178.736C480.136 175.325 477.171 172.56 473.514 172.56C469.857 172.56 466.893 175.325 466.893 178.736C466.893 182.147 469.857 184.913 473.514 184.913Z" fill="#BBCFF9"/>
<path fill-rule="evenodd" clip-rule="evenodd" d="M473.516 181.383C475.083 181.383 476.353 180.198 476.353 178.736C476.353 177.274 475.083 176.089 473.516 176.089C471.948 176.089 470.678 177.274 470.678 178.736C470.678 180.198 471.948 181.383 473.516 181.383Z" fill="#F6F9FF"/>
<path d="M492.478 206.53H287.208C285.118 206.53 283.424 208.11 283.424 210.059V237.412C283.424 239.361 285.118 240.942 287.208 240.942H492.478C494.568 240.942 496.262 239.361 496.262 237.412V210.059C496.262 208.11 494.568 206.53 492.478 206.53Z" fill="white"/>
<path d="M447.144 216.854H294.704C293.176 216.854 291.938 218.009 291.938 219.434C291.938 220.86 293.176 222.015 294.704 222.015H447.144C448.672 222.015 449.91 220.86 449.91 219.434C449.91 218.009 448.672 216.854 447.144 216.854Z" fill="#BBCFF9"/>
<path d="M395.207 225.457H294.704C293.176 225.457 291.938 226.612 291.938 228.037C291.938 229.463 293.176 230.618 294.704 230.618H395.207C396.735 230.618 397.974 229.463 397.974 228.037C397.974 226.612 396.735 225.457 395.207 225.457Z" fill="#BBCFF9"/>
<path fill-rule="evenodd" clip-rule="evenodd" d="M473.514 229.913C477.171 229.913 480.136 227.148 480.136 223.736C480.136 220.325 477.171 217.56 473.514 217.56C469.857 217.56 466.893 220.325 466.893 223.736C466.893 227.148 469.857 229.913 473.514 229.913Z" fill="#BBCFF9"/>
<path fill-rule="evenodd" clip-rule="evenodd" d="M473.516 226.383C475.083 226.383 476.353 225.198 476.353 223.736C476.353 222.274 475.083 221.089 473.516 221.089C471.948 221.089 470.678 222.274 470.678 223.736C470.678 225.198 471.948 226.383 473.516 226.383Z" fill="#F6F9FF"/>
<path d="M492.478 248H287.208C285.118 248 283.424 249.581 283.424 251.53V278.883C283.424 280.832 285.118 282.412 287.208 282.412H492.478C494.568 282.412 496.262 280.832 496.262 278.883V251.53C496.262 249.581 494.568 248 492.478 248Z" fill="white"/>
<path d="M447.144 258.324H294.704C293.176 258.324 291.938 259.48 291.938 260.905C291.938 262.331 293.176 263.486 294.704 263.486H447.144C448.672 263.486 449.91 262.331 449.91 260.905C449.91 259.48 448.672 258.324 447.144 258.324Z" fill="#BBCFF9"/>
<path d="M395.207 266.927H294.704C293.176 266.927 291.938 268.083 291.938 269.508C291.938 270.934 293.176 272.089 294.704 272.089H395.207C396.735 272.089 397.974 270.934 397.974 269.508C397.974 268.083 396.735 266.927 395.207 266.927Z" fill="#BBCFF9"/>
<path fill-rule="evenodd" clip-rule="evenodd" d="M473.514 271.383C477.171 271.383 480.136 268.617 480.136 265.206C480.136 261.795 477.171 259.03 473.514 259.03C469.857 259.03 466.893 261.795 466.893 265.206C466.893 268.617 469.857 271.383 473.514 271.383Z" fill="#BBCFF9"/>
<path fill-rule="evenodd" clip-rule="evenodd" d="M473.516 267.853C475.083 267.853 476.353 266.668 476.353 265.206C476.353 263.744 475.083 262.559 473.516 262.559C471.948 262.559 470.678 263.744 470.678 265.206C470.678 266.668 471.948 267.853 473.516 267.853Z" fill="#BBCFF9"/>
<path d="M492.478 372.413H287.208C285.118 372.413 283.424 373.993 283.424 375.942V403.295C283.424 405.245 285.118 406.825 287.208 406.825H492.478C494.568 406.825 496.262 405.245 496.262 403.295V375.942C496.262 373.993 494.568 372.413 492.478 372.413Z" fill="white"/>
<path d="M447.144 382.736H294.704C293.176 382.736 291.938 383.891 291.938 385.317C291.938 386.742 293.176 387.897 294.704 387.897H447.144C448.672 387.897 449.91 386.742 449.91 385.317C449.91 383.891 448.672 382.736 447.144 382.736Z" fill="#BBCFF9"/>
<path d="M395.207 391.339H294.704C293.176 391.339 291.938 392.494 291.938 393.92C291.938 395.345 293.176 396.5 294.704 396.5H395.207C396.735 396.5 397.974 395.345 397.974 393.92C397.974 392.494 396.735 391.339 395.207 391.339Z" fill="#BBCFF9"/>
<path fill-rule="evenodd" clip-rule="evenodd" d="M473.514 395.795C477.171 395.795 480.136 393.029 480.136 389.618C480.136 386.207 477.171 383.442 473.514 383.442C469.857 383.442 466.893 386.207 466.893 389.618C466.893 393.029 469.857 395.795 473.514 395.795Z" fill="#BBCFF9"/>
<path fill-rule="evenodd" clip-rule="evenodd" d="M473.516 392.265C475.083 392.265 476.353 391.08 476.353 389.618C476.353 388.156 475.083 386.971 473.516 386.971C471.948 386.971 470.678 388.156 470.678 389.618C470.678 391.08 471.948 392.265 473.516 392.265Z" fill="#F6F9FF"/>
<path d="M492.478 330.942H287.208C285.118 330.942 283.424 332.522 283.424 334.472V361.825C283.424 363.774 285.118 365.354 287.208 365.354H492.478C494.568 365.354 496.262 363.774 496.262 361.825V334.472C496.262 332.522 494.568 330.942 492.478 330.942Z" fill="white"/>
<path d="M447.144 341.266H294.704C293.176 341.266 291.938 342.421 291.938 343.847C291.938 345.272 293.176 346.428 294.704 346.428H447.144C448.672 346.428 449.91 345.272 449.91 343.847C449.91 342.421 448.672 341.266 447.144 341.266Z" fill="#BBCFF9"/>
<path d="M395.207 349.869H294.704C293.176 349.869 291.938 351.024 291.938 352.45C291.938 353.875 293.176 355.031 294.704 355.031H395.207C396.735 355.031 397.974 353.875 397.974 352.45C397.974 351.024 396.735 349.869 395.207 349.869Z" fill="#BBCFF9"/>
<path fill-rule="evenodd" clip-rule="evenodd" d="M473.514 354.325C477.171 354.325 480.136 351.56 480.136 348.148C480.136 344.737 477.171 341.972 473.514 341.972C469.857 341.972 466.893 344.737 466.893 348.148C466.893 351.56 469.857 354.325 473.514 354.325Z" fill="#BBCFF9"/>
<path fill-rule="evenodd" clip-rule="evenodd" d="M473.516 350.795C475.083 350.795 476.353 349.61 476.353 348.148C476.353 346.686 475.083 345.501 473.516 345.501C471.948 345.501 470.678 346.686 470.678 348.148C470.678 349.61 471.948 350.795 473.516 350.795Z" fill="#F6F9FF"/>
<path d="M492.478 289.471H287.208C285.118 289.471 283.424 291.051 283.424 293V320.353C283.424 322.303 285.118 323.883 287.208 323.883H492.478C494.568 323.883 496.262 322.303 496.262 320.353V293C496.262 291.051 494.568 289.471 492.478 289.471Z" fill="white"/>
<path d="M447.144 299.795H294.704C293.176 299.795 291.938 300.95 291.938 302.376C291.938 303.801 293.176 304.956 294.704 304.956H447.144C448.672 304.956 449.91 303.801 449.91 302.376C449.91 300.95 448.672 299.795 447.144 299.795Z" fill="#BBCFF9"/>
<path d="M395.207 308.398H294.704C293.176 308.398 291.938 309.553 291.938 310.979C291.938 312.404 293.176 313.559 294.704 313.559H395.207C396.735 313.559 397.974 312.404 397.974 310.979C397.974 309.553 396.735 308.398 395.207 308.398Z" fill="#BBCFF9"/>
<path fill-rule="evenodd" clip-rule="evenodd" d="M473.514 312.853C477.171 312.853 480.136 310.088 480.136 306.677C480.136 303.266 477.171 300.5 473.514 300.5C469.857 300.5 466.893 303.266 466.893 306.677C466.893 310.088 469.857 312.853 473.514 312.853Z" fill="#BBCFF9"/>
<path fill-rule="evenodd" clip-rule="evenodd" d="M473.516 309.324C475.083 309.324 476.353 308.139 476.353 306.677C476.353 305.215 475.083 304.03 473.516 304.03C471.948 304.03 470.678 305.215 470.678 306.677C470.678 308.139 471.948 309.324 473.516 309.324Z" fill="#F6F9FF"/>
<path fill-rule="evenodd" clip-rule="evenodd" d="M663.681 269.508C659.95 267.148 654.988 266.529 650.523 266.529C633.084 266.529 616.691 272.565 602.531 281.558C594.771 286.485 587.83 292.76 581.702 299.293C578.164 303.065 575.01 307.144 572.777 311.682C571.27 314.745 570.236 317.936 569.535 321.227C568.681 325.238 568.002 329.331 567.695 333.409C567.574 335.015 566.574 343.536 569.437 343.68C569.42 343.89 569.416 344.091 569.434 344.27C563.218 353.335 559.378 363.959 555.817 374.031C552.719 382.796 549.958 391.635 548.166 400.703C545.806 412.64 544.257 424.758 543.52 436.868C543.362 439.47 543.253 442.073 543.159 444.679C543.08 446.902 542.999 449.124 542.921 451.348C542.834 453.839 542.364 456.706 542.788 459.182C543.158 461.339 545.159 461.012 545.248 458.866C545.355 456.275 545.337 453.678 545.459 451.085C545.621 447.643 545.787 444.201 545.968 440.76C547.225 416.855 551.94 393.301 560.644 370.721C564.167 361.583 568.202 352.934 573.39 344.481C577.95 337.049 583.437 329.853 589.044 323.153C594.494 316.64 600.161 310.279 606.838 304.762C612.258 300.285 618.219 296.384 624.347 292.755C632.129 288.145 639.897 283.648 648.328 280.11C652.71 278.271 657.175 276.624 661.592 274.859C662.386 274.542 663.238 274.234 664.002 273.866C666.551 272.64 665.712 270.793 663.681 269.508Z" fill="#BBCFF9"/>
<path fill-rule="evenodd" clip-rule="evenodd" d="M593.518 353C600.591 353 606.885 353.858 613.402 356.479C619.027 358.742 624.154 361.738 629.132 364.999C636.133 369.586 641.648 374.925 645.508 381.999C647.814 386.224 649.507 392.204 647.957 396.813C646.133 402.241 641.124 406.77 634.526 405.813C630.446 405.222 626.706 402.703 623.606 400.332C619.896 397.495 616.926 394.085 614.474 390.297C610.475 384.118 608.125 377.133 604.727 370.676C603.115 367.612 601.558 364.526 599.626 361.614C598.67 360.172 597.653 358.743 596.202 357.671C595.427 357.098 592.156 356.106 593.406 354.819C575.064 355.043 558.815 368.183 555.293 384.448C554.966 385.964 554.71 387.492 554.438 389.018C554.268 389.98 554.337 393.533 553.414 394.148C551.378 395.505 552.233 391.381 552.321 390.788C552.547 389.253 552.787 387.721 553.04 386.19C554.415 377.866 558.388 370.127 565.014 364.191C572.59 357.403 582.813 353 593.518 353Z" fill="#6D96F2"/>
<path fill-rule="evenodd" clip-rule="evenodd" d="M83.7699 332.473C101.427 360.105 121.993 386.86 134.343 417.07C133.845 413.509 133.318 409.952 132.726 406.4C129.593 387.57 125.698 368.877 121.606 350.207C119.522 340.702 117.317 331.23 115.056 321.76C113.841 316.673 112.639 311.583 111.398 306.502C111.097 305.27 110.839 303.12 110.464 300.941C122.466 337.68 134.04 374.446 142.507 412.067C143.617 417.004 144.563 421.933 145.338 426.853C145.603 425.731 145.864 424.608 146.148 423.489C149.575 410.071 154.713 396.76 160.831 384.212C163.756 378.213 167.115 372.345 171.071 366.876C173.538 363.467 179.356 359.416 181.605 355.924C169.3 376.979 164.855 403.322 157.75 426.212C156.016 431.798 154.27 437.374 152.56 442.96C163.276 422.915 179.902 406.445 203.018 399.309C175.037 416.553 158.254 446.754 146.944 477.641C146.907 478.007 146.863 478.374 146.824 478.741C150.153 472.849 154.344 467.52 160.025 463.788C172.187 455.798 185.676 458.125 197.472 464.979C188.214 459.49 171.483 464.489 163.693 470.068C158.117 474.062 153.351 479.419 149.212 484.647C148.221 485.9 146.867 487.362 145.438 488.921C143.435 501.055 140.169 513.105 135.545 525.059C136.309 521.627 135.757 516.14 135.969 513.582C135.992 513.306 136.011 513.028 136.033 512.753C135.331 515.37 134.651 517.957 133.998 520.503C135.298 515.645 136.003 510.573 136.555 505.45C136.697 503.248 136.836 501.046 136.981 498.844C136.935 494.665 136.75 490.47 136.438 486.267C135.333 482.184 134.093 478.331 133.071 475.127C129.384 463.568 123.978 452.494 117.325 442.163C111.255 432.735 103.989 424.195 95.6007 416.472C91.0786 412.309 86.3461 408.346 81.6803 404.327C79.9931 402.873 76.9773 399.301 74.3691 397.438C93.3642 407.207 112.915 417.774 126.773 433.513C125.148 427.694 123.383 421.957 121.517 416.335C112.047 387.812 100.091 358.253 83.7699 332.473Z" fill="#BBCFF9"/>
<path fill-rule="evenodd" clip-rule="evenodd" d="M102.744 488.883C102.744 520.558 105.433 546.236 141.528 546.236C177.622 546.236 180.312 520.558 180.312 488.883" fill="#9BB7F6"/>
<path d="M510.447 83.8819C510.447 82.42 509.177 81.2349 507.609 81.2349C506.042 81.2349 504.771 82.42 504.771 83.8819V100.647C504.771 102.109 506.042 103.294 507.609 103.294C509.177 103.294 510.447 102.109 510.447 100.647V83.8819Z" fill="#BBCFF9"/>
<path d="M523.691 69.7642C523.691 68.3023 522.421 67.1172 520.853 67.1172C519.286 67.1172 518.016 68.3023 518.016 69.7642V100.647C518.016 102.109 519.286 103.294 520.853 103.294C522.421 103.294 523.691 102.109 523.691 100.647V69.7642Z" fill="#BBCFF9"/>
<path d="M536.932 62.7058C536.932 61.2438 535.661 60.0587 534.094 60.0587C532.526 60.0587 531.256 61.2438 531.256 62.7058V100.647C531.256 102.109 532.526 103.294 534.094 103.294C535.661 103.294 536.932 102.109 536.932 100.647V62.7058Z" fill="#BBCFF9"/>
<path d="M550.176 69.7642C550.176 68.3023 548.905 67.1172 547.338 67.1172C545.771 67.1172 544.5 68.3023 544.5 69.7642V100.647C544.5 102.109 545.771 103.294 547.338 103.294C548.905 103.294 550.176 102.109 550.176 100.647V69.7642Z" fill="#BBCFF9"/>
<path d="M563.42 55.6469C563.42 54.185 562.149 52.9999 560.582 52.9999C559.015 52.9999 557.744 54.185 557.744 55.6469V100.647C557.744 102.109 559.015 103.294 560.582 103.294C562.149 103.294 563.42 102.109 563.42 100.647V55.6469Z" fill="#9BB7F6"/>
<path fill-rule="evenodd" clip-rule="evenodd" d="M39.3652 323.226C39.3652 313.397 47.8806 305.353 58.2842 305.353V323.226L45.355 336.235C41.6771 333.055 39.3652 328.389 39.3652 323.226Z" fill="#F6F9FF"/>
<path fill-rule="evenodd" clip-rule="evenodd" d="M57.7832 323H76.8887C76.8887 327.607 74.8741 331.924 71.6891 335.06C68.1861 338.491 63.1977 340.647 57.7832 340.647C52.7958 340.647 48.2304 338.787 44.7266 335.845L57.7832 323Z" fill="#BBCFF9"/>
<path fill-rule="evenodd" clip-rule="evenodd" d="M77.2031 323C77.2031 313.296 68.6877 305.353 58.2842 305.353V323H77.2031ZM48.8247 305.353L56.3923 321.235L39.3652 314.177C41.049 310.059 44.83 306.924 48.8247 305.353Z" fill="#9BB7F6"/>
<path fill-rule="evenodd" clip-rule="evenodd" d="M654.957 331.099C653.14 332.899 650.565 334.03 647.701 334.03C642.198 334.03 637.737 329.882 637.737 324.765C637.737 319.648 642.198 315.5 647.701 315.5V298.294C632.046 298.294 619.232 310.209 619.232 324.765C619.232 339.321 632.046 351.236 647.701 351.236C655.924 351.236 663.356 348.001 668.422 342.855L654.957 331.099Z" fill="#F6F9FF"/>
<path fill-rule="evenodd" clip-rule="evenodd" d="M647.609 298.294V315.5C653.095 315.5 657.542 319.648 657.542 324.765H675.988C675.988 310.209 663.215 298.294 647.609 298.294Z" fill="#BBCFF9"/>
<path fill-rule="evenodd" clip-rule="evenodd" d="M657.161 324.765C657.161 327.771 655.642 330.443 653.285 332.169L664.884 345.942C671.636 341.011 675.988 333.367 675.988 324.765H657.161Z" fill="#9BB7F6"/>
<path fill-rule="evenodd" clip-rule="evenodd" d="M474.553 87.8568C473.155 89.2368 471.174 90.1034 468.971 90.1034C464.738 90.1034 461.307 86.9233 461.307 83.0004C461.307 79.0776 464.738 75.8975 468.971 75.8975V62.7063C456.929 62.7063 447.072 71.8407 447.072 83.0004C447.072 94.1602 456.929 103.295 468.971 103.295C475.296 103.295 481.013 100.814 484.91 96.8692L474.553 87.8568Z" fill="#F6F9FF"/>
<path fill-rule="evenodd" clip-rule="evenodd" d="M468.828 62.7063V75.8975C473.034 75.8975 476.443 79.0776 476.443 83.0004H490.585C490.585 71.8407 480.792 62.7063 468.828 62.7063Z" fill="#BBCFF9"/>
<path fill-rule="evenodd" clip-rule="evenodd" d="M476.467 83.0005C476.467 85.2551 475.329 87.2593 473.561 88.5532L482.259 98.8828C487.324 95.1847 490.588 89.4523 490.588 83.0005H476.467Z" fill="#9BB7F6"/>
<path fill-rule="evenodd" clip-rule="evenodd" d="M130.186 103.283C130.182 103.292 130.178 103.301 130.172 103.313C130.178 103.303 130.186 103.266 130.186 103.283Z" fill="#9BB7F6"/>
<path fill-rule="evenodd" clip-rule="evenodd" d="M130.178 103.296C130.178 103.298 130.176 103.302 130.176 103.306C130.176 103.296 130.195 103.267 130.178 103.296Z" fill="#9BB7F6"/>
<path fill-rule="evenodd" clip-rule="evenodd" d="M130.244 103.146C130.231 103.182 130.214 103.215 130.199 103.25C130.206 103.233 130.214 103.219 130.222 103.201C130.025 103.66 130.15 103.362 130.244 103.146Z" fill="#9BB7F6"/>
<path fill-rule="evenodd" clip-rule="evenodd" d="M130.2 103.253C130.192 103.269 130.184 103.288 130.176 103.304C130.12 103.406 130.2 103.253 130.2 103.253Z" fill="#9BB7F6"/>
<path fill-rule="evenodd" clip-rule="evenodd" d="M130.18 103.299C130.18 103.296 130.18 103.296 130.182 103.293C130.18 103.296 130.18 103.296 130.18 103.299Z" fill="#9BB7F6"/>
<path fill-rule="evenodd" clip-rule="evenodd" d="M130.167 103.311C130.155 103.333 130.224 103.224 130.167 103.311V103.311Z" fill="#9BB7F6"/>
<path fill-rule="evenodd" clip-rule="evenodd" d="M130.18 103.299L130.185 103.293C130.182 103.296 130.182 103.299 130.18 103.299Z" fill="#9BB7F6"/>
<path d="M170.855 57.4122H88.5572C86.4675 57.4122 84.7734 58.9924 84.7734 60.9416V109.471C84.7734 111.42 86.4675 113 88.5572 113H170.855C172.944 113 174.638 111.42 174.638 109.471V60.9416C174.638 58.9924 172.944 57.4122 170.855 57.4122Z" fill="#BBCFF9"/>
<path fill-rule="evenodd" clip-rule="evenodd" d="M118.824 73.2946L92.3379 113H145.311L118.824 73.2946Z" fill="#BBCFF9"/>
<path fill-rule="evenodd" clip-rule="evenodd" d="M144.836 83.8828L121.66 113H168.012L144.836 83.8828Z" fill="#9BB7F6"/>
<path fill-rule="evenodd" clip-rule="evenodd" d="M154.771 83.8828C159.474 83.8828 163.285 80.3275 163.285 75.9417C163.285 71.5558 159.474 68.0005 154.771 68.0005C150.069 68.0005 146.258 71.5558 146.258 75.9417C146.258 80.3275 150.069 83.8828 154.771 83.8828Z" fill="white"/>
<path fill-rule="evenodd" clip-rule="evenodd" d="M581.391 480.047C581.395 480.057 581.399 480.066 581.405 480.077C581.399 480.068 581.391 480.03 581.391 480.047Z" fill="#9BB7F6"/>
<path fill-rule="evenodd" clip-rule="evenodd" d="M581.401 480.061C581.401 480.063 581.404 480.067 581.404 480.071C581.404 480.061 581.385 480.032 581.401 480.061Z" fill="#9BB7F6"/>
<path fill-rule="evenodd" clip-rule="evenodd" d="M581.332 479.911C581.345 479.946 581.362 479.98 581.377 480.015C581.37 479.998 581.362 479.983 581.355 479.966C581.551 480.425 581.427 480.126 581.332 479.911Z" fill="#9BB7F6"/>
<path fill-rule="evenodd" clip-rule="evenodd" d="M581.375 480.018C581.383 480.034 581.391 480.052 581.398 480.069C581.455 480.171 581.375 480.018 581.375 480.018Z" fill="#9BB7F6"/>
<path fill-rule="evenodd" clip-rule="evenodd" d="M581.397 480.063C581.397 480.06 581.397 480.06 581.395 480.057C581.397 480.06 581.397 480.06 581.397 480.063Z" fill="#9BB7F6"/>
<path fill-rule="evenodd" clip-rule="evenodd" d="M581.409 480.076C581.421 480.098 581.353 479.989 581.409 480.076V480.076Z" fill="#9BB7F6"/>
<path fill-rule="evenodd" clip-rule="evenodd" d="M581.4 480.063L581.395 480.057C581.397 480.06 581.397 480.063 581.4 480.063Z" fill="#9BB7F6"/>
<path d="M518.018 412.118H644.775C646.865 412.118 648.559 413.698 648.559 415.647V491.53C648.559 493.479 646.865 495.059 644.775 495.059H518.018C515.928 495.059 514.234 493.479 514.234 491.53V415.647C514.234 413.698 515.928 412.118 518.018 412.118Z" fill="#BBCFF9"/>
<path fill-rule="evenodd" clip-rule="evenodd" d="M598.682 435.942L637.517 495.059H559.846L598.682 435.942Z" fill="#BBCFF9"/>
<path fill-rule="evenodd" clip-rule="evenodd" d="M558.64 451.777L592.973 495.059H524.307L558.64 451.777Z" fill="#9BB7F6"/>
<path fill-rule="evenodd" clip-rule="evenodd" d="M544.032 451.824C536.979 451.824 531.262 446.491 531.262 439.912C531.262 433.333 536.979 428 544.032 428C551.085 428 556.802 433.333 556.802 439.912C556.802 446.491 551.085 451.824 544.032 451.824Z" fill="white"/>
</svg>
