<svg width="700" height="600" viewBox="0 0 700 600" fill="none" xmlns="http://www.w3.org/2000/svg">
<path fill-rule="evenodd" clip-rule="evenodd" d="M50.9061 458.714C66.331 384.619 222.412 426.83 324.737 403.923C427.062 381.017 548.122 274.337 628.241 326.594C708.36 378.851 623.114 505.171 439.356 533.677C255.596 562.184 35.4812 532.807 50.9061 458.714Z" fill="#F6F9FF"/>
<g opacity="0.5">
<path fill-rule="evenodd" clip-rule="evenodd" d="M91.6727 112.652C90.1847 114.038 90.7627 118.963 90.7314 120.786C90.6836 123.622 90.8729 126.434 91.1271 129.261C91.2976 131.155 92.258 149.219 94.9313 147.831C96.4382 147.05 95.4932 141.824 95.4904 140.171C95.4847 136.497 95.3201 132.831 95.0581 129.164C94.8141 125.761 94.6608 122.397 94.8008 118.986C94.8349 118.154 95.6701 108.917 91.6727 112.652Z" fill="#6D96F2"/>
<path fill-rule="evenodd" clip-rule="evenodd" d="M156.468 110.426C143.685 110.52 130.907 111.109 118.13 111.469C111.982 111.643 105.838 111.863 99.6968 112.181C97.6034 112.289 93.1151 111.664 91.3715 112.704C87.501 115.013 93.7431 115.553 95.4069 115.497C120.693 114.642 145.987 113.515 171.294 113.462C183.708 113.436 196.116 113.766 208.532 113.692C213.277 113.664 218.532 111.756 219.731 116.909C221.083 122.723 219.529 129.197 219.106 135.04C218.824 138.94 218.925 142.76 219.113 146.657C219.234 149.153 218.919 151.966 219.393 154.416C219.848 156.776 221.666 158.19 223.333 155.548C224.329 153.968 223.833 150.069 223.899 148.24C223.988 145.776 223.905 143.313 223.905 140.849C223.904 134.834 224.814 128.843 224.694 122.829C224.617 118.951 224.396 111.921 219.153 110.99C213.379 109.964 206.281 110.995 200.372 110.932C185.731 110.776 171.114 110.319 156.468 110.426Z" fill="#6D96F2"/>
<path fill-rule="evenodd" clip-rule="evenodd" d="M121.249 148.047C116.428 148.047 111.608 148.074 106.788 148.148C102.654 148.212 96.1555 147.409 92.3078 148.788C89.674 149.732 88.9744 152.476 92.3078 153.206C95.9436 154.003 101.423 152.7 105.226 152.637C124.3 152.323 143.558 151.913 162.605 153.039C180.453 154.093 198.645 155.116 216.519 154.003C218.023 153.909 225.692 153.624 222.192 150.943C220.151 149.378 211.875 150.406 209.222 150.331C199.862 150.068 190.494 150.01 181.137 149.679C171.902 149.352 162.709 148.384 153.471 148.144C142.74 147.865 131.984 148.047 121.249 148.047Z" fill="#6D96F2"/>
<path fill-rule="evenodd" clip-rule="evenodd" d="M116.426 122.474C123.939 122.781 131.372 132.943 123.771 137.855C116.639 142.464 103.275 137.413 107.24 128.476C106.67 129.768 107.961 127.072 107.977 127.055C108.731 126.226 110.085 125.308 111.015 124.656C112.078 123.907 113.186 123.085 114.468 122.71C115.31 122.464 115.178 123.389 116.426 122.474ZM112.767 118.809C109.251 120.089 107.647 121.534 105.23 124.148C103.559 125.957 101.427 126.909 101.445 129.353C101.45 129.894 102.195 130.489 102.324 131.01C102.502 131.73 102.296 132.653 102.437 133.418C103.892 141.315 113.992 143.977 121.385 142.486C127.825 141.187 132.642 135.421 131.15 129.15C129.648 122.838 119.613 116.311 112.767 118.809Z" fill="#6D96F2"/>
<path fill-rule="evenodd" clip-rule="evenodd" d="M109.631 129.832C109.631 132.672 114.442 132.672 114.442 129.832C114.442 127.024 109.631 126.903 109.631 129.832Z" fill="#6D96F2"/>
<path fill-rule="evenodd" clip-rule="evenodd" d="M115.656 129.257C115.656 131.514 119.478 131.514 119.478 129.257C119.478 127.025 115.656 126.93 115.656 129.257Z" fill="#6D96F2"/>
<path fill-rule="evenodd" clip-rule="evenodd" d="M116.835 133.912C115.611 134.351 114.058 133.441 113.053 134.04C111.274 135.103 113.058 136.064 114.012 136.491C118.306 138.414 119.07 133.113 116.835 133.912Z" fill="#6D96F2"/>
<path fill-rule="evenodd" clip-rule="evenodd" d="M182.431 127.617C182.302 127.667 181.847 127.847 182.431 127.617V127.617ZM163.727 125.067C160.513 125.743 157.799 128.544 154.306 128.169C151.63 127.882 149.818 125.472 147.176 125.123C143.796 124.675 134.597 131.866 139.433 133.1C142.255 133.82 143.82 129.011 146.313 128.755C148.285 128.553 150.967 130.809 153.01 131.13C156.822 131.729 159.441 129.77 162.787 128.507C166.424 127.135 168.493 128.371 171.655 129.897C174.151 131.1 176.503 131.884 179.359 131.388C182.04 130.922 185.407 128.35 188.106 128.614C190.749 128.872 192.635 131.445 195.354 131.684C196.475 131.782 198.143 132.139 197.955 130.525C197.804 129.234 196.259 129.453 195.292 128.982C192.806 127.775 190.481 125.637 187.482 125.819C185.225 125.957 183.17 127.436 181.091 128.143C174.28 130.46 170.451 123.66 163.727 125.067Z" fill="#6D96F2"/>
<path fill-rule="evenodd" clip-rule="evenodd" d="M169.415 165.981C156.276 166.094 143.094 166.276 129.993 167.258C126.887 167.491 95.172 170.284 95.2325 170.485C95.3432 170.857 99.423 171.426 99.3975 171.513C99.1222 170.878 98.4941 170.614 97.5122 170.724C127.591 170.724 157.574 168.212 187.693 168.664C195.261 168.777 202.857 168.73 210.419 168.953C212.307 169.008 216.985 170.27 218.468 169.475C222.359 167.388 215.29 167.147 214.119 167.06C199.297 165.954 184.277 165.842 169.415 165.981Z" fill="#5182EF"/>
<path fill-rule="evenodd" clip-rule="evenodd" d="M91.3376 171.935C89.3735 173.772 91.1821 180.38 91.2595 182.863C91.3714 186.454 91.2791 190.07 91.6169 193.651C92.0025 197.742 92.6007 202.1 93.7514 206.069C94.3851 208.256 96.6096 211.73 97.4912 207.758C98.1203 204.92 97.1649 201.155 96.8319 198.265C96.3873 194.398 96.2795 190.581 96.2634 186.695C96.2483 183.309 96.1783 179.908 95.8803 176.533C95.7261 174.781 94.7811 168.74 91.3376 171.935Z" fill="#5182EF"/>
<path fill-rule="evenodd" clip-rule="evenodd" d="M140.755 205.587C131.432 205.736 122.088 205.941 112.781 206.484C108.966 206.707 105.154 207.039 101.353 207.415C100.579 207.492 91.9937 207.816 95.8299 210.771C97.561 212.106 104.683 210.261 107.035 210.069C110.992 209.745 114.947 209.535 118.914 209.379C128.107 209.015 137.329 208.693 146.531 208.842C163.337 209.114 180.035 209.235 196.846 208.886C199.234 208.836 217.946 209.302 218.582 206.985C219.093 205.117 212.402 205.974 211.181 206.008C206.706 206.132 202.23 206.104 197.752 206.082C178.785 205.992 159.708 205.288 140.755 205.587Z" fill="#5182EF"/>
<path fill-rule="evenodd" clip-rule="evenodd" d="M215.412 168.836C215.708 176.578 217.121 184.312 217.573 192.079C217.779 195.628 218.022 199.175 218.209 202.727C218.269 203.872 217.775 206.633 219.227 207.292C221.219 208.196 221.487 206.374 221.86 205.143C222.938 201.584 222.209 196.962 222.111 193.307C222.016 189.768 222.01 186.222 221.73 182.689C221.443 179.079 220.664 175.538 220.303 171.942C220.15 170.42 220.684 167.889 218.953 166.945C217.457 166.129 215.347 167.157 215.412 168.836Z" fill="#5182EF"/>
<path fill-rule="evenodd" clip-rule="evenodd" d="M123.774 181.715C123.809 181.741 123.844 181.767 123.879 181.792C123.844 181.767 123.809 181.741 123.774 181.715ZM115.85 179.421C118.805 180.208 121.231 179.915 124.054 181.921C126.393 183.584 128.793 186.019 129.569 188.708C131.361 194.922 125.283 198.327 119.586 198.394C113.75 198.462 105.11 197.2 105.409 190.222C105.639 184.861 109.835 179.629 115.85 179.421ZM116.059 175.909C108.397 176.265 102.218 184.291 102.284 191.045C102.364 199.233 112.309 201.342 119.374 201.399C127.348 201.462 135.298 196.327 133.162 187.963C131.45 181.262 123.426 175.552 116.059 175.909Z" fill="#5182EF"/>
<path fill-rule="evenodd" clip-rule="evenodd" d="M108.355 186.902C108.355 189.186 112.222 189.186 112.222 186.902C112.222 184.646 108.355 184.549 108.355 186.902Z" fill="#5182EF"/>
<path fill-rule="evenodd" clip-rule="evenodd" d="M116.467 185.901C116.467 188.202 120.364 188.202 120.364 185.901C120.364 183.626 116.467 183.528 116.467 185.901Z" fill="#5182EF"/>
<path fill-rule="evenodd" clip-rule="evenodd" d="M111.99 191.108C109.473 193.451 118.315 197.56 120.4 194.3C122.113 191.621 118.384 192.51 117.062 192.365C115.625 192.207 113.163 190.016 111.99 191.108Z" fill="#5182EF"/>
<path fill-rule="evenodd" clip-rule="evenodd" d="M182.689 185.948C182.446 186.043 182.446 186.043 182.689 185.948V185.948ZM149.484 182.132C146.936 182.578 138.572 185.21 138.459 188.03C138.252 193.156 146.444 187.906 148.222 187.231C153.054 185.4 155.593 189.136 160.447 189.333C164.663 189.504 168.539 186.139 172.51 186.537C176.671 186.954 178.672 191.083 183.476 188.891C186.017 187.732 185.953 185.943 183.1 185.775C181.377 185.673 180.191 186.338 178.394 185.646C175.583 184.564 174.45 182.803 171.086 183.083C168.548 183.294 166.254 184.629 163.775 185.146C158.102 186.328 154.954 181.176 149.484 182.132Z" fill="#5182EF"/>
<path fill-rule="evenodd" clip-rule="evenodd" d="M202.264 188.174C202.088 188.243 202.088 188.243 202.264 188.174V188.174ZM202.907 186.039C202.935 186.051 203.127 186.3 202.907 186.039V186.039ZM199.985 184.41C199.876 184.488 199.876 184.488 199.985 184.41V184.41ZM200.049 184.389C200.615 184.706 205.17 187.611 201.862 188.295C200.182 188.642 198.793 185.49 200.049 184.389ZM198.541 181.171C191.245 184.275 199.096 195.379 204.822 190.867C207.231 188.969 207.548 185.131 205.204 183.153C203.8 181.968 200.447 180.359 198.541 181.171Z" fill="#5182EF"/>
<path fill-rule="evenodd" clip-rule="evenodd" d="M130.05 224.93C120.945 224.933 111.761 224.755 102.669 225.258C101.139 225.342 95.3102 225.071 94.5217 226.563C93.0794 229.292 99.077 227.937 99.9482 227.855C118.052 226.165 136.962 227.138 155.125 227.62C169.98 228.013 184.755 228.258 199.592 228.972C203.492 229.16 207.389 229.367 211.286 229.587C212.556 229.658 215.754 230.443 216.021 228.551C216.269 226.799 212.281 227.195 211.285 227.146C203.363 226.757 195.446 226.349 187.526 225.934C168.463 224.931 149.143 224.927 130.05 224.93Z" fill="#6D96F2"/>
<path fill-rule="evenodd" clip-rule="evenodd" d="M94.2296 227.965C92.5291 229.542 93.3263 235.563 93.2788 237.553C93.1958 241.033 93.0197 244.512 92.9406 247.991C92.8585 251.628 92.9727 255.282 93.2033 258.913C93.2999 260.438 94.6416 267.808 96.7539 263.59C97.698 261.705 96.7312 256.456 96.7454 254.321C96.7719 250.435 96.9961 246.565 97.2032 242.683C97.382 239.347 97.3886 236.008 97.5447 232.671C97.5939 231.606 97.7292 224.691 94.2296 227.965Z" fill="#6D96F2"/>
<path fill-rule="evenodd" clip-rule="evenodd" d="M217.552 259.054C208.691 259.901 199.689 259.502 190.795 260.127C183.13 260.666 175.472 260.887 167.787 261.039C150.385 261.381 132.953 261.715 115.602 263.068C111.648 263.376 107.697 263.703 103.733 263.868C101.75 263.95 93.429 263.109 92.8093 265.059C91.7539 268.38 100.652 267.065 102.571 267.013C106.792 266.9 110.993 266.615 115.202 266.316C132.895 265.059 150.654 264.683 168.385 264.16C178.027 263.876 187.602 263.218 197.224 262.62C202.02 262.322 206.828 262.312 211.623 262.022C212.878 261.947 217.319 262.096 218.222 261.154C218.841 260.507 218.998 258.929 217.552 259.054Z" fill="#6D96F2"/>
<path fill-rule="evenodd" clip-rule="evenodd" d="M214.549 228.529C214.853 236.456 215.333 244.375 215.62 252.3C215.706 254.683 214.934 258.955 216.357 261.056C218.645 264.437 220.431 260.86 220.85 258.754C222.173 252.107 220.751 244.765 220.381 238.076C220.241 235.526 221.09 229.847 219.768 227.563C218.509 225.388 214.437 225.606 214.549 228.529Z" fill="#6D96F2"/>
<path fill-rule="evenodd" clip-rule="evenodd" d="M199.671 239.818C203.065 240.676 203.561 247.559 199.731 248.069C194.03 248.827 196.523 241.237 199.671 239.818ZM198.72 237.08C197.685 237.05 195.294 236.784 194.656 237.57C194.122 238.228 194.662 239.616 194.599 240.243C194.375 242.482 192.423 243.776 193.296 246.42C193.888 248.215 195.474 249.901 197.408 250.524C207.61 253.813 207.486 235.426 198.72 237.08Z" fill="#6D96F2"/>
<path fill-rule="evenodd" clip-rule="evenodd" d="M106.61 238.316C106.584 238.346 106.558 238.376 106.534 238.407C106.558 238.376 106.584 238.346 106.61 238.316ZM114.623 234.339C114.583 234.02 114.542 233.702 114.503 233.383C120.034 235.819 124.436 240.349 122.599 246.431C121.198 251.07 116.134 252.716 111.417 251.57C106.195 250.302 103.7 246.287 105.107 241.357C105.757 239.082 107.752 236.026 110.33 235.294C111.53 234.954 114.185 235.822 114.623 234.339ZM111.388 232.413C109.988 232.501 108.626 233.044 107.485 233.788C108.553 232.945 109.978 232.443 111.388 232.413ZM111.428 229.416C107.972 229.515 105.706 231.467 103.656 233.81C103.013 234.546 100.837 236.497 101.107 237.488C101.32 238.272 101.877 239.418 103.051 238.544C96.9042 249.971 112.783 259.717 122.476 251.771C131.523 244.355 122.547 229.069 111.428 229.416Z" fill="#6D96F2"/>
<path fill-rule="evenodd" clip-rule="evenodd" d="M108.289 240.03C108.289 241.552 110.821 241.552 110.821 240.03C110.821 238.509 108.289 238.509 108.289 240.03Z" fill="#6D96F2"/>
<path fill-rule="evenodd" clip-rule="evenodd" d="M112.615 240.29C112.615 241.836 115.188 241.836 115.188 240.29C115.188 238.744 112.615 238.744 112.615 240.29Z" fill="#6D96F2"/>
<path fill-rule="evenodd" clip-rule="evenodd" d="M114.574 245.722C113.371 245.813 108.964 245.431 108.191 246.414C106.898 248.058 108.961 248.115 109.974 248.293C110.887 248.453 114.854 248.363 115.413 247.606C115.907 246.938 115.791 245.625 114.574 245.722Z" fill="#6D96F2"/>
<path fill-rule="evenodd" clip-rule="evenodd" d="M167.661 241.459C167.454 241.538 167.454 241.538 167.661 241.459V241.459ZM151.012 240.323C148.299 240.51 146.002 241.965 143.408 242.545C140.64 243.165 139.442 242.025 136.925 241.279C134.306 240.502 132.444 240.809 130.339 242.477C129.147 243.422 126.531 245.598 127.276 247.276C128.982 251.12 132.846 244.867 134.663 244.576C137.497 244.123 140.019 246.435 143.288 245.773C146.25 245.175 148.878 243.277 151.971 243.257C154.558 243.24 156.996 244.56 159.55 244.88C163.449 245.368 166.009 244.076 169.613 243.118C172.738 242.287 174.929 243.382 177.869 244.305C179.212 244.725 183.695 246.257 182.87 243.48C182.636 242.695 176.729 241.292 175.813 241.022C172.584 240.071 170.539 240.442 167.462 241.536C164.896 242.449 162.738 242.894 159.987 242.391C156.956 241.837 154.199 240.097 151.012 240.323Z" fill="#6D96F2"/>
</g>
<g opacity="0.5">
<path fill-rule="evenodd" clip-rule="evenodd" d="M275.819 112.952C276.257 104.166 276.859 95.394 277.176 86.6034C277.334 82.2475 277.457 77.8912 277.576 73.5344C277.601 72.5643 277.629 71.5946 277.652 70.6245C277.729 67.3286 277.31 67.059 280.866 66.7665C296.728 65.4604 312.654 65.0275 328.536 63.8459C347.69 62.4208 366.944 61.4367 386.152 60.9956C394.688 60.7993 403.26 60.3925 411.797 60.6401C413.688 60.6949 417.401 60.2358 418.146 61.6073C418.468 62.1998 417.792 64.2387 417.707 64.9223C417.439 67.0582 417.19 69.2014 417.036 71.3478C416.127 84.0073 416.669 96.9858 419.296 109.453C413.132 106.211 405.343 103.422 398.157 103.975C390.832 104.54 385.352 108.487 379.488 112.121C376.172 114.177 375.054 114.717 371.746 112.726C368.894 111.01 366.196 109.048 363.505 107.122C359.354 104.151 355.436 100.929 351.41 97.8135C344.008 92.0852 333.808 83.9316 323.585 86.3322C316.28 88.0474 309.535 91.7923 303.196 95.4567C293.776 100.902 285.25 107.57 275.819 112.952ZM402.769 56.7387C366.375 56.7387 330.254 60.0296 293.963 61.8098C290.173 61.9957 286.396 62.2694 282.619 62.6093C280.102 62.836 273.947 61.8843 272.297 63.8904C271.196 65.2289 272.142 65.4297 272.297 66.7014C272.492 68.304 272.377 70.203 272.327 71.8994C272.206 75.987 272.078 80.074 271.979 84.162C271.603 99.6117 271.367 115.059 272.038 130.505C272.185 133.873 273.501 138.538 272.781 141.811C272.259 144.181 270.517 145.623 274.535 146.061C278.489 146.492 283.324 145.395 287.282 145.044C291.263 144.691 295.242 144.307 299.227 144.001C316.554 142.67 334.05 142.871 351.423 142.428C368.951 141.981 386.487 141.953 404.022 141.943C411.359 141.94 419.743 142.325 426.902 140.442C429.42 139.778 429.828 139.452 429.206 137.121C429.089 136.678 428.328 136.515 428.105 135.716C427.801 134.628 427.957 133.305 427.887 132.173C427.655 128.474 427.573 124.768 427.387 121.068C427.075 114.883 425.932 108.882 425.087 102.76C424.111 95.6905 424.161 88.5117 424.141 81.3956C424.13 77.4485 424.239 73.5143 424.579 69.5782C424.797 67.0537 426.13 63.2845 425.454 60.9301C425.117 59.7579 424.566 58.8283 423.258 58.3238C422.429 58.0038 421.732 58.2542 420.913 58.1732C419.941 58.077 419.335 57.9498 418.172 57.7039C413.184 56.6495 407.85 56.7387 402.769 56.7387Z" fill="#5182EF"/>
<path fill-rule="evenodd" clip-rule="evenodd" d="M382.624 73.5461C382.621 76.0063 382.21 79.6369 383.426 81.9536C384.968 84.8922 386.898 83.9735 387.409 81.2121C387.702 79.6299 387.694 74.9474 387.149 73.5461C386.378 71.5625 382.624 70.2114 382.624 73.5461Z" fill="#6D96F2"/>
<path fill-rule="evenodd" clip-rule="evenodd" d="M387.054 74.4962C384.577 74.5776 377.365 74.0232 375.69 75.8804C372.816 79.0657 377.82 79.63 379.968 79.4516C382.454 79.2454 390.135 79.7486 391.8 77.8894C394.585 74.7789 389.001 74.4299 387.054 74.4962Z" fill="#6D96F2"/>
<path fill-rule="evenodd" clip-rule="evenodd" d="M290.963 156.688C301.849 158.451 298.463 173.934 288.162 170.347C284.572 169.098 279.285 165.487 281.268 161.233C282.75 158.055 287.58 156.385 290.963 156.688ZM286.456 151.874C279.376 152.986 274.536 160.132 276.964 166.366C279.305 172.379 288.187 176.783 294.738 174.622C300.99 172.558 304.11 164.798 302.002 159.121C299.799 153.19 292.623 150.905 286.456 151.874Z" fill="#6D96F2"/>
<path fill-rule="evenodd" clip-rule="evenodd" d="M352.667 158.499C349.957 158.709 347.615 160.479 344.888 160.792C342.337 161.085 340.224 160.271 337.837 159.621C334.95 158.834 332.304 158.489 329.354 159.187C327.101 159.721 324.878 161.151 322.537 161.324C317.93 161.664 312.576 156.761 308.98 162.306C307.255 164.964 309.759 166.677 312.338 165.437C315.026 164.144 313.706 163.682 317.042 164.445C319.824 165.081 322.073 165.427 324.86 164.535C327.385 163.728 329.601 162.25 332.345 162.083C335.033 161.921 337.37 163.063 339.938 163.555C343.097 164.161 345.891 163.702 348.884 162.779C351.731 161.901 352.867 161.421 355.74 162.204C357.558 162.7 361.532 164.277 363.301 163.006C366.363 160.81 362.265 160.489 360.651 160.176C358.052 159.674 355.364 158.293 352.667 158.499Z" fill="#6D96F2"/>
<path fill-rule="evenodd" clip-rule="evenodd" d="M414.692 157.023C414.714 157.039 414.736 157.054 414.757 157.069C414.736 157.054 414.713 157.039 414.692 157.023ZM412.031 156.504C415.988 156.741 420.267 163.465 415.024 163.704C411.334 163.872 407.205 157.984 412.031 156.504ZM411.476 151.002C398.965 154.261 404.684 170.715 416.752 168.814C422.234 167.951 424.092 162.027 422.28 157.642C421.501 155.759 419.984 154.171 418.17 153.087C416.833 152.287 413.006 150.605 411.476 151.002Z" fill="#6D96F2"/>
<path fill-rule="evenodd" clip-rule="evenodd" d="M353.106 185.352C364.116 185 375.127 184.647 386.148 184.552C392.121 184.501 398.061 184.598 404.025 184.917C406.67 185.058 409.314 185.195 411.961 185.299C412.418 185.318 413.049 185.288 413.745 185.257C415.383 185.182 417.384 185.09 418.325 185.554C423.59 188.152 412.863 188.437 411.56 188.416C408.64 188.371 405.722 188.236 402.805 188.101C400.256 187.984 397.706 187.867 395.154 187.808C378.783 187.433 362.311 188.119 345.912 188.802C342.153 188.958 338.397 189.115 334.648 189.258C330.666 189.411 326.687 189.51 322.706 189.608C317.017 189.749 311.328 189.89 305.639 190.188C303.467 190.302 301.295 190.422 299.123 190.543C296.012 190.716 292.9 190.889 289.787 191.041C287.35 191.161 284.913 191.278 282.472 191.335C282.033 191.345 281.461 191.402 280.836 191.464C279.323 191.615 277.503 191.796 276.519 191.421C275.337 190.97 274.38 190.339 275.03 189.001C275.58 187.871 277.579 188.007 279.037 188.106C279.435 188.133 279.792 188.157 280.069 188.152C284.726 188.068 289.374 187.823 294.023 187.558C295.724 187.461 297.424 187.361 299.124 187.261H299.125C307.976 186.743 316.819 186.224 325.692 186.083C334.833 185.937 343.969 185.644 353.106 185.352ZM410.609 252.943L413.774 252.908C415.409 253.04 416.14 254.641 415.09 255.871C414.287 256.813 411.195 256.855 409.179 256.883C408.62 256.891 408.144 256.898 407.822 256.921C402.56 257.316 397.308 257.493 392.03 257.541C380.915 257.639 369.842 258.083 358.745 258.674C347.386 259.278 336.017 259.505 324.648 259.733H324.647C316.283 259.899 307.918 260.067 299.557 260.384C294.769 260.566 289.979 260.701 285.189 260.819C284.674 260.831 283.99 260.9 283.215 260.978C280.189 261.283 275.792 261.726 274.796 259.484C273.911 257.495 275.14 256.579 276.937 256.163C276.654 254.985 276.707 253.329 276.736 252.381C276.745 252.096 276.752 251.874 276.747 251.749C276.703 250.561 276.671 249.371 276.64 248.182C276.604 246.834 276.569 245.487 276.513 244.14C276.462 242.918 276.415 241.694 276.368 240.469C276.183 235.641 275.997 230.8 275.598 225.991C275.415 223.771 275.123 221.578 274.832 219.388C274.367 215.891 273.903 212.403 273.882 208.834C273.878 208.192 273.843 207.389 273.805 206.483C273.606 201.848 273.292 194.521 276.376 192.29C281.814 189.33 280.738 197.873 280.259 201.686C280.18 202.316 280.117 202.816 280.102 203.116C279.79 209.455 280.213 215.517 280.897 221.817C281.36 226.072 281.089 230.312 280.82 234.56C280.723 236.077 280.627 237.594 280.563 239.115C280.532 239.866 280.504 240.618 280.476 241.369C280.39 243.682 280.305 245.993 280.119 248.303C280.098 248.552 280.091 249.031 280.083 249.644C280.058 251.371 280.019 254.157 279.623 255.848C280.467 255.814 281.285 255.823 281.962 255.83C282.393 255.834 282.766 255.838 283.052 255.83C284.35 255.793 285.649 255.758 286.947 255.722C290.781 255.617 294.616 255.512 298.45 255.378C307.501 255.061 316.555 254.955 325.608 254.849C336.301 254.723 346.995 254.598 357.683 254.124C375.299 253.343 392.975 253.143 410.609 252.943ZM413.876 190.959C413.867 201.82 414.767 212.383 415.819 223.201C416.47 229.891 416.991 236.608 417.407 243.316C417.426 243.626 417.423 244.144 417.419 244.793V244.794C417.398 248.504 417.353 256.496 421.283 254.584C424.251 253.141 423.11 244.77 422.479 240.137C422.341 239.122 422.226 238.285 422.186 237.742C422.1 236.583 422.014 235.425 421.929 234.267C421.534 228.89 421.139 223.516 420.619 218.146L420.509 217.013C419.908 210.81 419.306 204.61 419.199 198.377C419.191 197.862 419.244 197.145 419.303 196.333C419.477 193.987 419.709 190.862 418.664 189.616C417.194 187.863 413.879 188.381 413.876 190.959Z" fill="#5182EF"/>
<path fill-rule="evenodd" clip-rule="evenodd" d="M353.608 217.584C367.67 211.65 381.897 205.646 396.521 201.371C397.578 201.062 398.246 202.079 398.007 202.932C397.759 203.811 395.472 204.561 393.954 205.058C393.5 205.208 393.115 205.334 392.875 205.433C390.833 206.285 388.785 207.125 386.737 207.966C384.64 208.826 382.543 209.687 380.45 210.559C376.102 212.371 371.748 214.177 367.395 215.981C362.733 217.913 358.071 219.846 353.413 221.789C353.237 221.862 353.06 221.936 352.884 222.009C359.216 224.108 365.513 226.301 371.781 228.561C373.923 229.332 376.058 230.121 378.193 230.909C379.401 231.354 380.609 231.8 381.819 232.243C382.212 232.387 382.898 232.583 383.722 232.817C386.407 233.581 390.559 234.765 390.867 235.959C391.366 237.906 385.632 236.023 383.469 235.313C383.182 235.218 382.958 235.145 382.82 235.103C379.627 234.151 376.473 233.092 373.322 232.032L372.884 231.885C370.386 231.045 367.892 230.197 365.397 229.348C360.524 227.691 355.651 226.033 350.751 224.443C350.059 224.218 349.365 223.994 348.672 223.77C340.809 227.065 332.962 230.391 325.141 233.769C320.946 235.582 316.775 237.435 312.615 239.314C311.707 239.724 310.583 240.358 309.361 241.047C306.435 242.697 302.95 244.662 300.552 244.613C299.267 244.586 298.401 244.329 298.266 242.876C298.128 241.376 300.191 240.59 301.675 240.024C302.029 239.888 302.351 239.766 302.602 239.649C307.048 237.575 311.521 235.553 316.008 233.558C324.918 229.593 333.912 225.787 342.938 222.056C342.99 222.035 343.042 222.014 343.094 221.992C338.088 220.412 333.069 218.869 328.037 217.359C327.535 217.208 326.506 216.943 325.152 216.593C318.757 214.941 305.133 211.421 305.739 209.365C306.435 207.014 319.207 211.312 324.862 213.215C325.922 213.571 326.732 213.844 327.165 213.973C333.926 215.982 340.667 218.048 347.374 220.209C349.449 219.34 351.526 218.463 353.608 217.584Z" fill="#6D96F2"/>
<path fill-rule="evenodd" clip-rule="evenodd" d="M293.353 269.235C297.469 269.908 300.373 273.592 299.922 277.449C299.311 282.661 293.742 285.05 288.597 284.37C282.76 283.598 281.532 278.995 284.36 274.567C284.987 273.587 285.706 272.413 286.845 271.897C287.628 271.542 288.625 271.856 289.255 271.57C291.464 270.567 290.135 268.969 293.353 269.235ZM291.479 265.831C286.456 266.429 277.175 271.851 277.644 277.276C278.052 277.905 278.665 278.162 279.483 278.048C279.286 279.223 279.351 280.385 279.676 281.536C280.153 283.029 281.105 284.253 282.38 285.224C285.007 287.227 288.598 287.719 291.869 287.367C297.977 286.713 302.79 282.819 303.134 276.893C303.468 271.109 298.056 265.056 291.479 265.831Z" fill="#6D96F2"/>
<path fill-rule="evenodd" clip-rule="evenodd" d="M315.806 272.89C313.552 274.003 309.987 275.715 308.665 277.831C307.269 280.066 308.715 282.511 311.656 281.454C313.992 280.615 315.477 277.948 317.969 277.093C320.167 276.339 321.053 276.724 323.377 277.475C325.771 278.248 327.863 278.997 330.451 278.806C333.705 278.568 336.522 276.808 339.706 276.409C342.386 276.072 344.597 277.044 347.164 277.431C350.143 277.88 352.091 276.829 354.878 276.281C356.773 275.908 360.114 277.424 361.497 276.857C364.606 275.582 361.317 274.024 359.596 273.508C356.697 272.641 354.913 273.406 352.155 274.126C349.161 274.907 347.868 274.319 345.006 273.602C339.216 272.151 334.742 275.66 329.254 275.023C324.173 274.431 321.132 270.259 315.806 272.89Z" fill="#6D96F2"/>
<path fill-rule="evenodd" clip-rule="evenodd" d="M410.483 270.296C416.057 275.17 409.796 282.105 403.651 278.209C401.488 276.839 401.453 274.637 403.136 272.666C404.676 270.864 408.058 270.162 410.483 270.296ZM408.417 266.357C403.211 267.302 398.3 269.531 397.828 275.137C397.368 280.606 403.382 283.146 408.434 282.788C419.778 281.981 418.958 264.457 408.417 266.357Z" fill="#6D96F2"/>
</g>
<path opacity="0.5" fill-rule="evenodd" clip-rule="evenodd" d="M531.755 84.7111C527.59 84.7862 517.305 86.1993 515.777 90.7952C514.616 94.2831 518.064 93.5172 519.911 92.2484C522.411 90.5314 524.603 89.5043 527.701 88.9819C539.5 86.9913 550.837 94.1305 562.523 95.0331C566.95 95.3755 572.292 95.5978 576.519 94.2611C579.529 93.3081 579.921 91.2319 576.486 90.9161C573.568 90.6469 570.339 91.494 567.347 91.4702C554.965 91.3714 543.959 84.4939 531.755 84.7111Z" fill="#BBCFF9"/>
<g opacity="0.5">
<path fill-rule="evenodd" clip-rule="evenodd" d="M94.1346 302.966C86.1658 303.049 78.2008 303.323 70.2477 303.793C62.6846 304.24 54.4784 303.901 47.0384 305.268C44.9259 305.656 42.072 307.452 44.8811 309.428C46.8556 310.816 54.0793 309.219 56.4371 309.084C65.1199 308.586 73.8072 307.99 82.5023 307.703C90.734 307.432 98.9646 307.336 107.201 307.26C108.458 307.248 110.545 306.872 111.797 307.213C113.597 307.702 113.17 307.835 113.304 309.965C113.548 313.824 113.481 317.698 113.399 321.561C113.319 325.299 113.171 329.037 113.186 332.777C113.195 335.446 112.282 340.748 113.717 343.066C115.783 346.401 117.926 342.778 118.08 340.561C118.376 336.322 118.244 332.031 118.245 327.786C118.246 323.802 118.277 319.817 118.127 315.835C118.017 312.959 118.458 307.937 116.797 305.322C115.104 302.658 111.03 303.233 108.058 303.106C103.421 302.907 98.7754 302.921 94.1346 302.966Z" fill="#6D96F2"/>
<path fill-rule="evenodd" clip-rule="evenodd" d="M43.4318 307.773C43.4406 315.26 42.5122 322.695 42.252 330.173C42.1328 333.611 41.8907 337.386 42.8231 340.761C43.7643 344.168 46.7536 344.907 47.0978 341.102C47.7952 333.399 47.6242 325.411 48.1671 317.647C48.3588 314.904 49.6061 309.88 48.4417 307.313C47.4163 305.052 43.4275 304.618 43.4318 307.773Z" fill="#6D96F2"/>
<path fill-rule="evenodd" clip-rule="evenodd" d="M118.156 340.771C104.316 342.48 89.8486 341.857 75.9107 342.126C69.2237 342.255 62.5382 342.262 55.8503 342.328C53.5163 342.35 47.589 341.522 45.5698 342.746C42.3555 344.694 45.843 346.198 47.971 346.241C61.1689 346.51 74.5138 345.945 87.7092 345.54C93.6378 345.359 99.5857 345.27 105.499 344.8C109.139 344.511 113.116 344.23 116.651 343.318C117.404 343.124 119.045 343.164 119.213 342.206C119.317 341.613 119.129 340.646 118.156 340.771Z" fill="#6D96F2"/>
<path fill-rule="evenodd" clip-rule="evenodd" d="M60.6131 351.653C56.7668 351.674 45.1762 350.007 43.5833 353.506C41.4597 358.171 49.7439 357.083 51.9719 357.029C57.0322 356.908 62.0889 356.895 67.1505 356.897C72.1169 356.899 77.0828 356.869 82.0484 356.759C83.4869 356.727 86.8353 357.284 87.6629 355.668C88.2919 354.44 87.795 353.471 86.635 352.821C83.8439 351.256 76.5929 352.164 73.3251 352.023C69.0942 351.841 64.8493 351.653 60.6131 351.653Z" fill="#6D96F2"/>
<path fill-rule="evenodd" clip-rule="evenodd" d="M107.403 352.516C105.205 352.638 100.759 351.793 98.7896 352.731C96.5515 353.798 97.3404 355.468 99.2721 356.202C100.611 356.71 106.1 356.444 107.403 355.855C108.762 355.241 110.298 352.35 107.403 352.516Z" fill="#6D96F2"/>
<path fill-rule="evenodd" clip-rule="evenodd" d="M131.504 308.508C129.156 309.109 129.869 321.541 129.808 323.512C129.643 328.912 128.992 335.703 130.915 340.904C132.142 344.219 134.498 343.769 134.096 340.279C133.744 337.216 133.139 334.187 132.877 331.104C132.286 324.128 131.48 316.686 132.039 309.703C132.277 310.109 134.504 313.872 135.028 313.591C134.87 313.679 132.46 308.273 131.504 308.508Z" fill="#6D96F2"/>
<path fill-rule="evenodd" clip-rule="evenodd" d="M157.911 303.929C153.16 303.995 148.409 304.074 143.66 304.196C139.882 304.294 133.949 303.715 130.485 305.198C126.361 306.961 128.317 310.892 132.191 310.975C135.618 311.049 139.272 310.329 142.73 310.218C152.069 309.92 161.425 309.856 170.769 309.781C179.22 309.714 188.029 310.554 196.406 309.37C197.648 319.661 194.288 329.995 195.43 340.404C195.607 342.02 195.528 344.303 197.734 344.671C200.518 345.136 200.632 342.564 200.737 340.722C201.039 335.464 200.875 330.202 201.288 324.937C201.671 320.057 202.424 315.071 201.787 310.184C201.005 304.171 197.915 304.652 192.454 304.403C180.92 303.875 169.458 303.771 157.911 303.929Z" fill="#6D96F2"/>
<path fill-rule="evenodd" clip-rule="evenodd" d="M141.987 340.47C139.566 340.527 135.545 339.831 133.994 341.996C132.38 344.25 134.295 346.215 136.642 346.677C139.42 347.224 143.042 346.474 145.925 346.466C148.928 346.457 151.931 346.489 154.934 346.5C167.806 346.546 180.733 346.728 193.597 346.232C195.394 346.163 200.492 346.725 201.735 345.117C202.839 343.692 202.067 342.413 200.613 341.687C198.23 340.495 193.333 340.949 190.682 340.854C187.407 340.738 184.127 340.7 180.852 340.652C167.919 340.466 154.918 340.171 141.987 340.47Z" fill="#6D96F2"/>
<path fill-rule="evenodd" clip-rule="evenodd" d="M152.878 350.885C148.062 350.962 142.921 350.765 138.152 351.446C133.958 352.045 133.442 355.827 137.956 356.269C142.105 356.676 147.135 355.916 151.303 355.666C152.784 355.577 154.505 355.703 155.215 354.177C155.955 352.582 154.539 351.052 152.878 350.885Z" fill="#6D96F2"/>
<path fill-rule="evenodd" clip-rule="evenodd" d="M189.296 351.282C186.725 351.342 179.215 350.31 177.942 353.05C175.821 357.61 185.988 355.878 187.938 355.811C190.397 355.726 199.978 357.066 199.979 353.415C199.981 349.836 191.65 351.228 189.296 351.282Z" fill="#6D96F2"/>
<path fill-rule="evenodd" clip-rule="evenodd" d="M43.0185 373.945C43.0246 382.24 42.4711 390.615 43.2825 398.89C43.618 402.313 43.5605 408.87 45.6858 411.771C47.1945 413.83 49.287 413.687 50.1111 411.213C50.6619 409.56 49.7808 406.254 49.6826 404.485C49.5879 402.788 49.4773 401.091 49.3931 399.392C49.1769 395.019 49.194 390.652 49.2585 386.275C49.3137 382.521 50.2826 377.554 49.369 373.945C48.5172 370.58 43.0185 369.793 43.0185 373.945Z" fill="#5182EF"/>
<path fill-rule="evenodd" clip-rule="evenodd" d="M132.408 366.646C116.977 367.006 101.511 366.684 86.0934 367.396C78.4899 367.748 70.9162 368.52 63.3508 369.288C59.6339 369.667 55.9191 370.057 52.2088 370.483C51.0891 370.612 41.7852 370.948 45.2846 374.248C46.8126 375.69 51.6751 374.184 53.5991 373.972C57.3243 373.561 61.0571 373.204 64.7875 372.836C71.8862 372.135 78.9938 371.472 86.1228 371.104C102.913 370.236 119.772 370.496 136.579 369.918C141.125 369.762 145.657 369.65 150.205 369.817C151.4 369.86 160.175 370.276 156.365 367.253C154.563 365.823 147.77 366.561 145.519 366.518C141.149 366.434 136.777 366.543 132.408 366.646Z" fill="#5182EF"/>
<path fill-rule="evenodd" clip-rule="evenodd" d="M153.441 380.623C153.365 376.79 153.289 372.957 153.101 369.127C152.905 365.093 158.795 364.483 160.541 367.748C161.799 370.098 161.578 374.097 161.388 377.525C161.312 378.906 161.24 380.195 161.274 381.245C161.348 383.652 161.538 386.142 161.73 388.664C162.215 395.011 162.715 401.568 161.443 407.56C160.824 410.472 158.192 412.002 156.439 410.415C156.436 410.418 156.434 410.422 156.431 410.425C155.772 411.331 153.72 411.33 152.208 411.328C151.792 411.328 151.417 411.327 151.124 411.345C146.983 411.608 142.919 412.051 138.815 412.625C130.638 413.768 122.532 414.471 114.268 414.661C108.659 414.791 103.043 414.834 97.4259 414.878C86.6686 414.961 75.9062 415.044 65.1836 415.731C61.5684 415.963 58.0081 416.36 54.4521 416.994C54.1495 417.048 53.8133 417.118 53.4555 417.193C50.8115 417.741 46.9838 418.535 46.7223 415.088C46.4114 410.998 55.9164 410.461 60.8077 410.186C61.5544 410.144 62.1937 410.108 62.6741 410.066C77.526 408.778 92.6109 408.977 107.526 409.175C108.249 409.184 108.971 409.193 109.693 409.203C110.856 409.218 112.02 409.236 113.184 409.253C119.57 409.352 125.948 409.45 132.331 409.086C135.236 408.92 138.18 408.834 141.129 408.75C145.833 408.614 150.55 408.477 155.151 408.012C154.457 405.503 154.336 402.541 154.221 399.75C154.177 398.663 154.133 397.603 154.058 396.604C153.654 391.284 153.547 385.954 153.441 380.623Z" fill="#5182EF"/>
<path fill-rule="evenodd" clip-rule="evenodd" d="M165.929 372.082C163.845 372.345 162.106 374.01 163.037 376.121C164.209 378.779 167.7 377.74 170.006 377.572C177.337 377.036 184.992 378.106 192.235 377.299C194.213 377.078 197.082 376.073 195.307 373.594C193.972 371.731 189.108 372.058 187.04 371.88C179.969 371.269 172.991 371.432 165.929 372.082Z" fill="#BBCFF9"/>
<path fill-rule="evenodd" clip-rule="evenodd" d="M178.304 383.677C175.462 383.855 168.843 383.715 167.644 386.732C165.495 392.145 173.913 390.238 176.477 389.93C179.454 389.573 186.473 390.53 188.058 387.837C190.893 383.021 180.798 383.516 178.304 383.677Z" fill="#BBCFF9"/>
<path fill-rule="evenodd" clip-rule="evenodd" d="M170.993 395.557C169.644 396.815 169.642 399.062 170.993 400.321C172.646 401.863 176.25 401.543 178.423 401.655C181.454 401.813 190.16 403.308 191.665 399.979C193.696 395.487 185.812 395.581 183.219 395.326C180.222 395.032 173.477 393.239 170.993 395.557Z" fill="#BBCFF9"/>
<path fill-rule="evenodd" clip-rule="evenodd" d="M64.7402 318.669C64.7402 323.498 72.8262 323.498 72.8262 318.669C72.8262 313.866 64.7402 313.792 64.7402 318.669Z" fill="#6D96F2"/>
<path fill-rule="evenodd" clip-rule="evenodd" d="M80.0801 318.724C80.0801 324.245 89.2901 324.233 89.2901 318.724C89.2901 313.222 80.0801 313.166 80.0801 318.724Z" fill="#6D96F2"/>
<path fill-rule="evenodd" clip-rule="evenodd" d="M70.8019 326.065C66.3249 327.218 70.4492 330.757 72.5281 331.565C75.8319 332.85 80.3408 333.798 83.6455 331.871C84.9603 331.104 86.0278 330.086 85.0643 328.598C84.0376 327.013 82.6319 327.718 81.0688 327.864C79.0887 328.05 77.4883 328.021 75.5762 327.429C74.149 326.987 72.3583 325.665 70.8019 326.065Z" fill="#6D96F2"/>
<path fill-rule="evenodd" clip-rule="evenodd" d="M152.008 318.975C152.008 322.241 157.445 322.241 157.445 318.975C157.445 315.708 152.008 315.708 152.008 318.975Z" fill="#6D96F2"/>
<path fill-rule="evenodd" clip-rule="evenodd" d="M164.031 319.466C164.031 323.095 170.072 323.096 170.072 319.466C170.072 315.837 164.031 315.837 164.031 319.466Z" fill="#6D96F2"/>
<path fill-rule="evenodd" clip-rule="evenodd" d="M163.588 327.342C160.415 327.724 151.238 328.592 150.724 332.24C149.932 337.869 159.988 333.313 162.282 332.871C165.206 332.308 167.816 332.456 170.735 332.565C172.337 332.624 174.468 332.867 174.3 330.59C174.025 326.852 166.361 327.011 163.588 327.342Z" fill="#6D96F2"/>
<path fill-rule="evenodd" clip-rule="evenodd" d="M83.8081 379.247C81.5082 379.82 78.4995 383.528 80.0819 385.799C82.6765 389.521 83.8208 383.805 84.9067 383.255C86.8824 382.254 88.4863 385.912 90.5511 383.993C93.8093 380.965 85.8593 378.735 83.8081 379.247Z" fill="#5182EF"/>
<path fill-rule="evenodd" clip-rule="evenodd" d="M110.162 376.496C107.435 376.519 101.677 380.12 101.269 382.78C101.027 384.36 102.15 385.879 103.976 385.9C106.463 385.928 107.253 382.912 109.409 382.281C111.734 381.601 111.389 383.168 113.397 383.98C114.867 384.575 116.705 384.326 117.215 382.64C118.179 379.461 112.965 376.445 110.162 376.496Z" fill="#5182EF"/>
<path fill-rule="evenodd" clip-rule="evenodd" d="M89.2831 391.724C84.9206 394.108 92.0987 399.219 94.5872 399.859C98.3437 400.823 105.905 399.022 106.795 394.742C107.15 393.038 106.007 391.495 103.991 391.8C102.332 392.052 101.268 393.994 99.7305 394.689C97.6551 395.627 95.8105 395.564 94.0477 394.151C92.6114 392.999 91.8422 390.331 89.2831 391.724Z" fill="#5182EF"/>
<path fill-rule="evenodd" clip-rule="evenodd" d="M92.4455 426.957C88.5479 427.733 84.5859 427.212 80.6694 427.942C76.6758 428.685 74.289 430.092 70.5787 428.674C70.4041 428.605 70.23 428.537 70.0559 428.468C67.1841 427.314 64.1742 426.973 61.1682 428.812C59.3894 429.9 53.9892 433.664 54.64 435.961C56.0505 440.94 62.1269 433.132 63.6764 432.371C66.631 430.92 68.6569 432.773 71.6988 433.297C75.3425 433.923 78.2743 432.128 81.7066 431.412C85.7209 430.576 90.2368 430.284 94.3209 429.836C95.934 429.66 102.046 430.85 102.597 428.977C103.545 425.76 93.9774 426.654 92.4455 426.957Z" fill="#BBCFF9"/>
<path fill-rule="evenodd" clip-rule="evenodd" d="M120.563 436.985C120.818 437.165 120.614 437.02 120.563 436.985V436.985ZM131.479 426.763C134.815 426.447 145.491 424.224 147.683 427.44C149.111 429.534 146.845 437.266 144.684 438.266C142.956 439.065 138.933 438.181 137.037 438.119C133.51 438.003 129.976 437.952 126.452 437.747C125.271 437.678 121.469 437.881 120.543 436.905C119.449 435.753 119.498 429.613 119.24 428.09C122.308 429.016 128.271 427.067 131.479 426.763ZM138.604 423.609C134.331 423.782 130.058 424.081 125.817 424.616C123.453 424.914 121.057 425.707 118.873 426.083C118.169 426.204 117.027 425.867 116.164 426.256C113.641 427.393 115.85 435.078 116.458 437.131C117.393 440.285 119.744 440.796 123.038 441.092C127.377 441.485 131.805 441.361 136.159 441.312C140.354 441.264 146.012 442.131 148.366 438.204C149.888 435.665 151.52 429.752 150.219 426.923C148.508 423.199 142.118 423.472 138.604 423.609Z" fill="#BBCFF9"/>
<path fill-rule="evenodd" clip-rule="evenodd" d="M186.459 439.097C186.231 439.371 186.231 439.371 186.459 439.097V439.097ZM187.396 438.045C187.325 438.144 186.997 438.467 187.396 438.045V438.045ZM177.204 437.755C179.089 437.424 180.973 437.097 182.858 436.776C181.073 439.108 179.193 438.144 176.141 437.941C176.496 437.879 176.851 437.817 177.204 437.755ZM168.218 436.929C168.695 436.781 169.172 436.632 169.65 436.483C169.635 436.822 169.713 437.139 169.884 437.435C169.066 437.353 168.25 437.264 167.434 437.17C167.695 437.09 167.957 437.01 168.218 436.929ZM164.053 434.061C164.026 433.449 165.012 433.869 165.578 433.828C164.488 434.724 163.979 434.801 164.053 434.061ZM178.947 427.122C179.091 426.952 179.281 426.96 179.517 427.148C179.259 427.229 178.266 427.621 178.947 427.122ZM188.606 426.062C188.631 426.062 189.168 426.737 188.606 426.062V426.062ZM188.335 425.841C188.475 425.941 188.475 425.941 188.335 425.841V425.841ZM187.129 425.71C189.104 426.021 188.955 428.183 187.129 425.71V425.71ZM163.927 425.563C163.526 425.874 163.663 425.572 163.927 425.563V425.563ZM171.479 420.96C168.127 421.142 161.972 420.959 159.172 422.625C155.518 424.8 157.441 432.287 157.768 435.57C158.25 440.421 160.699 441.803 165.597 442.312C171.443 442.92 177.448 443.033 183.325 442.889C188.616 442.759 191.63 441.061 192.6 435.864C192.897 434.274 193.65 431.814 193.626 430.291C193.61 429.234 193.045 428.753 192.832 427.854C191.617 422.739 189.584 422.133 183.964 421.91C179.827 421.746 175.539 420.762 171.479 420.96Z" fill="#6D96F2"/>
</g>
<g opacity="0.5">
<path fill-rule="evenodd" clip-rule="evenodd" d="M349.082 303.453C357.607 303.622 367.278 308.023 365.93 317.346C364.943 324.176 358.604 329.719 351.261 330.198C343.37 330.711 335.027 325.062 333.955 317.568C332.749 309.139 340.746 303.284 349.082 303.453ZM344.902 299.658C341.445 300.139 338.143 301.832 335.1 303.348C333.938 303.927 328.05 307.458 332.669 308.335C321.54 325.076 347.73 340.626 362.456 329.746C369.069 324.86 372.55 315.596 368.275 308.344C363.855 300.844 353.371 298.471 344.902 299.658Z" fill="#6D96F2"/>
<path fill-rule="evenodd" clip-rule="evenodd" d="M342.867 313.908C342.867 317.035 348.07 317.035 348.07 313.908C348.07 310.78 342.867 310.78 342.867 313.908Z" fill="#6D96F2"/>
<path fill-rule="evenodd" clip-rule="evenodd" d="M352.512 314.408C352.512 317.798 358.153 317.798 358.153 314.408C358.153 311.019 352.512 311.019 352.512 314.408Z" fill="#6D96F2"/>
<path fill-rule="evenodd" clip-rule="evenodd" d="M346 321.112C345.241 323.684 353.897 325.003 354.186 322.027C354.323 320.604 346.528 319.318 346 321.112Z" fill="#6D96F2"/>
<path fill-rule="evenodd" clip-rule="evenodd" d="M371.376 319.523C381.337 318.409 391.606 318.924 401.614 319.19C404.119 319.258 406.624 319.324 409.129 319.362C410.721 319.388 414.16 320.101 415.551 319.405C421.243 316.558 410.077 315.181 408.496 315.05C398.541 314.286 383.178 314.014 373.193 314.374C370.24 314.481 369.602 319.722 371.376 319.523Z" fill="#6D96F2"/>
<path fill-rule="evenodd" clip-rule="evenodd" d="M416.195 365.708C416.28 355.974 416.655 346.174 417.457 336.468C417.783 332.512 418.176 328.562 418.501 324.605C418.654 322.743 419.363 320.133 418.189 318.498C416.979 316.813 414.325 316.463 412.726 317.956C410.811 320.268 411.367 324.147 411.129 326.944C410.763 331.244 410.321 335.541 410.101 339.851C409.676 348.191 409.576 356.676 410.295 365.006C410.635 368.936 411.37 372.77 412.349 376.603C412.795 378.348 416.339 386.12 415.595 387.192C414.44 388.855 405.902 388.226 404.05 388.272C399.298 388.391 394.544 388.469 389.791 388.554C385.722 388.626 381.652 388.678 377.582 388.712C375.966 388.725 366.471 388.457 368.577 390.692C345.023 392.223 321.02 389.666 297.61 388.79C296.427 388.745 294.493 388.432 292.707 388.342C292.493 387.537 292.317 386.819 292.273 386.319C291.966 382.81 291.886 379.288 291.552 375.78C290.942 369.36 289.758 363.006 289.054 356.598C288.352 350.196 288.423 343.775 288.013 337.358C287.943 336.259 287.777 327.251 285.341 325.062C286.496 325.471 288.359 325.525 289.432 325.444C298.116 324.791 306.736 323.382 315.346 322.174C317.809 321.829 323.399 322.074 325.442 320.926C327.21 319.931 327.91 316.445 324.834 316.728C316.249 317.585 307.71 318.917 299.193 320.227C296.914 320.577 294.642 320.952 292.37 321.335C290.853 321.591 286.848 321.572 285.671 322.425C284.241 323.461 284.09 324.166 284.574 324.634C283.901 324.461 283.094 324.733 282.124 325.638C280.291 327.863 282.015 333.343 282.233 335.952C282.495 339.082 282.625 342.216 282.777 345.352C283.072 351.419 283.753 357.402 284.8 363.397C285.973 370.112 286.971 376.855 288.146 383.568C288.452 385.316 288.851 387.02 289.361 388.709C286.193 390.22 288.347 392.623 290.858 393.049C290.876 393.053 290.895 393.055 290.913 393.058C291.696 394.84 292.792 396.49 293.647 394.103C293.712 393.919 293.743 393.694 293.751 393.441C300.239 394.126 307.372 393.701 313.76 393.944C327.597 394.472 341.519 395.263 355.371 394.862C360.855 394.703 366.354 394.249 371.792 393.566C374.978 393.167 378.176 392.689 381.311 392.027C381.535 391.979 381.876 391.93 382.271 391.869C382.335 391.867 382.4 391.865 382.461 391.865C387.262 391.797 392.058 391.677 396.853 391.491C400.879 391.335 404.923 391.255 408.936 390.901C411.429 390.681 416.697 390.722 418.226 388.384C419.618 386.258 417.292 380.781 416.961 378.394C416.381 374.188 416.158 369.944 416.195 365.708Z" fill="#BBCFF9"/>
<path fill-rule="evenodd" clip-rule="evenodd" d="M367.549 337.6C363.713 337.907 360.167 339.587 356.296 339.608C353.047 339.625 349.849 338.719 346.581 338.853C342.749 339.009 340.641 341.32 337.284 342.094C334.612 342.709 332.928 340.801 330.578 339.957C327.61 338.891 325.418 339.442 322.874 341.054C321.005 342.238 316.646 344.897 316.68 347.293C316.78 354.551 325.858 344.525 327.688 344.403C330.12 344.242 332.837 346.827 335.424 346.975C338.844 347.17 341.037 345.113 344.187 344.364C347.372 343.606 350.815 344.534 354.009 344.823C357.652 345.151 360.84 344.394 364.365 343.583C367.781 342.797 370.692 342.838 374.162 343.498C376.504 343.944 382.341 346.534 383.365 343.203C384.761 338.667 370.23 337.388 367.549 337.6Z" fill="#6D96F2"/>
<path fill-rule="evenodd" clip-rule="evenodd" d="M368.715 351.443C360.856 352.155 352.949 352.779 345.054 352.978C341.634 353.066 328.49 351.698 329.655 355.752C330.655 359.226 348.543 357.038 352.186 356.773C356.209 356.482 360.225 356.075 364.227 355.603C365.645 355.435 369.071 355.608 370.072 354.499C371.026 353.44 370.556 351.272 368.715 351.443Z" fill="#6D96F2"/>
<path fill-rule="evenodd" clip-rule="evenodd" d="M314.504 369.901C314.325 369.972 314.325 369.972 314.504 369.901V369.901ZM316.162 369.88C318.121 369.822 317.701 368.859 319.656 369.361C320.557 369.592 320.65 369.249 321.349 370.053C322.712 371.621 321.428 375.035 320.084 376.298C315.108 380.976 309.135 370.088 316.162 369.88ZM316.162 365.29C302.538 365.717 308.238 385.348 320.096 381.341C324.994 379.686 328.072 372.23 325.191 368.04C323.79 366.002 322.003 365.639 319.656 365.498C319.111 365.465 318.425 366.204 318.085 366.17C317.277 366.091 317.352 365.248 316.162 365.29Z" fill="#6D96F2"/>
<path fill-rule="evenodd" clip-rule="evenodd" d="M348.739 370.573C348.496 370.504 353.04 371.736 352.543 371.254C353.605 372.283 352.177 374.718 350.977 375.142C348.07 376.172 346.439 371.955 348.739 370.573ZM350.756 365.25C346.489 365.814 343.197 367.471 342.614 371.896C342.076 375.98 345.034 380.117 349.701 380.196C359.873 380.37 360.183 364.024 350.756 365.25Z" fill="#6D96F2"/>
<path fill-rule="evenodd" clip-rule="evenodd" d="M397.193 370.752C397.789 378.005 389.725 371.367 397.193 370.752V370.752ZM393.732 362.993C393.027 364.117 393.628 365.31 394.693 365.964C385.182 367.839 387.336 381.189 397.014 379.216C401.936 378.213 402.84 373.386 402.107 369.4C401.758 367.505 396.694 358.269 393.732 362.993Z" fill="#6D96F2"/>
</g>
<path opacity="0.5" fill-rule="evenodd" clip-rule="evenodd" d="M416.239 369.958C413.404 370.428 406.702 373.349 406.76 376.486C406.851 381.383 412.547 376.034 413.815 375.315C420.621 371.451 429.437 376.458 436.525 377.523C439.775 378.011 446.131 378.914 449.001 376.883C454.106 373.271 442.301 374.175 440.797 374.029C432.626 373.242 424.497 368.583 416.239 369.958Z" fill="#BBCFF9"/>
<g opacity="0.5">
<path fill-rule="evenodd" clip-rule="evenodd" d="M550.153 335.531C550.15 340.541 549.879 345.655 550.869 350.605C551.169 352.104 551.406 354.975 553.1 355.752C554.803 356.533 556.453 355.656 556.876 354.028C557.37 352.134 556.288 349.299 556.178 347.311C556.028 344.595 556.017 341.875 556.016 339.156C556.015 337.192 556.708 334.032 554.222 333.022C552.374 332.27 550.153 333.668 550.153 335.531Z" fill="#BBCFF9"/>
<path fill-rule="evenodd" clip-rule="evenodd" d="M635.069 327.607C617.274 329.273 599.222 329.619 581.361 330.488C573.106 330.89 563.128 330.377 555.351 333.358C553.906 333.912 548.734 336.993 552.933 338.248C554.242 338.639 555.572 337.323 556.647 336.883C558.436 336.15 560.509 335.923 562.418 335.636C578.647 333.205 595.622 333.629 612.018 332.492C616.219 332.201 620.422 331.902 624.615 331.517C627.61 331.242 633.905 329.228 636.669 330.258C641.393 332.018 641.282 343.454 641.375 347.386C641.424 349.42 639.307 356.721 643.515 355.98C646.881 355.388 645.663 347.804 645.4 345.729C644.711 340.29 643.538 326.806 635.069 327.607Z" fill="#BBCFF9"/>
<path fill-rule="evenodd" clip-rule="evenodd" d="M641.632 355.717C626.174 357.019 610.361 355.741 594.839 356.254C586.704 356.522 578.576 356.95 570.439 357.201C566.92 357.309 563.398 357.313 559.877 357.337C558.193 357.348 550.53 358.3 555.27 361.414C557.369 362.793 564.059 361.682 566.467 361.656C570.085 361.616 573.701 361.476 577.316 361.343C585.69 361.038 594.059 360.614 602.437 360.403C610.451 360.201 618.47 360.157 626.484 359.955C630.471 359.854 634.513 359.74 638.465 359.197C639.357 359.075 642.254 358.977 642.873 358.049C643.459 357.172 643.047 355.589 641.632 355.717Z" fill="#6D96F2"/>
<path fill-rule="evenodd" clip-rule="evenodd" d="M565.661 344.892C565.578 345.075 565.578 345.075 565.661 344.892V344.892ZM572.354 342.994C572.598 343.09 572.598 343.09 572.354 342.994V342.994ZM572.041 342.941C575.648 346.371 570.101 350.465 566.722 347.118C563.135 343.565 569.719 342.952 572.041 342.941ZM568.215 337.753C555.79 339.815 560.189 355.261 571.794 353.029C576.889 352.049 579.803 347.262 578.049 342.663C577.364 340.866 575.87 338.894 573.791 338.328C572.754 338.046 571.837 338.489 570.849 338.385C569.907 338.287 569.384 337.556 568.215 337.753Z" fill="#BBCFF9"/>
<path fill-rule="evenodd" clip-rule="evenodd" d="M615.769 342.1C608.277 342.122 600.783 342.419 593.291 342.552C590.993 342.591 585.087 341.632 585.078 345.012C585.068 348.622 591.647 347.289 593.836 347.241C601.267 347.075 608.717 346.771 616.118 346.111C617.989 345.944 624.461 346.232 624.454 343.86C624.446 341.347 617.279 342.1 615.769 342.1Z" fill="#BBCFF9"/>
<path fill-rule="evenodd" clip-rule="evenodd" d="M633.666 365.666C615.135 366.13 596.631 366.292 578.115 367.177C571.189 367.507 564.272 367.754 557.337 367.754C556.001 367.754 553.311 367.271 552.054 368.055C548.642 370.184 552.527 372.011 554.751 372.126C569.962 372.913 585.394 370.953 600.596 370.511C609.496 370.252 618.398 370.176 627.292 369.753C629.719 369.638 632.146 369.504 634.568 369.329C635.962 369.228 639.646 369.504 640.772 368.744C645.689 365.424 635.323 365.624 633.666 365.666Z" fill="#6D96F2"/>
<path fill-rule="evenodd" clip-rule="evenodd" d="M548.64 374.118C548.465 378.599 548.447 383.003 549.076 387.46C549.323 389.213 549.437 391.204 551.641 391.649C553.642 392.054 554.657 390.642 555.072 389.077C556.084 385.253 555.194 379.751 555.181 375.779C555.176 373.815 555.174 371.617 552.573 371.174C550.588 370.835 548.716 372.172 548.64 374.118Z" fill="#6D96F2"/>
<path fill-rule="evenodd" clip-rule="evenodd" d="M653.306 384.923C623.308 386.397 593.35 387.684 563.331 388.868C560.99 388.96 542.804 388.775 549.161 394.691C551.125 396.518 556.185 395.281 558.725 395.165C562.541 394.989 566.359 394.856 570.176 394.675C585.308 393.956 600.48 393.763 615.6 392.956C623.921 392.513 632.223 391.818 640.501 390.915C644.438 390.485 649.325 390.529 653.013 389.09C654.91 388.35 656.957 384.742 653.306 384.923Z" fill="#6D96F2"/>
<path fill-rule="evenodd" clip-rule="evenodd" d="M636.058 362.189C633.777 364.308 634.95 368.489 635.122 371.108C635.358 374.713 635.646 378.32 636.128 381.905C636.443 384.233 636.276 387.857 637.608 389.869C639.168 392.225 642.602 391.964 644.012 389.688C645.26 387.676 644.628 383.441 644.596 381.211C644.551 378.126 644.345 375.037 644.149 371.958C643.985 369.386 644.61 365.263 643.093 363.061C641.551 360.824 638.196 360.205 636.058 362.189Z" fill="#6D96F2"/>
<path fill-rule="evenodd" clip-rule="evenodd" d="M567.492 378.635C567.224 378.827 567.224 378.827 567.492 378.635V378.635ZM572.819 378.012C577.791 378.945 569.752 384.359 567.212 380.643C566.815 380.063 566.608 379.349 567.246 378.844C567.826 378.384 568.192 379.199 568.741 378.98C569.687 378.602 571.81 377.977 572.819 378.012ZM572.133 373.567C568.739 373.817 564.073 374.013 562.393 377.187C560.136 381.45 563.995 385.624 568.461 386.273C572.759 386.897 579.174 384.677 579.518 380.003C579.796 376.233 575.952 373.278 572.133 373.567Z" fill="#6D96F2"/>
<path fill-rule="evenodd" clip-rule="evenodd" d="M600.472 375.821C596.958 375.874 590.051 374.905 586.99 376.502C583.961 378.083 585.312 380.898 588.075 381.571C589.902 382.016 592.887 381.299 594.788 381.226C597.29 381.131 599.793 381.111 602.297 381.078C606.507 381.025 610.714 381.07 614.925 381.07C619.224 381.07 623.598 381.18 627.89 380.885C633.321 380.512 633.175 376.718 627.863 376.245C618.841 375.439 609.524 375.689 600.472 375.821Z" fill="#6D96F2"/>
<path fill-rule="evenodd" clip-rule="evenodd" d="M591.496 418.306C591.496 420.108 593.21 418.306 593.198 418.306C593.21 418.306 591.496 416.504 591.496 418.306Z" fill="#6D96F2"/>
<path fill-rule="evenodd" clip-rule="evenodd" d="M552.715 403.798C552.826 409.036 552.899 414.28 553.138 419.515C553.215 421.17 552.706 424.402 554.857 425.246C557.251 426.186 557.996 423.844 558.272 422.257C559.145 417.232 558.289 411.493 558.205 406.407C558.176 404.699 558.573 402.322 556.493 401.471C554.797 400.776 552.681 402.066 552.715 403.798Z" fill="#6D96F2"/>
<path fill-rule="evenodd" clip-rule="evenodd" d="M645.074 403.88C645.216 404.193 645.216 404.193 645.074 403.88V403.88ZM645.275 403.827C645.39 403.872 645.855 404.054 645.275 403.827V403.827ZM599.903 399.593C591.282 399.719 582.654 399.814 574.038 400.159C570.361 400.306 566.64 400.425 562.976 400.748C560.38 400.977 553.932 401.073 552.249 403.051C548.774 407.135 556.141 406.021 557.729 405.689C560.617 405.086 563.564 404.892 566.514 404.747C572.916 404.432 579.32 404.264 585.729 404.143C603.111 403.817 620.505 403.867 637.89 403.794C639.573 403.787 642.615 403.155 644.169 403.79C645.727 404.427 645.639 405.992 645.801 407.809C646.016 410.226 644.306 414.833 645.609 416.867C647.629 420.021 650.567 417.342 651.017 415.043C651.637 411.866 650.654 408.05 649.691 405.012C648.332 400.728 646.446 400.557 642.003 400.222C636.811 399.831 631.638 399.594 626.429 399.549C617.589 399.473 608.743 399.465 599.903 399.593Z" fill="#6D96F2"/>
<path fill-rule="evenodd" clip-rule="evenodd" d="M634.01 421.248C615.309 423.274 596.076 422.08 577.275 422.152C572.704 422.169 568.128 422.204 563.56 422.41C561.148 422.519 555.43 421.898 553.777 423.635C550.293 427.294 556.569 427.826 558.86 427.675C563.492 427.367 568.135 427.228 572.779 427.194C589.137 427.076 605.588 427.788 621.932 427.035C628.779 426.72 635.474 425.627 642.195 424.406C643.684 424.136 653.876 422.328 648.064 420.162C644.63 418.882 637.618 420.855 634.01 421.248Z" fill="#6D96F2"/>
<path fill-rule="evenodd" clip-rule="evenodd" d="M579.41 414.549C579.28 414.706 579.28 414.706 579.41 414.549V414.549ZM579.284 414.522C579.24 414.634 579.103 414.911 579.284 414.522V414.522ZM578.105 413.103C578.132 413.136 578.244 413.269 578.105 413.103V413.103ZM578.059 413.093C578.509 413.594 578.813 414.153 578.969 414.77C575.095 415.749 573.601 412.825 578.059 413.093ZM577.814 412.956C577.816 412.957 578.361 413.17 577.814 412.956V412.956ZM571.45 408.6C568.942 411.512 566.872 414.907 569.998 418.234C572.794 421.209 578.418 421.593 581.966 419.607C585.62 417.561 585.304 413.252 582.755 410.44C581.114 408.63 579.784 408.68 577.402 408.384C575.78 408.183 572.825 407.007 571.45 408.6Z" fill="#6D96F2"/>
<path fill-rule="evenodd" clip-rule="evenodd" d="M597.367 413.991C597.367 417.869 615.322 416.2 618.517 416.196C621.193 416.192 637.372 417.569 636.211 413.577C635.256 410.297 619.32 411.928 615.926 411.922C612.992 411.919 597.367 410.04 597.367 413.991Z" fill="#6D96F2"/>
</g>
<g opacity="0.5">
<path fill-rule="evenodd" clip-rule="evenodd" d="M362.962 450.332C371.954 451.549 381.308 455.494 381.229 465.257C381.163 473.466 373.783 482.202 364.304 481.711C355.776 481.271 347.744 472.57 346.676 465.114C346.122 461.252 347.158 457.093 349.594 453.915C352.785 449.752 357.85 449.758 362.962 450.332ZM358.715 445.025C352.21 445.058 347.452 447.252 343.427 451.884C341.984 453.545 340.305 455.333 339.205 457.215C338.179 458.972 338.359 463.442 341.882 461.346C341.014 469.998 346.435 478.396 354.228 482.829C362.699 487.649 372.274 486.709 379.324 479.954C385.777 473.77 388.048 463.326 383.327 455.679C378.609 448.036 367.676 444.943 358.715 445.025Z" fill="#6D96F2"/>
<path fill-rule="evenodd" clip-rule="evenodd" d="M378.213 442.706C374.049 445.553 370.247 449.301 367.09 453.103C364.003 456.819 361.963 461.459 358.254 464.7C356.382 462.798 354.189 457.66 350.453 459.698C347.353 461.39 349.349 464.298 350.859 466.208C354.757 471.14 359.086 473.125 364.085 468.252C368.626 463.827 371.204 457.924 375.45 453.244C377.311 451.191 380.189 449.153 381.671 446.886C383.016 444.831 381.353 440.554 378.213 442.706Z" fill="#6D96F2"/>
</g>
<g opacity="0.5">
<path fill-rule="evenodd" clip-rule="evenodd" d="M535.58 134.01C535.586 134.398 535.592 134.762 535.6 135.099C535.795 142.426 535.683 150.129 535.044 157.439C534.824 159.963 532.855 163.162 530.61 159.683C529.622 158.153 529.761 155.012 529.862 152.701C529.89 152.08 529.914 151.521 529.914 151.067C529.912 148.489 530.057 145.885 530.203 143.272C530.488 138.166 530.774 133.032 529.963 128.017C529.947 127.915 529.931 127.818 529.917 127.724C529.564 125.519 529.541 125.366 526.94 125.417C525.856 125.438 524.772 125.465 523.689 125.492C522.623 125.519 521.557 125.546 520.491 125.567C519.431 125.588 518.373 125.606 517.314 125.626C513.994 125.685 510.674 125.745 507.354 125.858C506.801 125.877 505.767 125.998 504.464 126.151C501.856 126.455 498.166 126.887 495.062 126.885C495.063 126.897 495.064 126.91 495.065 126.922C495.067 126.945 495.068 126.967 495.068 126.99C495.103 128.589 494.662 130.373 494.218 132.166C493.847 133.667 493.475 135.175 493.379 136.584C493.151 139.936 493.148 143.323 493.146 146.711C493.143 150.836 493.14 154.961 492.73 159.022C492.71 159.22 492.698 159.43 492.686 159.641C492.685 159.67 492.683 159.698 492.681 159.726C492.822 159.706 492.958 159.692 493.09 159.684C495.328 159.551 497.584 159.54 499.837 159.527C501.08 159.521 502.321 159.515 503.557 159.488C505.778 159.44 508.027 159.443 510.284 159.445C515.266 159.45 520.293 159.455 525.167 158.92C526.606 158.746 527.11 160.467 526.463 161.36C525.885 162.16 524.293 162.289 523.128 162.384C522.832 162.408 522.563 162.43 522.346 162.46C519.202 162.894 516.017 163.045 512.846 163.177C509.515 163.315 506.18 163.417 502.848 163.503C502.054 163.525 500.996 163.624 499.822 163.735C496.722 164.027 492.82 164.395 490.884 163.577C488.802 162.699 488.851 161.724 489.7 160.968C489.328 160.203 489.269 159.087 489.223 158.214C489.205 157.88 489.189 157.582 489.159 157.352C488.697 153.875 488.418 150.442 488.412 146.935C488.399 140.065 488.414 132.929 490.451 126.279C489.635 125.945 489.143 125.454 489.145 124.746C489.154 121.178 501.059 121.36 506.719 121.446C507.731 121.461 508.542 121.473 509.051 121.461C513.174 121.36 517.297 121.347 521.421 121.368C522.292 121.373 523.261 121.319 524.266 121.264C526.403 121.147 528.699 121.022 530.544 121.421C535.393 122.471 535.51 129.675 535.58 134.01Z" fill="#6D96F2"/>
<path fill-rule="evenodd" clip-rule="evenodd" d="M565.909 122.203C570.411 121.98 574.915 121.93 579.423 121.914C584.195 121.892 588.974 121.972 593.744 122.108L593.855 122.112C595.968 122.171 607.717 122.5 602.319 125.231C602.005 125.391 601.651 125.523 601.264 125.634C601.493 126.899 601.52 128.204 601.483 128.833C601.344 131.218 601.252 133.606 601.161 135.994C601.098 137.612 601.036 139.23 600.958 140.848C600.746 145.316 600.544 149.785 600.379 154.256C600.358 154.805 600.39 155.522 600.425 156.323C600.539 158.967 600.693 162.511 599.153 163.822C597.802 164.971 596.878 164.741 596.256 163.959C592.389 165.008 584.447 164.667 580.454 164.496C579.491 164.454 578.759 164.423 578.367 164.423C577.667 164.423 576.365 164.505 574.723 164.608C567.885 165.036 555.12 165.836 555.094 162.691C555.091 162.389 555.196 162.118 555.395 161.874C554.853 161.359 554.366 160.602 554.052 159.657C552.929 156.265 552.823 152.606 552.739 149.089C552.621 144.123 552.62 139.151 552.619 134.181C552.618 131.627 552.617 129.075 552.601 126.524C551.87 125.608 552.304 124.56 553.216 123.83C555.158 122.275 559.979 122.257 563.466 122.243C564.404 122.239 565.246 122.235 565.909 122.203ZM558.584 160.495C562.923 159.631 570.234 159.909 574.15 160.058C575.176 160.097 575.969 160.127 576.416 160.125C580.416 160.111 584.417 160.163 588.415 160.313C588.829 160.328 589.442 160.313 590.165 160.296C591.617 160.262 593.509 160.217 595.116 160.384C595.094 160.18 595.08 159.995 595.072 159.834C594.891 156.515 595.021 153.167 595.15 149.838C595.177 149.13 595.205 148.424 595.23 147.719C595.316 145.23 595.429 142.741 595.544 140.254V140.252C595.615 138.686 595.686 137.12 595.752 135.554C595.78 134.866 595.737 133.932 595.69 132.882C595.594 130.745 595.475 128.124 595.885 126.111C594.405 126.085 592.888 125.987 591.497 125.897C590.157 125.811 588.933 125.732 587.971 125.731C586.751 125.731 585.532 125.728 584.311 125.724C580.931 125.715 577.552 125.705 574.171 125.768C573.851 125.774 573.53 125.779 573.209 125.785C568.555 125.869 563.861 125.954 559.246 126.525C558.975 126.559 558.651 126.623 558.29 126.702C558.796 128.675 558.549 131.455 558.332 133.89C558.226 135.072 558.128 136.173 558.127 137.061C558.12 142.581 558.276 148.079 558.432 153.571V153.572C558.492 155.65 558.55 157.726 558.601 159.803C558.607 160.051 558.601 160.282 558.584 160.495Z" fill="#6D96F2"/>
<path fill-rule="evenodd" clip-rule="evenodd" d="M509.196 163.344C506.238 164.956 507.833 171.405 508.858 173.634C510.543 177.302 513.961 180.172 517.651 182.075C525.106 185.922 535.854 184.9 541.493 191.571C541.552 191.64 543.5 193.44 543.944 191.109C544.308 189.196 540.67 186.274 539.26 185.316C535.25 182.588 530.108 181.71 525.47 180.347C520.523 178.895 515.096 176.217 513.021 171.46C512.287 169.776 513.687 160.885 509.196 163.344Z" fill="#BBCFF9"/>
<path fill-rule="evenodd" clip-rule="evenodd" d="M576.825 166.444C574.114 167.141 575.908 170.621 575.903 172.363C575.898 174.537 575.153 176.812 573.717 178.547C570.075 182.945 562.944 183.604 557.597 184.866C553.715 185.782 544.427 187.747 544.063 192.645C543.658 198.114 551.857 191.458 552.55 191.185C560.214 188.563 570.13 188.057 576.046 182.284C578.487 179.901 579.931 176.721 580.161 173.439C580.289 171.59 580.312 165.556 576.825 166.444Z" fill="#BBCFF9"/>
<path fill-rule="evenodd" clip-rule="evenodd" d="M520.811 214.955C520.747 204.836 531.129 198.714 540.518 196.412C551.801 193.639 562.312 201.014 563.642 211.623C565.046 222.819 556 231.833 544.07 232.327C533.575 232.761 520.878 225.752 520.811 214.955ZM546.017 201.278C546.628 202.051 547.178 203.287 545.948 203.959C544.766 204.602 544.175 203.829 543.581 203.051C543.204 202.56 542.828 202.066 542.298 201.927C540.926 201.567 538.722 202.913 537.58 203.697C537.116 204.016 536.456 204.701 535.684 205.503C533.228 208.054 529.643 211.779 527.66 208.574C519.756 221.305 539.463 230.834 550.668 226.015C562.975 220.724 560.579 201.378 546.017 201.278Z" fill="#6D96F2"/>
<path fill-rule="evenodd" clip-rule="evenodd" d="M535.688 211.568C535.688 213.89 539.62 213.89 539.62 211.568C539.62 209.271 535.688 209.173 535.688 211.568Z" fill="#6D96F2"/>
<path fill-rule="evenodd" clip-rule="evenodd" d="M542.604 211.132C542.604 213.977 547.422 213.977 547.422 211.132C547.422 208.319 542.604 208.199 542.604 211.132Z" fill="#6D96F2"/>
<path fill-rule="evenodd" clip-rule="evenodd" d="M537.655 217.761C533.714 219.924 544.984 224.22 545.429 219.829C545.621 217.935 543.654 218.446 542.343 218.307C541.089 218.173 538.845 217.115 537.655 217.761Z" fill="#6D96F2"/>
<path fill-rule="evenodd" clip-rule="evenodd" d="M535.947 233.101C536.118 238.623 536.036 244.143 537.159 249.588C537.372 250.623 537.52 254.374 538.397 255.143C540.553 257.033 540.588 253.411 540.672 252.022C540.971 247.05 540.411 241.923 540.288 236.94C540.261 235.867 540.566 233.646 540.023 232.608C539.162 230.96 535.863 230.47 535.947 233.101Z" fill="#BBCFF9"/>
<path fill-rule="evenodd" clip-rule="evenodd" d="M531.728 228.623C523.088 237.668 511.191 237.002 499.206 237.794C492.874 238.212 486.471 239.072 481.375 242.892C479.004 244.67 476.961 246.896 475.588 249.433C474.988 250.542 472.141 256.942 476.416 255.424C477.934 254.885 479.426 250.653 480.406 249.401C482.275 247.017 484.665 245.049 487.532 243.769C493.063 241.301 499.668 241.344 505.665 241.031C511.934 240.703 518.662 240.397 524.425 237.854C527.136 236.658 529.679 235.166 531.861 233.244C532.641 232.556 534.312 231.389 534.437 230.338C534.579 229.137 533.341 226.938 531.728 228.623Z" fill="#BBCFF9"/>
<path fill-rule="evenodd" clip-rule="evenodd" d="M488.113 256.384C479.998 256.637 471.892 256.944 463.788 257.423C462.128 257.521 456.591 257.207 458.001 260.382C459.131 262.926 465.885 261.243 468.118 261.12C476.562 260.652 485.042 260.49 493.469 259.781C495.362 259.622 503.919 259.685 500.385 256.556C498.704 255.067 490.436 256.311 488.113 256.384Z" fill="#6D96F2"/>
<path fill-rule="evenodd" clip-rule="evenodd" d="M452.851 260.035C450.293 263.169 451.469 270.786 451.662 274.554C451.849 278.204 451.088 284.879 456.197 285.445C454.575 285.247 457.429 285.537 457.894 285.56C458.93 285.612 459.973 285.629 461.011 285.639C463.411 285.664 465.812 285.634 468.211 285.589C473.645 285.489 479.094 285.34 484.522 285.061C486.804 284.942 499.18 285.041 499.67 282.83C500.297 280.005 488.43 281.604 486.305 281.694C481.132 281.915 475.95 281.962 470.772 282.024C468.205 282.056 465.636 282.08 463.07 282.033C462.009 282.014 457.813 282.42 457.169 281.76C456.619 281.199 457.048 276.037 457.037 275.247C456.999 272.673 457.002 270.094 457.1 267.521C457.166 265.789 458.17 262.494 457.351 260.866C456.556 259.284 454.237 258.744 452.851 260.035Z" fill="#6D96F2"/>
<path fill-rule="evenodd" clip-rule="evenodd" d="M494.638 260.181C494.786 265.915 494.832 271.763 496.284 277.37C496.767 279.236 497.443 283.084 499.454 284.05C501.562 285.064 503.384 283.617 503.521 281.667C503.695 279.216 502.288 275.998 501.999 273.484C501.662 270.55 501.467 267.613 501.351 264.665C501.264 262.447 501.987 259.123 499.72 257.693C497.685 256.408 494.572 257.702 494.638 260.181Z" fill="#6D96F2"/>
<path fill-rule="evenodd" clip-rule="evenodd" d="M510.789 258.783C508.265 261.128 509.392 268.553 509.708 271.566C509.939 273.773 512.529 284.63 516.409 278.968C518.126 276.464 515.945 269.842 515.961 266.921C515.971 265.061 516.676 262.71 516.336 260.923C515.885 258.562 513.078 256.65 510.789 258.783Z" fill="#6D96F2"/>
<path fill-rule="evenodd" clip-rule="evenodd" d="M528.266 256.847C535.847 256.117 543.437 255.57 551.061 255.502C551.427 255.499 551.811 255.495 552.211 255.49C557.435 255.429 565.287 255.335 568.803 258.995C570.718 260.988 571.586 264.07 572.343 266.757C572.484 267.257 572.621 267.745 572.761 268.209C572.879 268.606 573.034 269.057 573.201 269.546C573.991 271.853 575.06 274.974 573.976 276.905C573.382 277.965 572.426 278.868 570.974 278.493C570.635 278.405 570.369 278.293 570.161 278.161C570.717 278.722 570.963 279.522 570.602 280.304C569.904 281.816 567.699 281.849 565.96 281.874C565.539 281.88 565.146 281.886 564.807 281.912C559.019 282.362 553.204 282.662 547.396 282.71C544.63 282.732 541.864 282.711 539.098 282.691C536.252 282.669 533.405 282.647 530.558 282.673C528.491 282.692 526.388 282.875 524.282 283.059C521.625 283.29 518.966 283.521 516.38 283.422C514.447 283.348 512.382 282.758 512.872 280.427C513.272 278.523 515.192 278.357 516.913 278.208C517.062 278.196 517.211 278.183 517.357 278.169C522.836 277.649 528.318 277.464 533.826 277.483C545.395 277.52 556.957 277.464 568.526 277.408C569.001 277.445 569.449 277.614 569.818 277.872C569.402 277.401 569.41 276.773 569.419 276.105C569.422 275.802 569.426 275.491 569.391 275.183C569.32 274.562 569.256 273.945 569.191 273.328C568.977 271.291 568.765 269.268 568.348 267.219C568.285 266.91 568.225 266.569 568.161 266.209C567.781 264.082 567.28 261.263 565.466 260.114C563.643 258.959 560.067 259.014 557.28 259.058C556.528 259.069 555.833 259.08 555.246 259.066C547.809 258.887 540.331 259.38 532.928 260.007C532.359 260.056 531.79 260.102 531.219 260.148C528.403 260.377 525.572 260.607 522.797 261.077C522.289 261.163 521.513 261.415 520.623 261.706C518.255 262.476 515.08 263.509 514 262.371C510.427 258.601 526.134 257.052 528.266 256.847Z" fill="#6D96F2"/>
<path fill-rule="evenodd" clip-rule="evenodd" d="M608.921 248.261C609.251 248.657 609.251 248.657 608.921 248.261V248.261ZM557.618 224.9C553.014 227.425 561.536 234.832 563.706 235.977C568.591 238.556 575.305 238.945 580.759 239.669C587.663 240.588 595.175 240.926 601.81 243.035C604.638 243.934 606.433 245.337 608.284 247.494C609.223 248.587 611.481 253.296 613.537 252.181C617.678 249.936 606.52 240.514 604.061 239.501C598.473 237.198 591.866 236.553 585.891 235.66C580.334 234.828 574.658 234.209 569.238 232.743C566.259 231.937 564.141 230.636 562.423 228.147C561.352 226.596 560.474 223.342 557.618 224.9Z" fill="#BBCFF9"/>
<path fill-rule="evenodd" clip-rule="evenodd" d="M628.207 253.836C622.898 253.946 617.6 254.327 612.302 254.708C609.33 254.921 606.359 255.135 603.387 255.301C602.457 255.353 601.526 255.399 600.595 255.446C597.976 255.578 595.354 255.709 592.748 255.955C592.352 255.992 591.894 256.028 591.393 256.066C589.18 256.235 586.162 256.466 584.233 257.22C582.465 255.972 579.736 257.033 579.694 259.256C579.621 263.306 579.661 267.285 580.19 271.31C580.313 272.244 580.946 276.975 582.324 279.437C581.834 281.763 583.959 282.414 585.937 282.593C593.599 283.283 601.633 282.747 609.559 282.219C613.59 281.95 617.593 281.684 621.505 281.581C622.805 281.546 624.123 281.533 625.448 281.519C629.773 281.474 634.181 281.428 638.368 280.665C638.536 280.634 638.717 280.604 638.906 280.572C640.562 280.296 642.844 279.914 643.018 278.214C643.122 277.194 642.506 276.261 641.474 276.129C641.544 275.28 641.43 274.352 641.346 273.671C641.326 273.512 641.308 273.367 641.295 273.239C641.043 270.876 640.412 268.528 639.789 266.21C639.649 265.689 639.51 265.169 639.374 264.652C639.225 264.078 639.087 263.395 638.937 262.66C638.411 260.064 637.749 256.801 635.991 255.286C634.145 253.698 631.142 253.768 628.735 253.824C628.556 253.829 628.379 253.833 628.207 253.836ZM637.548 276.384C636.919 274.846 636.734 272.769 636.559 270.793C636.45 269.553 636.343 268.353 636.133 267.354C635.974 266.604 635.844 265.813 635.713 265.009C635.393 263.056 635.061 261.028 634.275 259.317C633.223 257.026 632.287 257.113 630.071 257.32C629.66 257.359 629.203 257.401 628.694 257.434C626.436 257.577 624.18 257.759 621.925 257.941C620.842 258.029 619.76 258.116 618.678 258.199C614.047 258.554 609.413 258.827 604.778 259.1C602.071 259.26 599.363 259.419 596.656 259.595C594.531 259.733 592.456 260.109 590.391 260.484C588.756 260.782 587.125 261.078 585.479 261.254C585.456 261.779 585.408 262.306 585.363 262.808C585.301 263.491 585.245 264.129 585.257 264.65C585.311 266.964 585.529 269.262 585.749 271.565C585.783 271.919 585.816 272.273 585.849 272.627C585.889 273.052 585.987 273.597 586.096 274.202C586.263 275.139 586.457 276.217 586.5 277.209C586.7 277.209 586.9 277.209 587.096 277.209C587.349 277.21 587.598 277.211 587.837 277.208C593.672 277.112 599.503 276.947 605.335 276.738C606.079 276.712 606.824 276.684 607.568 276.658C612.771 276.469 617.973 276.279 623.181 276.224C625.25 276.202 627.345 276.263 629.448 276.324C632.152 276.401 634.867 276.48 637.548 276.384Z" fill="#6D96F2"/>
</g>
</svg>
