<svg width="40" height="40" viewBox="0 0 40 40" fill="none" xmlns="http://www.w3.org/2000/svg">
<path d="M20.105 0C9.05998 0 0.10498 8.955 0.10498 20C0.10498 31.045 9.05998 40 20.105 40C31.15 40 40.105 31.045 40.105 20C40.105 8.955 31.15 0 20.105 0ZM20.105 37.5C10.455 37.5 2.60498 29.65 2.60498 20C2.60498 10.35 10.455 2.5 20.105 2.5C29.755 2.5 37.605 10.35 37.605 20C37.605 29.65 29.7525 37.5 20.105 37.5ZM28.865 12.045C28.6726 11.9192 28.4573 11.8326 28.2315 11.7901C28.0056 11.7475 27.7736 11.7498 27.5486 11.797C27.3237 11.8441 27.1102 11.9351 26.9204 12.0647C26.7306 12.1943 26.5682 12.3601 26.4425 12.5525L18.0025 25.45L13.9675 21.715C13.2575 21.06 12.15 21.1025 11.4925 21.8125C10.835 22.5225 10.88 23.6275 11.59 24.285L17.1675 29.445C17.1875 29.4625 17.2125 29.4675 17.2325 29.485C17.2825 29.525 17.3125 29.58 17.365 29.6175C17.44 29.6675 17.525 29.6775 17.605 29.7125C17.7 29.7575 17.7925 29.8 17.8925 29.8275C17.99 29.8525 18.085 29.865 18.185 29.8725C18.3275 29.8875 18.465 29.8875 18.605 29.8675C18.6625 29.8575 18.7175 29.8425 18.775 29.8275C18.9475 29.785 19.1075 29.7175 19.265 29.6225C19.2925 29.605 19.315 29.585 19.3425 29.5675C19.445 29.4975 19.555 29.445 19.6425 29.35C19.705 29.2825 19.7325 29.195 19.7825 29.12C19.785 29.1175 19.79 29.115 19.79 29.1125L29.37 14.47C29.6243 14.0814 29.714 13.6077 29.6193 13.153C29.5246 12.6983 29.2533 12.2998 28.865 12.045Z" fill="#219653"/>
</svg>
