<svg width="22" height="16" viewBox="0 0 22 16" fill="none" xmlns="http://www.w3.org/2000/svg">
<path fill-rule="evenodd" clip-rule="evenodd" d="M15.6719 9.13C17.0419 10.06 18.0019 11.32 18.0019 13V16H22.0019V13C22.0019 10.82 18.4319 9.53 15.6719 9.13Z" fill="#323232"/>
<path d="M8 8C10.2091 8 12 6.20914 12 4C12 1.79086 10.2091 0 8 0C5.79086 0 4 1.79086 4 4C4 6.20914 5.79086 8 8 8Z" fill="#323232"/>
<path fill-rule="evenodd" clip-rule="evenodd" d="M14.0019 8C16.2119 8 18.0019 6.21 18.0019 4C18.0019 1.79 16.2119 0 14.0019 0C13.5319 0 13.0919 0.0999998 12.6719 0.24C13.5019 1.27 14.0019 2.58 14.0019 4C14.0019 5.42 13.5019 6.73 12.6719 7.76C13.0919 7.9 13.5319 8 14.0019 8Z" fill="#323232"/>
<path fill-rule="evenodd" clip-rule="evenodd" d="M8 9C5.33 9 0 10.34 0 13V16H16V13C16 10.34 10.67 9 8 9Z" fill="#323232"/>
</svg>
